<?xml version="1.0" standalone="no"?>
<!DOCTYPE svg PUBLIC "-//W3C//DTD SVG 1.1//EN" "http://www.w3.org/Graphics/SVG/1.1/DTD/svg11.dtd" >
<svg>
<metadata>
Created by FontForge 20090622 at Tue Aug 30 12:22:43 2016
 By deploy user
Copyright (c) 2010 by Frantisek Storm. All rights reserved.
</metadata>
<defs>
<font id="Jannon10Pro" horiz-adv-x="371" >
  <font-face 
    font-family="Jannon 10 Pro"
    font-weight="400"
    font-stretch="normal"
    units-per-em="1000"
    panose-1="2 0 5 3 0 0 0 2 0 3"
    ascent="800"
    descent="-200"
    x-height="440"
    cap-height="690"
    bbox="-207 -286 1471 986"
    underline-thickness="57"
    underline-position="-60"
    unicode-range="U+0020-U+FB06"
  />
<missing-glyph horiz-adv-x="228" 
 />
    <glyph glyph-name="f_f" unicode="ff" horiz-adv-x="596" 
d="M425 645q-33 68 -102 68q-68 0 -105 -49t-37 -136v-98l209 3v79q0 68 35 133zM472 703q63 57 135 57q58 0 87 -21.5t29 -55.5q0 -19 -13 -33t-30 -14q-19 0 -30.5 11.5t-16.5 25t-19 25t-37 11.5q-38 0 -72 -39.5t-34 -114.5v-118l109 3v-50h-109v-334q0 -25 20 -25h51
v-31h-214v31h41q21 0 21 25v334h-209v-334q0 -25 20 -25h56v-31h-220v31h42q21 0 21 25v334h-71v21l71 28v58q0 122 68 192.5t169 70.5q82 0 135 -57z" />
    <glyph glyph-name="f_i" unicode="fi" horiz-adv-x="567" 
d="M268 430q165 0 191 41q17 0 17 -6q0 -2 -1 -12.5t-2.5 -33t-1.5 -52.5v-311q0 -25 20 -25h43v-31h-206v31h41q21 0 21 25v334h-209v-334q0 -25 20 -25h51v-31h-215v31h42q21 0 21 25v334h-71v21l71 28v55q0 121 69 193.5t181 72.5q67 0 98.5 -25.5t31.5 -61.5
q0 -24 -13 -37.5t-31 -13.5q-24 0 -39 13.5t-21 30t-21 30t-40 13.5q-62 0 -98 -48.5t-36 -136.5v-94h87z" />
    <glyph glyph-name="f_l" unicode="fl" horiz-adv-x="568" 
d="M390 595q0 63 -16 92.5t-65 29.5q-128 0 -128 -162v-115h109v-50h-109v-334q0 -25 20 -25h51v-31h-215v31h42q21 0 21 25v334h-71v21l71 28v74q0 107 65 177t152 70q26 0 52 -8t37 -22q38 28 55 45q17 0 17 -6q0 -2 -0.5 -15.5t-2 -39t-2.5 -60t-1.5 -88t-0.5 -113.5
v-397q0 -25 20 -25h43v-31h-206v31h41q21 0 21 25v539z" />
    <glyph glyph-name="f_f_i" unicode="ffi" horiz-adv-x="857" 
d="M474 703q68 57 167 57q66 0 98 -25.5t32 -61.5q0 -24 -13.5 -37.5t-31.5 -13.5q-24 0 -39 13.5t-21 30t-21 30t-40 13.5q-62 0 -98 -48.5t-36 -136.5v-94h87q169 0 191 41q17 0 17 -6q0 -2 -1 -12.5t-2.5 -33t-1.5 -52.5v-311q0 -25 20 -25h43v-31h-206v31h41q21 0 21 25
v334h-209v-334q0 -25 20 -25h51v-31h-214v31h41q21 0 21 25v334h-209v-334q0 -25 20 -25h56v-31h-220v31h42q21 0 21 25v334h-71v21l71 28v58q0 122 69.5 192.5t176.5 70.5q79 0 128 -57zM426 644q-31 69 -103 69q-68 0 -105 -49t-37 -136v-98h209v64q0 87 36 150z" />
    <glyph glyph-name="f_f_l" unicode="ffl" horiz-adv-x="881" 
d="M423 647q-31 66 -100 66q-68 0 -105 -49t-37 -136v-98l209 3v61q0 95 33 153zM607 760q26 0 52 -8t37 -22q33 23 55 45q18 0 18 -6q0 -2 -1 -15.5t-2 -39t-2 -60t-2 -88t-1 -113.5v-397q0 -25 20 -25h43v-31h-206v31h41q21 0 21 25v539q0 63 -16 92.5t-65 29.5
q-128 0 -128 -162v-118l109 3v-50h-109v-334q0 -25 20 -25h51v-31h-214v31h41q21 0 21 25v334h-209v-334q0 -25 20 -25h56v-31h-220v31h42q21 0 21 25v334h-71v21l71 28v58q0 122 68 192.5t169 70.5q87 0 134 -54q23 23 60 38.5t76 15.5z" />
    <glyph glyph-name="f_j" unicode="fj" horiz-adv-x="554" 
d="M390 -20v410h-209v-334q0 -25 20 -25h51v-31h-215v31h42q21 0 21 25v334h-71v21l71 28v55q0 121 69 193.5t181 72.5q67 0 98.5 -25.5t31.5 -61.5q0 -24 -13 -37.5t-31 -13.5q-24 0 -39 13.5t-21 30t-21 30t-40 13.5q-62 0 -98 -48.5t-36 -136.5v-94h87q165 0 191 41
q17 0 17 -6q0 -2 -1 -12.5t-2.5 -33t-1.5 -52.5v-328q0 -110 -68 -205t-151 -95q-29 0 -29 25q0 23 21.5 39.5t61.5 16.5q36 0 60 39.5t24 120.5z" />
    <glyph glyph-name="f_f_j" unicode="ffj" horiz-adv-x="832" 
d="M680 -20v410h-209v-334q0 -25 20 -25h51v-31h-215v31h42q21 0 21 25v334h-209v-334q0 -25 20 -25h56v-31h-220v31h42q21 0 21 25v334h-71v21l71 28v58q0 122 68 192.5t169 70.5q75 0 135 -60q66 60 168 60q67 0 98.5 -25.5t31.5 -61.5q0 -24 -13 -37.5t-31 -13.5
q-24 0 -39 13.5t-21 30t-21 30t-40 13.5q-62 0 -98 -48.5t-36 -136.5v-94h87q165 0 191 41q17 0 17 -6q0 -2 -1 -12.5t-2.5 -33t-1.5 -52.5v-328q0 -110 -68 -205t-151 -95q-29 0 -29 25q0 23 21.5 39.5t61.5 16.5q36 0 60 39.5t24 120.5zM390 433v61q0 90 40 155
q-34 64 -107 64q-68 0 -105 -49t-37 -136v-98z" />
    <glyph glyph-name="f_f_k" unicode="ffk" horiz-adv-x="1111" 
d="M768 769q0 -2 -0.5 -14.5t-2 -35t-2.5 -53t-1.5 -78t-0.5 -100.5v-244q19 9 84 73.5t65 74.5q0 17 -20 17h-38v31h217v-31h-21q-30 0 -61 -24l-67.5 -58l-74.5 -63q50 -47 197 -219q9 -14 26 -14h22v-31h-197v31h28q15 0 15 14q0 10 -77.5 97t-97.5 89v-175q0 -25 19 -25
h29v-31h-192v31h42q21 0 21 25v555q-2 53 -18.5 79.5t-62.5 26.5q-128 0 -128 -162v-115h109v-50h-109v-334q0 -25 20 -25h51v-31h-215v31h42q21 0 21 25v334h-209v-334q0 -25 20 -25h56v-31h-220v31h42q21 0 21 25v334h-71v21l71 28v58q0 122 68 192.5t169 70.5
q80 0 133 -55q61 55 137 55q26 0 52 -8t37 -22q38 28 55 45q17 0 17 -6zM181 430l209 3v80q0 79 36 138q-16 29 -44 45.5t-59 16.5q-68 0 -105 -49t-37 -136v-98z" />
    <glyph glyph-name="T_h" unicode="Th" horiz-adv-x="1063" 
d="M590 559q0 35 -15 52.5t-66.5 28.5t-155.5 13v-605q0 -17 13 -17h66v-31h-254v31h66q13 0 13 17v605q-70 -2 -103 -5.5t-60 -17.5t-39 -31.5t-34 -59.5q-21 0 -21 10q0 4 1.5 18t3.5 40.5t2 62.5q0 11 4.5 15.5t18.5 4.5h480q112 0 150 46q18 0 18 -6q0 -2 -0.5 -8.5
t-2 -21.5t-2.5 -39t-1.5 -70.5t-0.5 -106.5v-113q25 43 69 67t92 24q61 0 102 -38.5t41 -110.5v-257q0 -25 20 -25h42v-31h-213v31h50q20 0 20 25v232q0 53 -30.5 79.5t-75.5 26.5q-46 0 -81.5 -25.5t-35.5 -66.5v-246q0 -25 19 -25h50v-31h-213v31h42q21 0 21 25v503z" />
    <glyph glyph-name="W_h" unicode="Wh" horiz-adv-x="1497" 
d="M921 690q100 0 173 35q18 0 18 -6q0 -2 -0.5 -7.5t-2 -18.5t-2.5 -36t-1.5 -68t-0.5 -105v-113q25 43 69 67t92 24q61 0 102 -38.5t41 -110.5v-257q0 -25 20 -25h42v-31h-213v31h50q20 0 20 25v232q0 53 -30.5 79.5t-75.5 26.5q-46 0 -81.5 -25.5t-35.5 -66.5v-246
q0 -25 19 -25h50v-31h-213v31h42q21 0 21 25v553q0 49 -28 49h-62q-17 0 -31 -30q-162 -336 -278 -643h-50q-14 47 -112 326q-79 -184 -129 -326h-50q-25 76 -123 329.5t-131 327.5q-7 16 -19 16h-37v32h243v-32h-53q-14 0 -20 -8.5t0 -23.5l189 -519l108 260
q-80 213 -109 275q-7 16 -19 16h-37v32h187v-32h-16q-33 0 -22 -32l59 -155l61 146q8 22 2 31.5t-21 9.5h-20v32h168v-32h-35q-15 0 -32 -30q-39 -71 -102 -216l118 -305l191 510q8 22 2.5 31.5t-20.5 9.5h-46v32h171z" />
    <glyph glyph-name=".notdef" horiz-adv-x="228" 
 />
    <glyph glyph-name=".null" horiz-adv-x="0" 
 />
    <glyph glyph-name="nonmarkingreturn" horiz-adv-x="333" 
 />
    <glyph glyph-name="space" unicode=" " horiz-adv-x="228" 
 />
    <glyph glyph-name="exclam" unicode="!" horiz-adv-x="305" 
d="M152 111q25 0 42 -17t17 -41q0 -25 -17 -42t-42 -17q-24 0 -41 17t-17 42q0 24 17 41t41 17zM164 177h-25l-38 472q-2 24 12.5 41t38.5 17t38.5 -17t12.5 -41z" />
    <glyph glyph-name="quotedbl" unicode="&#x22;" horiz-adv-x="373" 
d="M62 665q-2 17 11.5 29t35.5 12q23 0 36 -10.5t9 -31.5l-35 -208h-27zM218 665q-2 17 11.5 29t35.5 12q23 0 36 -10.5t9 -31.5l-35 -208h-27z" />
    <glyph glyph-name="numbersign" unicode="#" horiz-adv-x="706" 
d="M428 253v146h-140v-146h140zM477 204v-204h-49v204h-140v-204h-49v204h-173v49h173v146h-173v49h173v197h49v-197h140v197h49v-197h166v-49h-166v-146h166v-49h-166z" />
    <glyph glyph-name="dollar" unicode="$" horiz-adv-x="505" 
d="M239 414l5 209q-43 -7 -66 -35t-23 -68q0 -34 21 -58t63 -48zM266 27l-4 -142h-37l4 140q-57 0 -98 11t-57 24t-17 26l-5 99q-1 8 6 11t19 3q37 -128 153 -131l6 247q-78 39 -119 79t-41 102q0 61 47.5 110.5t122.5 59.5l4 133h37l-3 -131q64 -1 106.5 -18t43.5 -41
l3 -89q0 -16 -25 -16q-29 115 -130 121l-6 -231q98 -50 135 -92.5t37 -109.5q0 -69 -50.5 -111.5t-131.5 -53.5zM267 71q44 7 70 34.5t26 71.5q0 38 -18.5 62.5t-70.5 54.5z" />
    <glyph glyph-name="percent" unicode="%" horiz-adv-x="702" 
d="M352 546q0 -65 -46.5 -111.5t-109.5 -46.5t-109 46.5t-46 111.5q0 64 46 110.5t109 46.5t109.5 -46.5t46.5 -110.5zM111 546q0 -119 85 -119q86 0 86 119t-86 119q-85 0 -85 -119zM661 146q0 -66 -46.5 -112t-109.5 -46q-62 0 -108.5 46.5t-46.5 111.5q0 64 46.5 110.5
t108.5 46.5q63 0 109.5 -46.5t46.5 -110.5zM421 146q0 -119 84 -119q87 0 87 119q0 118 -87 118q-84 0 -84 -118zM643 690l-513 -690h-71l512 690h72z" />
    <glyph glyph-name="ampersand" unicode="&#x26;" horiz-adv-x="935" 
d="M535 153q-105 -169 -265 -169q-105 0 -168.5 53.5t-63.5 147.5q0 83 52 135.5t170 107.5q-35 39 -51.5 70t-16.5 69q0 52 44.5 96t123.5 44q60 0 96.5 -34t36.5 -84q0 -41 -31 -75t-105 -71q34 -36 105 -102l106 -101q115 150 115 192q0 21 -68 21q0 29 10 29
q60 0 141.5 7t107.5 7q10 0 10 -27q-30 0 -70.5 -20t-67.5 -55q-20 -27 -65 -79t-92 -96l55.5 -60t56.5 -60t35 -28q33 -18 88 -18q41 0 58 13q7 -8 7 -21q0 -10 -20 -24t-58 -25.5t-81 -11.5q-30 0 -51.5 11.5t-35 27t-45.5 56t-63 74.5zM336 465q84 47 84 121
q0 37 -19.5 61t-54.5 24q-36 0 -56.5 -21t-20.5 -51q0 -59 67 -134zM514 175l-114 112t-119 120q-87 -44 -119.5 -89t-32.5 -106q0 -65 46.5 -105.5t115.5 -40.5q51 0 111.5 27.5t111.5 81.5z" />
    <glyph glyph-name="quotesingle" unicode="'" horiz-adv-x="155" 
d="M31 666q-2 17 11.5 29t35.5 12q23 0 36 -10.5t9 -31.5l-36 -208h-27z" />
    <glyph glyph-name="parenleft" unicode="(" horiz-adv-x="426" 
d="M423 -203q0 -26 -13 -26q-158 5 -269 158t-111 369t111 370t269 158q13 0 13 -22q0 -24 -13 -24q-90 -3 -160 -69.5t-107.5 -175t-37.5 -237.5q0 -197 85 -336.5t220 -143.5q13 0 13 -21z" />
    <glyph glyph-name="parenright" unicode=")" horiz-adv-x="426" 
d="M326 298q0 198 -85 338t-220 144q-13 1 -13 24q0 22 13 22q103 -2 190.5 -73t138 -192t50.5 -263q0 -216 -110.5 -369t-268.5 -158q-13 0 -13 26q0 21 13 21q135 4 220 143.5t85 336.5z" />
    <glyph glyph-name="asterisk" unicode="*" horiz-adv-x="423" 
d="M217 580l35 -124q5 -19 -7.5 -30t-33.5 -11t-34 12.5t-9 28.5l36 124l-108 -70q-17 -10 -31 -2t-20 28q-7 20 1 36t25 17l130 5l-102 81q-14 13 -11 28.5t20 27.5q16 12 34.5 10t23.5 -18l45 -123l47 122q6 19 23.5 20.5t32.5 -11.5q17 -11 20 -29t-10 -29l-102 -79
l130 -7q19 -1 26 -16.5t0 -34.5q-7 -20 -22.5 -28.5t-29.5 0.5z" />
    <glyph glyph-name="plus" unicode="+" horiz-adv-x="599" 
d="M329 222v-208h-58v208h-209v56h209v209h58v-209h208v-56h-208z" />
    <glyph glyph-name="comma" unicode="," horiz-adv-x="297" 
d="M73 -131v32q45 8 71 31.5t26 59.5q0 23 -12 36t-26 13q-25 0 -41 14t-16 38t16.5 41t40.5 17q36 0 64.5 -34t28.5 -83q0 -70 -42.5 -112.5t-109.5 -52.5z" />
    <glyph glyph-name="hyphen" unicode="-" horiz-adv-x="305" 
d="M45 292l214 20q4 -12 4 -33q0 -20 -4 -33l-214 -19q-3 13 -3 31q0 19 3 34z" />
    <glyph glyph-name="period" unicode="." horiz-adv-x="281" 
d="M139 123q29 0 49 -19.5t20 -47.5q0 -29 -20 -48.5t-49 -19.5q-27 0 -46.5 20t-19.5 48t19.5 47.5t46.5 19.5z" />
    <glyph glyph-name="slash" unicode="/" horiz-adv-x="397" 
d="M463 690l-393 -690h-75l392 690h76z" />
    <glyph glyph-name="zero" unicode="0" horiz-adv-x="549" 
d="M274 707q94 0 159.5 -106t65.5 -256t-65.5 -256t-159.5 -106q-93 0 -158.5 106.5t-65.5 255.5q0 150 65.5 256t158.5 106zM274 670q-58 0 -95.5 -93t-37.5 -232t37.5 -231.5t95.5 -92.5t95.5 92.5t37.5 231.5t-37.5 232t-95.5 93z" />
    <glyph glyph-name="one" unicode="1" horiz-adv-x="422" 
d="M191 539q0 29 -12 29q-11 0 -29 -12q-86 -36 -109 -36q-4 0 -7.5 5t-3.5 11t4 10q79 16 224 162q21 0 21 -10q0 -3 -1.5 -42t-2.5 -110t-1 -150v-347q0 -18 14 -18h91v-31h-293v31h92q13 0 13 18v490z" />
    <glyph glyph-name="two" unicode="2" horiz-adv-x="542" 
d="M441 0h-392v27q317 233 317 459q0 147 -123 147q-110 0 -140 -115q-22 0 -22 11q0 19 5 40.5t18 47t33.5 45t55 32.5t77.5 13q88 0 136 -55t48 -149q0 -110 -81 -221t-215 -204h232q26 0 36 11.5t17 47.5q21 0 21 -11q0 -7 -5 -50.5t-5 -60.5q0 -15 -13 -15z" />
    <glyph glyph-name="three" unicode="3" horiz-adv-x="527" 
d="M271 396q87 0 138 -45t51 -116q0 -62 -25 -111.5t-66.5 -78.5t-89.5 -44.5t-98 -15.5q-56 0 -87.5 19t-31.5 49q0 19 11 31.5t29 12.5q19 0 30.5 -11t16 -24t19 -24t38.5 -11q72 0 117 48.5t45 122.5q0 66 -34.5 101t-98.5 35q-62 0 -86 -16q-15 0 -15 18q0 7 5 12
q106 60 145 105t39 100q0 38 -26 61.5t-75 23.5q-82 0 -128 -73q-21 0 -21 13q0 5 5.5 18t19.5 32.5t33.5 36.5t53.5 29.5t74 12.5q76 0 115.5 -32.5t39.5 -85.5q0 -55 -34 -101.5t-109 -91.5z" />
    <glyph glyph-name="four" unicode="4" horiz-adv-x="521" 
d="M393 205v-205h-79v205h-284l-5 23l321 481l47 -3v-437h76v-64h-76zM314 269v313l-210 -313h210z" />
    <glyph glyph-name="five" unicode="5" horiz-adv-x="492" 
d="M429 735q0 -17 -4 -53t-4 -53l-286 -19q-16 -2 -16 -41q0 -12 10 -14q142 -18 217 -91.5t75 -179.5q0 -60 -25.5 -112t-65.5 -86t-89.5 -58.5t-95.5 -35.5t-85 -11q-14 0 -14 17q285 61 285 272q0 98 -70 150.5t-189 57.5l41 204l271 22q21 2 23 31h22z" />
    <glyph glyph-name="six" unicode="6" horiz-adv-x="552" 
d="M149 228q0 -93 35 -147.5t90 -54.5q126 0 126 182q0 76 -33.5 125t-89.5 49q-63 0 -95.5 -43t-32.5 -111zM165 369l5 -3q39 58 131 58q91 0 141 -61t50 -146q0 -108 -65.5 -170.5t-153.5 -62.5q-87 0 -152 66.5t-65 185.5q0 88 35.5 168t87 133t109.5 93t103 58.5
t67 18.5q7 0 11.5 -6.5t4.5 -14.5q-117 -44 -195 -128t-114 -189z" />
    <glyph glyph-name="seven" unicode="7" horiz-adv-x="463" 
d="M135 613q-32 0 -47.5 -16t-20.5 -51q-21 0 -21 11q0 17 10.5 81t10.5 81h23q0 -29 28 -29h345v-20l-282 -690l-28 11l211 622h-229z" />
    <glyph glyph-name="eight" unicode="8" horiz-adv-x="562" 
d="M331 375q40 -26 60.5 -41.5t49 -42.5t41.5 -58t13 -68q0 -84 -65 -133t-162 -49q-83 0 -142.5 42.5t-59.5 118.5q0 58 39.5 102t124.5 93q-64 42 -100.5 85t-36.5 105q0 69 57 123.5t137 54.5q86 0 137.5 -43.5t51.5 -109.5q0 -62 -35.5 -100t-109.5 -79zM259 319
q-53 -33 -81.5 -71.5t-28.5 -96.5q0 -57 34.5 -92t89.5 -35q58 0 95.5 29.5t37.5 90.5q0 32 -10.5 57.5t-36.5 48t-43 34.5t-57 35zM303 395q99 68 99 152q0 58 -28.5 89.5t-83.5 31.5q-52 0 -84.5 -30.5t-32.5 -82.5q0 -50 32.5 -85t97.5 -75z" />
    <glyph glyph-name="nine" unicode="9" horiz-adv-x="552" 
d="M340 313q3 -3 3 -11q0 -13 -22.5 -22.5t-66.5 -9.5q-92 0 -143 57.5t-51 147.5q0 91 61 161.5t151 70.5q96 0 160 -65.5t64 -189.5q0 -86 -35 -165t-86 -132t-108.5 -93.5t-103.5 -59t-70 -18.5q-6 0 -10.5 7t-4.5 14q156 57 240.5 177t84.5 268q0 109 -35 161.5
t-96 52.5q-57 0 -88.5 -45t-31.5 -127q0 -87 36.5 -135t109.5 -48q28 0 42 4z" />
    <glyph glyph-name="colon" unicode=":" horiz-adv-x="281" 
d="M139 123q29 0 49 -19.5t20 -47.5q0 -29 -20 -48.5t-49 -19.5q-27 0 -46.5 20t-19.5 48t19.5 47.5t46.5 19.5zM139 468q29 0 49 -19.5t20 -47.5q0 -29 -20 -48.5t-49 -19.5q-27 0 -46.5 20t-19.5 48t19.5 47.5t46.5 19.5z" />
    <glyph glyph-name="semicolon" unicode=";" horiz-adv-x="297" 
d="M139 468q29 0 49 -19.5t20 -47.5q0 -29 -20 -48.5t-49 -19.5q-27 0 -46.5 20t-19.5 48t19.5 47.5t46.5 19.5zM73 -131v32q45 8 71 31.5t26 59.5q0 23 -12 36t-26 13q-25 0 -41 14t-16 38t16.5 41t40.5 17q36 0 64.5 -34t28.5 -83q0 -70 -42.5 -112.5t-109.5 -52.5z" />
    <glyph glyph-name="less" unicode="&#x3c;" horiz-adv-x="514" 
d="M453 480l19 -27l-313 -202l313 -206l-19 -28l-411 211v42z" />
    <glyph glyph-name="equal" unicode="=" horiz-adv-x="599" 
d="M62 359h475v-56h-475v56zM62 197h475v-57h-475v57z" />
    <glyph glyph-name="greater" unicode="&#x3e;" horiz-adv-x="514" 
d="M60 17l-18 27l313 202l-313 206l18 28l412 -211v-42z" />
    <glyph glyph-name="question" unicode="?" horiz-adv-x="398" 
d="M172 111q25 0 42 -17t17 -41q0 -25 -17 -42t-42 -17t-42 17t-17 42q0 24 17 41t42 17zM357 512q0 -53 -15 -89t-37 -53.5t-44 -30t-40.5 -30.5t-22.5 -43l-16 -89h-23l-20 105q-7 36 1.5 62t26 40.5t39.5 29.5l41.5 28.5t33 38t13.5 56.5q0 101 -96 101q-29 0 -57 -22.5
t-51 -22.5q-21 0 -34.5 14t-13.5 32q0 29 22.5 48.5t65.5 19.5q104 0 165.5 -56t61.5 -139z" />
    <glyph glyph-name="at" unicode="@" horiz-adv-x="876" 
d="M511 292q0 79 -19.5 109t-77.5 30q-114 0 -193.5 -98t-79.5 -238q0 -95 57.5 -149t161.5 -54q111 0 197.5 59t130.5 154.5t44 208.5q0 133 -60.5 206.5t-199.5 73.5q-32 0 -67 -6q-11 0 -11 14q0 13 11 15q50 8 92 8q151 0 237 -83.5t86 -229.5q0 -128 -63 -235.5
t-170.5 -169.5t-234.5 -62q-140 0 -218 66t-78 186q0 70 32 139.5t85.5 123t128 87t153.5 33.5q73 0 103.5 -32.5t30.5 -104.5q0 -139 -67 -240t-152 -101q-86 0 -86 85q0 52 55 106t172 99zM511 260q-145 -59 -145 -146q0 -21 11.5 -32.5t30.5 -11.5q42 0 72.5 45.5
t30.5 144.5z" />
    <glyph glyph-name="A" unicode="A" horiz-adv-x="636" 
d="M191 292h219l-108 290zM422 255h-244l-70 -182q-7 -22 -1.5 -32t20.5 -10h46v-31h-205v31h30q18 0 31 30q146 310 272 643h56q23 -72 119.5 -325.5t129.5 -329.5q10 -18 19 -18h36v-31h-238v31h56q9 0 13.5 6.5t-0.5 25.5z" />
    <glyph glyph-name="B" unicode="B" horiz-adv-x="633" 
d="M428 514q0 69 -43 104.5t-160 35.5v-279q119 1 161 32.5t42 106.5zM225 40q133 0 190.5 36t57.5 111q0 33 -9 58t-34 48.5t-76.5 36t-128.5 12.5v-302zM371 365q93 -8 150.5 -56.5t57.5 -122.5q0 -82 -73 -134t-218 -52h-232v31h59q13 0 13 17v594q0 16 -13 16h-59v32
h227q130 0 190.5 -50t60.5 -116q0 -65 -45.5 -106t-117.5 -53z" />
    <glyph glyph-name="C" unicode="C" horiz-adv-x="748" 
d="M674 654q12 -8 12 -19q0 -19 5 -72.5t5 -65.5t-25 -12q-17 84 -73.5 130.5t-150.5 46.5q-119 0 -200 -92t-81 -229q0 -134 81.5 -223.5t194.5 -89.5q35 0 70 8.5t70.5 27.5t61 55t33.5 85q27 0 27 -13q0 -11 -4.5 -61.5t-4.5 -69.5q0 -6 -2.5 -9.5t-8.5 -7t-8 -5.5
q-88 -54 -248 -54q-155 0 -263.5 100.5t-108.5 251.5t118 261t277 110q140 0 223 -53z" />
    <glyph glyph-name="D" unicode="D" horiz-adv-x="778" 
d="M227 35q188 0 286.5 77.5t98.5 233.5q0 143 -97 224t-288 82v-617zM130 48v594q0 16 -12 16h-62v32h252q190 0 302 -96.5t112 -247.5q0 -161 -114 -253.5t-300 -92.5h-252v31h62q12 0 12 17z" />
    <glyph glyph-name="E" unicode="E" horiz-adv-x="604" 
d="M225 649v-273q165 3 191 12q21 7 24 29q1 3 1 5l3 30q31 0 31 -8q0 -15 -1 -41.5t-1 -42.5t1 -46t1 -45q0 -11 -31 -11l-4 31q-1 12 -3.5 19t-12 13t-21 9t-38 5t-57 2.5t-83.5 1.5v-294q66 1 103 2.5t72.5 6t52.5 10t33.5 18t25 27.5t19.5 40q26 0 26 -12
q0 -10 -9 -55.5t-9 -59.5q0 -10 -6.5 -17t-14.5 -7q-4 0 -201 1t-261 1v31h59q13 0 13 17v594q0 16 -13 16h-59v32q63 0 243.5 1.5t185.5 1.5q23 0 23 -22q0 -15 3 -52t3 -53q0 -11 -24 -11q-7 23 -13 36t-19.5 24.5t-28.5 16.5t-46 9.5t-65 5.5t-93 2z" />
    <glyph glyph-name="F" unicode="F" horiz-adv-x="528" 
d="M225 48q0 -17 11 -17h80v-31h-260v31h59q13 0 13 17v594q0 16 -13 16h-59v32q63 0 243.5 1.5t185.5 1.5q23 0 23 -22q0 -15 3 -52t3 -53q0 -11 -24 -11q-7 23 -13 36t-19.5 24.5t-28.5 16.5t-46 9.5t-65 5.5t-93 2v-273q165 3 191 12q21 7 24 29q1 3 1 5l3 30q31 0 31 -8
q0 -15 -1 -41.5t-1 -42.5t1 -46t1 -45q0 -11 -31 -11l-4 31q-1 12 -3.5 19t-12 13t-21 9t-38 5t-57 2.5t-83.5 1.5v-291z" />
    <glyph glyph-name="G" unicode="G" horiz-adv-x="804" 
d="M447 29q153 0 153 80v124q0 17 -13 17h-91v31h278v-31h-60q-13 0 -13 -17v-184q-47 -29 -119.5 -47t-147.5 -18q-170 0 -274 99t-104 253q0 152 117.5 261.5t280.5 109.5q136 0 220 -53q11 -8 11 -19q0 -19 5 -72.5t5 -65.5t-25 -12q-11 79 -70.5 128t-147.5 49
q-118 0 -202 -93.5t-84 -227.5q0 -141 79.5 -226.5t201.5 -85.5z" />
    <glyph glyph-name="H" unicode="H" horiz-adv-x="823" 
d="M596 343h-370v-295q0 -17 13 -17h62v-31h-245v31h62q12 0 12 17v594q0 16 -12 16h-62v32h245v-32h-62q-13 0 -13 -16v-262h370v262q0 16 -13 16h-61v32h244v-32h-61q-12 0 -12 -16v-594q0 -17 12 -17h61v-31h-244v31h61q13 0 13 17v295z" />
    <glyph glyph-name="I" unicode="I" horiz-adv-x="357" 
d="M301 0h-245v31h62q12 0 12 17v594q0 16 -12 16h-62v32h245v-32h-62q-12 0 -12 -16v-594q0 -17 12 -17h62v-31z" />
    <glyph glyph-name="J" unicode="J" horiz-adv-x="334" 
d="M224 37q0 -98 -67.5 -174.5t-167.5 -76.5q-36 0 -54.5 17.5t-18.5 44.5q0 19 13.5 34.5t33.5 15.5q24 0 40 -24.5t39 -24.5q36 0 60.5 43.5t24.5 129.5v620q0 16 -13 16h-61v32h244v-32h-61q-12 0 -12 -16v-605z" />
    <glyph glyph-name="K" unicode="K" horiz-adv-x="692" 
d="M227 346v-298q0 -17 12 -17h62v-31h-245v31h62q12 0 12 17v594q0 16 -12 16h-62v32h245v-32h-62q-12 0 -12 -16v-273q69 61 144 135.5t112 120.5q8 11 5 22t-15 11h-65v32h269v-32h-34q-27 0 -46 -17q-17 -14 -116 -103.5t-175 -147.5q154 -140 323 -344q14 -15 31 -15
h40v-31h-270v31h70q4 0 7.5 3t3.5 7q0 6 -13 21q-44 55 -135.5 149.5t-135.5 134.5z" />
    <glyph glyph-name="L" unicode="L" horiz-adv-x="566" 
d="M227 45q133 1 204.5 23.5t102.5 90.5q26 0 26 -13q0 -9 -9.5 -55.5t-9.5 -68.5q0 -10 -6.5 -17t-14.5 -7q-3 0 -201.5 1t-262.5 1v31h62q12 0 12 17v594q0 16 -12 16h-62v32h249v-32h-66q-12 0 -12 -16v-597z" />
    <glyph glyph-name="M" unicode="M" horiz-adv-x="930" 
d="M468 12h-28l-262 537q0 -271 5 -468q1 -31 10.5 -40.5t34.5 -9.5h34v-31h-206v31h34q18 0 26 10.5t9 38.5q5 315 5 562q0 16 -11 16h-63v32h157l264 -558l243 558h154v-32h-62q-12 0 -12 -16v-594q0 -17 12 -17h62v-31h-249v31h66q12 0 12 17v497z" />
    <glyph glyph-name="N" unicode="N" horiz-adv-x="803" 
d="M633 150q0 270 -5 458q-1 32 -9 41t-36 9h-34v32h211v-32h-35q-22 0 -27.5 -8.5t-6.5 -40.5q-6 -248 -6 -620h-50l-452 624q0 -352 4 -532q1 -32 9.5 -41t36.5 -9h34v-31h-211v31h31q23 0 30.5 9.5t8.5 39.5q4 189 4 562q0 16 -11 16h-63v32h192z" />
    <glyph glyph-name="O" unicode="O" horiz-adv-x="863" 
d="M807 341q0 -147 -110 -252t-265 -105t-265.5 105t-110.5 252q0 149 111 257.5t265 108.5q155 0 265 -108.5t110 -257.5zM166 341q0 -134 76 -222.5t190 -88.5t189.5 88.5t75.5 222.5q0 135 -76 226t-189 91q-114 0 -190 -91t-76 -226z" />
    <glyph glyph-name="P" unicode="P" horiz-adv-x="558" 
d="M225 323q209 0 209 160q0 80 -47.5 123t-161.5 43v-326zM56 0v31h59q13 0 13 17v594q0 16 -13 16h-59v32h228q124 0 190.5 -59t66.5 -148q0 -24 -7 -49t-25.5 -51.5t-46.5 -46.5t-73 -33t-101 -13q-38 0 -63 4v-246q0 -17 11 -17h88v-31h-268z" />
    <glyph glyph-name="Q" unicode="Q" horiz-adv-x="862" 
d="M490 -9q205 -157 411 -157q50 0 127 11q4 -4 4 -19q0 -20 -55.5 -42.5t-130.5 -22.5q-110 0 -222 55t-253 175q-135 22 -225 120.5t-90 229.5q0 149 111 257.5t265 108.5q155 0 265 -108.5t110 -257.5q0 -131 -91.5 -232.5t-225.5 -117.5zM163 341q0 -134 77.5 -222.5
t191.5 -88.5t191 88.5t77 222.5t-77.5 225.5t-190.5 91.5q-114 0 -191.5 -91.5t-77.5 -225.5z" />
    <glyph glyph-name="R" unicode="R" horiz-adv-x="660" 
d="M225 341q100 1 152.5 35.5t52.5 119.5q0 79 -45 116t-160 37v-308zM56 0v31h59q13 0 13 17v594q0 16 -13 16h-59v32h228q72 0 124 -18t78.5 -48.5t38.5 -62t12 -65.5q0 -61 -40 -105.5t-108 -62.5q50 -67 162 -195q96 -102 151 -102q-3 -31 -10 -31h-122q-30 0 -111 93
t-171 217q-8 0 -20 -1t-22.5 -1.5t-20.5 -0.5v-259q0 -17 11 -17h74v-31h-254z" />
    <glyph glyph-name="S" unicode="S" horiz-adv-x="522" 
d="M439 642l3 -88q0 -16 -25 -16q-15 53 -49.5 87t-88.5 34q-57 0 -88 -33t-31 -85q0 -20 7.5 -38t15 -29t30.5 -27.5t33 -23t44 -26.5q93 -56 128.5 -101.5t35.5 -113.5q0 -95 -64.5 -146.5t-159.5 -51.5q-56 0 -98.5 12.5t-60.5 27.5t-19 29l-5 98q-1 8 6.5 11.5t18.5 3.5
q20 -56 63 -95t104 -39q57 0 93 32t36 91q0 51 -26.5 81t-110.5 79q-78 45 -115 90.5t-37 117.5q0 66 56.5 125t147.5 59q66 0 110.5 -19t45.5 -46z" />
    <glyph glyph-name="T" unicode="T" horiz-adv-x="623" 
d="M353 653v-605q0 -17 13 -17h66v-31h-254v31h66q13 0 13 17v605q-70 -2 -103 -5.5t-60 -17.5t-39 -31.5t-34 -59.5q-21 0 -21 10q0 4 1.5 18t3.5 40.5t2 62.5q0 11 4.5 15.5t18.5 4.5h563q23 0 23 -20q0 -36 2 -62.5t3.5 -40.5t1.5 -18q0 -10 -22 -10q-28 54 -50 74
t-62 28.5t-136 11.5z" />
    <glyph glyph-name="U" unicode="U" horiz-adv-x="773" 
d="M597 609q0 28 -10 38.5t-37 10.5h-42v32h227v-32h-30q-26 0 -35.5 -10.5t-9.5 -34.5v-371q0 -123 -80.5 -193t-191.5 -70q-116 0 -195.5 68t-79.5 195v400q0 16 -13 16h-62v32h262v-32h-80q-11 0 -11 -16v-389q0 -104 55 -159.5t143 -55.5q83 0 136.5 52t53.5 152v367z
" />
    <glyph glyph-name="V" unicode="V" horiz-adv-x="639" 
d="M331 105l192 512q8 22 2 31.5t-21 9.5h-45v32h219v-32h-35q-18 0 -31 -30q-167 -349 -278 -643h-50q-25 76 -123 329.5t-131 327.5q-7 16 -19 16h-37v32h243v-32h-53q-14 0 -20 -8.5t0 -23.5z" />
    <glyph glyph-name="W" unicode="W" horiz-adv-x="930" 
d="M505 412l118 -305l191 510q8 22 2.5 31.5t-20.5 9.5h-46v32h219v-32h-35q-18 0 -31 -30q-167 -349 -278 -643h-50q-14 47 -112 326q-79 -184 -129 -326h-50q-25 76 -123 329.5t-131 327.5q-7 16 -19 16h-37v32h243v-32h-53q-14 0 -20 -8.5t0 -23.5l189 -519l108 260
q-80 213 -109 275q-7 16 -19 16h-37v32h187v-32h-16q-33 0 -22 -32l59 -155l61 146q8 22 2 31.5t-21 9.5h-20v32h168v-32h-35q-15 0 -32 -30q-39 -71 -102 -216z" />
    <glyph glyph-name="X" unicode="X" horiz-adv-x="692" 
d="M385 372l242 -322q14 -19 30 -19h40v-31h-259v31h65q8 0 11 6.5t-3 14.5l-184 253q-132 -177 -169 -244q-9 -15 -5 -22.5t18 -7.5h57v-31h-234v31h32q7 0 17.5 6.5t15.5 12.5q111 122 242 286l-228 305q-13 17 -30 17h-40v32h257v-32h-66q-7 0 -9 -5.5t4 -16.5l171 -232
l175 224q10 15 6 22.5t-18 7.5h-58v32h237v-32h-36q-18 0 -35 -17q-22 -25 -112 -120.5t-134 -148.5z" />
    <glyph glyph-name="Y" unicode="Y" horiz-adv-x="687" 
d="M301 330l-227 311q-4 6 -14 11.5t-16 5.5h-40v32h254v-32h-67q-7 0 -9.5 -6t3.5 -14l185 -256q114 151 169 246q9 16 5 23t-18 7h-57v32h229v-32h-31q-16 0 -35 -17q-110 -125 -235 -291v-302q0 -17 13 -17h65v-31h-252v31h65q13 0 13 17v282z" />
    <glyph glyph-name="Z" unicode="Z" horiz-adv-x="696" 
d="M647 163q0 -13 -9 -67t-9 -74q0 -23 -21 -23q-7 0 -117 0.5t-246.5 0.5h-208.5l-4 18l477 626q-111 0 -175 -3.5t-109.5 -9.5t-69.5 -23.5t-36.5 -36t-29.5 -57.5q-23 0 -23 13q0 7 9 65t9 77q0 9 6 15.5t14 6.5q3 0 236 -0.5t298 -0.5l5 -19l-481 -625q79 0 133 0.5
t101 4.5t74.5 6t52.5 12t36.5 16t25.5 23.5t20 29t19 38.5q23 0 23 -13z" />
    <glyph glyph-name="bracketleft" unicode="[" horiz-adv-x="426" 
d="M83 -229v1055h321q13 0 13 -22q0 -24 -13 -24h-252v-962h252q13 0 13 -24q0 -23 -13 -23h-321z" />
    <glyph glyph-name="backslash" unicode="\" horiz-adv-x="397" 
d="M-64 690h75l393 -690h-75z" />
    <glyph glyph-name="bracketright" unicode="]" horiz-adv-x="426" 
d="M342 826v-1055h-320q-6 0 -10 6.5t-4 15.5q0 24 14 24h252v962h-252q-14 0 -14 24q0 23 14 23h320z" />
    <glyph glyph-name="asciicircum" unicode="^" horiz-adv-x="528" 
d="M466 331l-24 -16l-178 273l-178 -273l-24 16l183 359h38z" />
    <glyph glyph-name="underscore" unicode="_" horiz-adv-x="639" 
d="M0 -106h639v-49h-639v49z" />
    <glyph glyph-name="grave" unicode="`" horiz-adv-x="497" 
d="M216 661q-13 15 -13 26q0 20 31 20q39 0 52 -20l115 -176l-21 -9z" />
    <glyph glyph-name="a" unicode="a" horiz-adv-x="449" 
d="M266 154v87q-138 -54 -138 -145q0 -45 51 -45q33 0 60 27t27 76zM274 76q-16 -35 -53 -64t-80 -29q-44 0 -69 23.5t-25 62.5q0 53 52 106t167 99v70q0 36 -12.5 52t-41.5 16q-31 0 -55.5 -18t-30.5 -53q-2 -13 -16 -21.5t-30 -8.5q-28 0 -28 26q0 43 47.5 84t122.5 41
q64 0 95.5 -26t31.5 -71q0 -38 -3 -126t-3 -137q0 -44 36 -44q34 0 52 26q14 0 14 -10q0 -24 -25.5 -55t-64.5 -31q-38 0 -58.5 25.5t-22.5 62.5z" />
    <glyph glyph-name="b" unicode="b" horiz-adv-x="582" 
d="M292 -12q-44 0 -79 11.5t-55 23t-27 11.5q-18 0 -30 -54l-26 4q13 72 13 298v373q0 25 -6.5 34.5t-21.5 14.5l-17 6q-17 5 -17 19q0 9 3 13q56 7 130 43q18 0 18 -6q0 -1 -0.5 -11.5l-1.5 -31l-2.5 -50.5t-2 -80t-0.5 -110v-105q66 71 164 71q97 0 152 -64.5t55 -153.5
q0 -100 -67.5 -178t-181.5 -78zM170 336v-189q0 -116 119 -116q79 0 122 52.5t43 124.5q0 81 -45.5 133.5t-129.5 52.5q-41 0 -75 -17.5t-34 -40.5z" />
    <glyph glyph-name="c" unicode="c" horiz-adv-x="449" 
d="M420 109q0 -13 -9 -32.5t-26.5 -41.5t-51 -37t-75.5 -15q-104 0 -160 64t-56 159q0 107 69.5 181.5t173.5 74.5q66 0 98.5 -24.5t32.5 -58.5q0 -18 -12 -30t-30 -12q-15 0 -25.5 9.5t-18 21.5t-28 21.5t-52.5 9.5q-61 0 -99 -45t-38 -118q0 -68 41.5 -115t119.5 -47
q86 0 126 53q20 0 20 -18z" />
    <glyph glyph-name="d" unicode="d" horiz-adv-x="596" 
d="M501 779q0 -1 -0.5 -11l-1.5 -30.5l-2.5 -50t-2 -79.5t-0.5 -110v-415q0 -25 20 -25h50v-25l-145 -42l-5 69q-77 -77 -164 -77q-97 0 -152.5 64.5t-55.5 153.5q0 103 71 182t199 79q48 0 101 -13v206q0 25 -6.5 34.5t-21.5 14.5l-18 6q-17 6 -17 19q0 7 4 13q56 8 130 43
q17 0 17 -6zM413 112v191q0 117 -120 117q-79 0 -122 -53.5t-43 -126.5q0 -85 42 -137.5t127 -52.5q40 0 78 19.5t38 42.5z" />
    <glyph glyph-name="e" unicode="e" horiz-adv-x="471" 
d="M116 292q-6 -27 -6 -58q0 -81 49.5 -122.5t118.5 -41.5q89 0 130 53q8 0 14 -5t6 -12q0 -13 -8 -27q-23 -44 -71.5 -70t-104.5 -26q-83 0 -142.5 58t-59.5 172q0 102 66.5 175.5t165.5 73.5q77 0 119 -40.5t42 -100.5q0 -29 -29 -29h-290zM127 328q80 2 122.5 4.5t65 8
t27 11t4.5 17.5q0 21 -19.5 34t-58.5 13q-47 0 -85 -25t-56 -63z" />
    <glyph glyph-name="f" unicode="f" horiz-adv-x="306" 
d="M181 390v-334q0 -25 20 -25h56v-31h-220v31h42q21 0 21 25v334h-71v21l71 28v73q0 101 66.5 174.5t150.5 73.5q58 0 87 -21.5t29 -55.5q0 -19 -13 -33t-30 -14q-19 0 -30.5 11.5t-16.5 25t-19 25t-37 11.5q-38 0 -72 -39.5t-34 -115.5v-114h109v-50h-109z" />
    <glyph glyph-name="g" unicode="g" horiz-adv-x="522" 
d="M182 -29q-31 -12 -51.5 -38.5t-20.5 -56.5q0 -80 132 -80q78 0 129 32.5t51 84.5q0 33 -18.5 48.5t-69.5 15.5q-24 0 -75 -3t-77 -3zM144 -25q-29 4 -60.5 27.5t-31.5 46.5q0 13 40 50t68 55q-96 37 -96 148q0 71 49 115.5t126 44.5q64 0 109 -23h138v-50h-100
q29 -36 29 -93q0 -71 -51 -115.5t-125 -44.5q-27 0 -51 5q-46 -37 -46 -65q0 -31 39 -31q18 0 77 3.5t99 3.5q136 0 136 -111q0 -91 -88.5 -146.5t-207.5 -55.5q-77 0 -125.5 28t-48.5 77q0 39 35.5 75.5t85.5 55.5zM239 425q-40 0 -64 -32t-24 -92q0 -63 24 -96t64 -33
q42 0 67 32t25 95q0 60 -25.5 93t-66.5 33z" />
    <glyph glyph-name="h" unicode="h" horiz-adv-x="567" 
d="M244 0h-213v31h42q21 0 21 25v599q0 25 -6.5 34.5t-21.5 14.5l-18 6q-17 5 -17 19q0 9 3 13q56 7 130 43q18 0 18 -6q0 -2 -0.5 -13.5t-2 -33.5t-2.5 -53.5t-1.5 -83t-0.5 -111.5v-113q25 43 69 67t92 24q61 0 102 -38.5t41 -110.5v-257q0 -25 20 -25h42v-31h-213v31h50
q20 0 20 25v232q0 53 -30.5 79.5t-75.5 26.5q-46 0 -81.5 -25.5t-35.5 -66.5v-246q0 -25 19 -25h50v-31z" />
    <glyph glyph-name="i" unicode="i" horiz-adv-x="268" 
d="M136 673q21 0 36 -15t15 -36t-15 -37t-36 -16t-37 16t-16 37q0 20 16 35.5t37 15.5zM175 360v-304q0 -25 19 -25h43v-31h-206v31h42q21 0 21 25v276q0 22 -20 27l-26 6q-17 3 -17 17q0 6 3 9q65 16 128 73q18 0 18 -6q0 -3 -1 -13.5t-2.5 -32.5t-1.5 -52z" />
    <glyph glyph-name="j" unicode="j" horiz-adv-x="249" 
d="M48 365q-17 5 -17 17q0 6 3 9q65 16 128 73q18 0 18 -6q0 -3 -1 -13.5t-2.5 -32.5t-1.5 -52v-321q0 -71 -31 -141t-82.5 -114.5t-106.5 -44.5q-29 0 -29 25q0 23 21.5 39.5t62.5 16.5q36 0 60 39.5t24 120.5v352q0 22 -20 27zM136 673q21 0 36 -15.5t15 -35.5
q0 -21 -15 -37t-36 -16t-37 16t-16 37q0 20 16 35.5t37 15.5z" />
    <glyph glyph-name="k" unicode="k" horiz-adv-x="525" 
d="M182 779q0 -2 -0.5 -12.5t-2 -31t-2.5 -51t-1.5 -82t-0.5 -114.5v-244q19 9 84 73.5t65 74.5q0 17 -20 17h-38v31h217v-31h-21q-30 0 -61 -24l-67.5 -58l-74.5 -63q50 -47 197 -219q9 -14 26 -14h22v-31h-197v31h28q15 0 15 14q0 10 -77.5 97t-97.5 89v-175q0 -25 19 -25
h29v-31h-192v31h42q21 0 21 25v599q0 25 -6.5 34.5t-21.5 14.5l-18 6q-17 5 -17 19q0 9 3 13q56 7 130 43q18 0 18 -6z" />
    <glyph glyph-name="l" unicode="l" horiz-adv-x="268" 
d="M182 779q0 -2 -0.5 -12.5t-2 -30.5t-2.5 -49t-1.5 -79t-0.5 -110v-442q0 -25 19 -25h43v-31h-206v31h42q21 0 21 25v599q0 25 -6.5 34.5t-21.5 14.5l-18 6q-17 5 -17 19q0 9 3 13q56 7 130 43q18 0 18 -6z" />
    <glyph glyph-name="m" unicode="m" horiz-adv-x="841" 
d="M458 358q25 51 69.5 77.5t93.5 26.5q58 0 97 -38.5t39 -110.5v-257q0 -25 20 -25h38v-31h-203v31h43q21 0 21 25v232q0 53 -28 79.5t-71 26.5q-45 0 -77.5 -25.5t-32.5 -66.5v-246q0 -25 20 -25h37v-31h-204v31h45q21 0 21 25v232q0 53 -27.5 79.5t-71.5 26.5
q-46 0 -79 -25.5t-33 -66.5v-246q0 -25 19 -25h50v-31h-213v31h42q21 0 21 25v276q0 22 -20 27l-26 6q-17 4 -17 17q0 6 3 9q34 8 67.5 28.5t55.5 44.5q18 0 18 -6v-87q25 44 66.5 67.5t88.5 23.5q45 0 79 -26.5t49 -77.5z" />
    <glyph glyph-name="n" unicode="n" horiz-adv-x="567" 
d="M175 371q25 43 69 67t92 24q61 0 102 -38.5t41 -110.5v-257q0 -25 20 -25h42v-31h-213v31h50q20 0 20 25v232q0 53 -30.5 79.5t-75.5 26.5q-46 0 -81.5 -25.5t-35.5 -66.5v-246q0 -25 19 -25h50v-31h-213v31h42q21 0 21 25v276q0 22 -20 27l-26 6q-17 4 -17 17q0 6 3 9
q34 8 67.5 28.5t55.5 44.5q18 0 18 -6v-87z" />
    <glyph glyph-name="o" unicode="o" horiz-adv-x="562" 
d="M281 462q98 0 168.5 -70.5t70.5 -169.5q0 -100 -70.5 -169.5t-168.5 -69.5t-168.5 69.5t-70.5 169.5q0 99 70.5 169.5t168.5 70.5zM281 415q-68 0 -105.5 -50t-37.5 -143q0 -94 37.5 -143t105.5 -49t105 49.5t37 142.5t-37.5 143t-104.5 50z" />
    <glyph glyph-name="p" unicode="p" horiz-adv-x="583" 
d="M169 11v-198q0 -25 19 -25h60v-31h-222v31h42q20 0 20 25v533q0 22 -19 27l-26 7q-17 4 -17 16q0 7 3 10q73 18 122 72q18 0 18 -6v-81q65 71 164 71q97 0 152 -63.5t55 -152.5q0 -102 -71.5 -179t-199.5 -77q-50 0 -100 21zM169 336v-187q0 -118 119 -118q79 0 122 52
t43 124q0 83 -45 135t-130 52q-40 0 -74.5 -17.5t-34.5 -40.5z" />
    <glyph glyph-name="q" unicode="q" horiz-adv-x="578" 
d="M413 54q-63 -64 -163 -64q-98 0 -153 63.5t-55 151.5q0 102 69.5 179.5t191.5 77.5q40 0 72.5 -10t51 -19.5t23.5 -9.5q19 0 32 62l26 -5q-14 -84 -14 -309v-358q0 -25 20 -25h42v-31h-224v31h60q21 0 21 25v241zM413 112v191q0 117 -119 117q-79 0 -122.5 -51.5
t-43.5 -124.5q0 -83 45.5 -135t131.5 -52q41 0 74.5 16t33.5 39z" />
    <glyph glyph-name="r" unicode="r" horiz-adv-x="362" 
d="M34 391q33 8 67 28.5t56 44.5q18 0 18 -6v-98q52 100 132 100q23 0 39 -17.5t16 -43.5q0 -58 -48 -58q-19 0 -33.5 19.5t-34.5 19.5q-27 0 -49 -30t-22 -72v-222q0 -25 19 -25h76v-31h-239v31h42q21 0 21 25v276q0 22 -20 27l-26 6q-17 4 -17 17q0 6 3 9z" />
    <glyph glyph-name="s" unicode="s" 
d="M203 462q45 0 77 -15t32 -32v-80q0 -12 -25 -12q-14 50 -35.5 72t-54.5 22q-34 0 -53 -19t-19 -45q0 -31 19.5 -47.5t70.5 -39.5q56 -26 83.5 -58.5t27.5 -83.5q0 -64 -43 -102.5t-110 -38.5q-57 0 -90.5 15.5t-33.5 33.5v80q0 15 25 15q14 -51 38 -75t64 -24
q37 0 59 19.5t22 50.5q0 34 -18.5 51t-72.5 41q-55 26 -81.5 57.5t-26.5 79.5q0 54 39.5 94.5t105.5 40.5z" />
    <glyph glyph-name="t" unicode="t" horiz-adv-x="320" 
d="M86 390h-65v21q38 8 75 53t53 105q18 0 18 -9v-120h131v-50h-131v-257q0 -87 67 -87q43 0 58 24q16 0 16 -13q0 -7 -4.5 -18t-15 -24.5t-32.5 -22.5t-52 -9q-55 0 -86.5 34t-31.5 101v272z" />
    <glyph glyph-name="u" unicode="u" horiz-adv-x="565" 
d="M395 -7l-6 78q-21 -41 -65 -64t-92 -23q-60 0 -102 38.5t-42 110.5v251q0 25 -19 25h-42v31h143v-282q0 -53 30.5 -79.5t75.5 -26.5q47 0 80 24t33 64v244q0 25 -20 25h-50v31h151v-355q0 -25 20 -25h50v-25z" />
    <glyph glyph-name="v" unicode="v" horiz-adv-x="492" 
d="M430 382l-171 -398h-28l-175 411q-6 14 -23 14h-33v31h216v-31h-51q-26 0 -12 -32l80 -190q18 -43 33 -98q16 56 32 102l66 183q6 17 -0.5 26t-20.5 9h-34v31h183v-31h-25q-25 0 -37 -27z" />
    <glyph glyph-name="w" unicode="w" horiz-adv-x="776" 
d="M389 307l-130 -323h-28l-175 411q-6 14 -23 14h-33v31h216v-31h-51q-27 0 -12 -32l81 -193q23 -60 33 -95q17 50 35 95l64 170l-17 41q-6 14 -18 14h-39v31h212v-31h-56q-19 0 -10 -24l79 -208q20 -51 32 -100q17 59 31 103l67 197q12 32 -18 32h-38v31h185v-31h-25
q-25 0 -37 -25l-171 -400h-28z" />
    <glyph glyph-name="x" unicode="x" horiz-adv-x="545" 
d="M309 236l162 -191q11 -14 29 -14h34v-31h-241v31h51q13 0 15.5 7.5t-9.5 23.5l-95 119l-108 -119q-12 -14 -7.5 -22.5t18.5 -8.5h39v-31h-186v31h25q18 0 43 25l152 154l-155 185q-12 14 -29 14h-33v31h237v-31h-51q-13 0 -16 -7.5t9 -24.5l92 -113l103 113q12 15 7 23.5
t-19 8.5h-38v31h185v-31h-25q-17 0 -42 -25z" />
    <glyph glyph-name="y" unicode="y" horiz-adv-x="490" 
d="M309 440h183v-31h-25q-25 0 -36 -25l-187 -434q-48 -110 -91 -160t-110 -50q-33 0 -54.5 18.5t-21.5 44.5q0 23 11.5 38t34.5 15q16 0 25 -8t12 -17t10.5 -17t19.5 -8q55 0 145 194l-169 395q-6 14 -23 14h-33v31h216v-31h-51q-26 0 -12 -32l80 -190q18 -43 33 -98
q16 56 32 102l66 183q6 17 -0.5 26t-20.5 9h-34v31z" />
    <glyph glyph-name="z" unicode="z" horiz-adv-x="464" 
d="M413 154q22 0 22 -12q0 -11 -8 -54t-8 -61q0 -27 -27 -27h-363v27l287 371q-64 0 -102 -2.5t-73 -11.5t-52 -27t-23 -47q-14 0 -21 3.5t-4 14.5l27 141h27q-4 -29 24 -29h305v-27l-286 -371q104 0 154.5 9.5t75.5 31.5t45 71z" />
    <glyph glyph-name="braceleft" unicode="{" horiz-adv-x="426" 
d="M26 275q-15 0 -15 22q0 24 15 24h24q25 0 42 7.5t26 17t13 31t4.5 35t0.5 44.5q0 19 -2.5 65t-2.5 69q0 236 269 236q13 0 13 -22q0 -24 -13 -24q-62 0 -103.5 -14t-61.5 -41.5t-27.5 -58t-7.5 -72.5q0 -25 4 -78t4 -77q0 -58 -19 -94t-69 -47q50 -11 68.5 -46.5
t18.5 -93.5q0 -24 -4 -76t-4 -78q0 -42 7.5 -72.5t27.5 -58t62 -41.5t104 -14q13 0 13 -21q0 -26 -13 -26q-64 0 -112 13t-77 34.5t-47.5 53t-25 63.5t-6.5 71q0 24 2.5 69.5t2.5 65.5q0 31 -0.5 45t-5 35t-13 30t-25.5 16.5t-43 7.5h-24z" />
    <glyph glyph-name="bar" unicode="|" horiz-adv-x="254" 
d="M160 748v-968h-66v968h66z" />
    <glyph glyph-name="braceright" unicode="}" horiz-adv-x="426" 
d="M398 322q15 0 15 -22q0 -24 -15 -24h-24q-25 0 -42 -7.5t-26 -17t-13 -31t-4.5 -35t-0.5 -44.5q0 -19 2.5 -65t2.5 -69q0 -236 -269 -236q-13 0 -13 22q0 24 13 24q62 0 104 14t62 41.5t27.5 58t7.5 72.5q0 25 -4.5 78t-4.5 77q0 58 19 94t70 46q-51 12 -69.5 47.5
t-18.5 93.5q0 24 4.5 76t4.5 78q0 42 -7.5 72.5t-28 58t-62 41.5t-104.5 14q-13 0 -13 21q0 10 4 18t9 8q64 0 112 -13t77 -34.5t47.5 -53t25 -63.5t6.5 -71q0 -24 -2.5 -69.5t-2.5 -65.5q0 -31 0.5 -45t5 -35t13 -30t25.5 -16.5t43 -7.5h24z" />
    <glyph glyph-name="asciitilde" unicode="~" horiz-adv-x="513" 
d="M96 158l-32 10q2 60 24.5 95t50.5 45t66 10q15 0 47 -2t49 -2q27 0 43 2.5t33 12t27.5 30.5t15.5 55l29 -8q-2 -87 -38.5 -117.5t-96.5 -30.5q-15 0 -47.5 2t-49.5 2q-53 0 -82 -20t-39 -84z" />
    <glyph glyph-name="nbspace" unicode="&#xa0;" horiz-adv-x="228" 
 />
    <glyph glyph-name="exclamdown" unicode="&#xa1;" horiz-adv-x="305" 
d="M153 361q-25 0 -42 17t-17 41q0 25 17 42t42 17q24 0 41 -17t17 -42q0 -24 -17 -41t-41 -17zM140 295h25l39 -472q2 -24 -12.5 -41t-38.5 -17t-38.5 17t-12.5 41z" />
    <glyph glyph-name="cent" unicode="&#xa2;" horiz-adv-x="449" 
d="M268 319q92 0 132 53q20 0 20 -17q0 -13 -8.5 -31.5t-25 -40t-48.5 -37t-72 -17.5l-3 -100h-37l3 101q-90 9 -138.5 71.5t-48.5 149.5q0 96 56.5 167t146.5 86l4 96h37l-2 -93q66 0 99 -24.5t33 -58.5q0 -18 -12 -30t-30 -12q-19 0 -40 27t-53 33zM232 323l11 322
q-58 -2 -94 -47t-36 -116q0 -58 30.5 -102t88.5 -57z" />
    <glyph glyph-name="sterling" unicode="&#xa3;" horiz-adv-x="560" 
d="M141 361h-97v37h88q-16 64 -16 107q0 83 62 142.5t160 59.5q152 0 152 -88q0 -44 -64 -44q-13 50 -34 70.5t-64 20.5q-53 0 -84.5 -33.5t-31.5 -90.5q0 -68 21 -144h163v-37h-155q18 -63 18 -131q0 -58 -27.5 -109t-57.5 -70q19 -1 57 -1q96 0 142.5 10t70 36t39.5 82
q23 0 23 -11q0 -19 -9.5 -71.5t-9.5 -80.5q0 -10 -6 -16.5t-13 -6.5q-66 0 -181.5 7.5t-179.5 7.5q-31 -17 -60 -17q-31 0 -31 28q0 37 47 37q17 0 35 -3q31 0 52 34.5t21 102.5q0 71 -30 172z" />
    <glyph glyph-name="currency" unicode="&#xa4;" horiz-adv-x="609" 
d="M479 223l78 -78l-52 -52l-78 78q-54 -40 -122 -40q-63 0 -122 37l-78 -76l-53 53l77 77q-39 55 -39 122t39 125l-77 77l53 51l77 -77q53 38 123 38t122 -38l77 77l53 -53l-77 -77q39 -53 39 -123q0 -67 -40 -121zM305 489q-60 0 -101 -42.5t-41 -102.5t41 -101.5
t101 -41.5q59 0 100 42t41 101q0 60 -41 102.5t-100 42.5z" />
    <glyph glyph-name="yen" unicode="&#xa5;" horiz-adv-x="687" 
d="M301 134h-128v40h128v80h-148v40h148v36l-227 311q-4 6 -14 11.5t-16 5.5h-40v32h254v-32h-67q-7 0 -9.5 -6t3.5 -14l185 -256q114 151 169 246q9 16 5 23t-18 7h-57v32h229v-32h-31q-16 0 -35 -17q-110 -125 -235 -291v-56h149v-40h-149v-80h129v-40h-129v-86
q0 -17 13 -17h65v-31h-252v31h65q13 0 13 17v86z" />
    <glyph glyph-name="brokenbar" unicode="&#xa6;" horiz-adv-x="254" 
d="M160 748v-335h-66v335h66zM160 155v-375h-66v375h66z" />
    <glyph glyph-name="section" unicode="&#xa7;" horiz-adv-x="582" 
d="M88 -164q0 16 9 27.5t27 11.5t28.5 -15.5t15 -34.5t18.5 -34.5t38 -15.5q43 0 68.5 26t25.5 75q0 40 -21.5 91.5t-45 89t-66.5 98.5q-63 92 -91 143q-42 81 -42 136q0 88 46 151.5t115.5 92.5t151.5 29q60 0 95 -27t35 -70q0 -16 -9.5 -28t-26.5 -12q-18 0 -28.5 15.5
t-14.5 34t-18 34t-39 15.5q-43 0 -69 -25t-26 -75q0 -40 22 -91.5t44.5 -88t66.5 -99.5q64 -90 92 -143q41 -79 41 -135q0 -129 -91.5 -201t-220.5 -72q-60 0 -95 27t-35 70zM460 -34q0 44 -21.5 97t-44.5 88.5t-66 95.5q-71 98 -92 136q-42 74 -42 131q0 88 45 139
q-116 -39 -116 -174q0 -64 34 -128.5t98 -152.5q68 -95 91 -136q42 -74 42 -131q0 -89 -45 -139q117 41 117 174z" />
    <glyph glyph-name="dieresis" unicode="&#xa8;" horiz-adv-x="471" 
d="M141 653q20 0 34 -15t14 -37t-14.5 -38t-33.5 -16t-33 16t-14 38t13.5 37t33.5 15zM330 653q20 0 34 -15t14 -37t-14 -38t-34 -16t-34 16t-14 38t14 37t34 15z" />
    <glyph glyph-name="copyright" unicode="&#xa9;" horiz-adv-x="874" 
d="M822 372q0 -159 -113 -271t-272 -112t-272 112t-113 271t113 272t272 113t272 -113t113 -272zM99 372q0 -143 100 -243t238 -100q139 0 239.5 100t100.5 243q0 144 -101 245t-239 101t-238 -101t-100 -245zM599 589q7 -7 7 -13q0 -14 3.5 -52.5t3.5 -47.5t-20 -9
q-22 126 -148 126q-78 0 -125 -60.5t-47 -160.5q0 -97 47 -154t122 -57q54 0 100.5 28.5t56.5 95.5q18 0 18 -9q0 -8 -2.5 -44.5t-2.5 -50.5q0 -4 -2 -7t-5.5 -5t-4.5 -3q-62 -40 -167 -40q-104 0 -168 66.5t-64 175.5q0 110 71 185t176 75q91 0 151 -39z" />
    <glyph glyph-name="ordfeminine" unicode="&#xaa;" horiz-adv-x="372" 
d="M223 491v61q-97 -39 -97 -102q0 -32 35 -32q24 0 43 19t19 54zM228 436q-12 -25 -37.5 -45t-55.5 -20q-31 0 -48.5 16.5t-17.5 43.5q0 83 154 143v45q0 32 -9 43t-29 11q-49 0 -61 -51q-1 -10 -11 -15.5t-20 -5.5q-20 0 -20 19q0 29 33 57.5t85 28.5q90 0 90 -67
q0 -27 -3 -89t-3 -96q0 -31 25 -31q24 0 37 19q10 0 10 -7q0 -17 -17.5 -39t-44.5 -22t-41.5 18t-15.5 44z" />
    <glyph glyph-name="guillemotleft" unicode="&#xab;" horiz-adv-x="553" 
d="M290 414l12 -22l-184 -162l184 -164l-12 -23l-256 169v34zM506 414l13 -22l-185 -162l185 -164l-13 -23l-256 169v34z" />
    <glyph glyph-name="logicalnot" unicode="&#xac;" horiz-adv-x="530" 
d="M57 213h412v-317h-47v268h-365v49z" />
    <glyph glyph-name="registered" unicode="&#xae;" horiz-adv-x="558" 
d="M506 545q0 -88 -66 -149.5t-160 -61.5q-95 0 -161.5 61.5t-66.5 149.5t67 150t161 62t160 -62t66 -150zM369 402q-19 0 -50 42t-56 88h-23v-104q0 -6 4 -6h28v-18h-106v18h24q6 0 6 6v230q0 7 -6 7h-24v19h98q108 0 108 -74q0 -55 -67 -68q14 -27 51.5 -70t64.5 -54
q49 48 49 127q0 78 -55 132t-135 54t-135 -54t-55 -132q0 -77 55 -130.5t135 -53.5q71 0 125 43q-1 0 -11.5 -1t-24.5 -1zM319 610q0 29 -16.5 42t-62.5 13v-111q79 0 79 56z" />
    <glyph glyph-name="macron" unicode="&#xaf;" horiz-adv-x="434" 
d="M94 620h246v-52h-246v52z" />
    <glyph glyph-name="degree" unicode="&#xb0;" horiz-adv-x="405" 
d="M372 521q0 -76 -49 -129.5t-121 -53.5q-71 0 -120 53.5t-49 129.5q0 75 49 128.5t120 53.5q72 0 121 -53.5t49 -128.5zM104 521q0 -68 25 -106.5t73 -38.5q49 0 74.5 38t25.5 107q0 144 -100 144q-47 0 -72.5 -38t-25.5 -106z" />
    <glyph glyph-name="plusminus" unicode="&#xb1;" horiz-adv-x="610" 
d="M332 341v-208h-56v208h-209v56h209v209h56v-209h208v-56h-208zM67 56h473v-56h-473v56z" />
    <glyph glyph-name="twosuperior" unicode="&#xb2;" 
d="M316 440h-290v28q127 77 177 144.5t50 136.5q0 40 -22 60.5t-60 20.5q-74 0 -94 -76q-7 0 -15.5 3t-8.5 7q0 15 8 36t23.5 43t43.5 37t63 15q63 0 99 -34.5t36 -93.5q0 -67 -57 -137.5t-147 -129.5h151q18 0 27 9t17 38q20 0 20 -7q0 -4 -5.5 -42t-5.5 -48t-10 -10z" />
    <glyph glyph-name="threesuperior" unicode="&#xb3;" 
d="M199 687q60 0 96 -30.5t36 -80.5q0 -70 -61 -108t-127 -38q-51 0 -79.5 17.5t-28.5 44.5q0 34 33 34q15 0 23.5 -9t12.5 -20.5t16.5 -20.5t34.5 -9q44 0 71 24t27 69q0 81 -87 81q-39 0 -59 -10q-6 0 -9.5 6.5t-3.5 12.5q0 5 4 7q74 39 106 69.5t32 59.5q0 25 -20 40.5
t-54 15.5q-29 0 -54 -15t-39 -36q-8 0 -15 4t-7 9q0 3 5 12.5t17 23t28 26t40.5 21t52.5 8.5q56 0 86.5 -24.5t30.5 -59.5t-25.5 -64t-82.5 -60z" />
    <glyph glyph-name="acute" unicode="&#xb4;" horiz-adv-x="386" 
d="M279 661l-164 -159l-21 9l115 176q13 20 52 20q31 0 31 -20q0 -11 -13 -26z" />
    <glyph glyph-name="mu" unicode="&#xb5;" horiz-adv-x="545" 
d="M352 438q35 25 80 25q12 0 12 -5q-1 -39 -12 -111.5t-28 -131.5q1 -78 23.5 -116.5t50.5 -38.5q31 0 62 16l8 -23q-24 -32 -57 -56t-64 -24q-29 0 -44.5 31.5t-15.5 112.5q-63 -144 -135 -144q-46 0 -84 61q-4 -166 10 -254q-47 -20 -85 -20q6 171 38 368
q-36 135 -22 322q33 13 76 13q2 -86 -10 -295q38 -106 100 -106q38 0 69.5 36.5t36.5 82.5q-9 173 -9 257z" />
    <glyph glyph-name="paragraph" unicode="&#xb6;" horiz-adv-x="554" 
d="M386 -76v258q-38 -6 -71 -6q-121 0 -188 71t-67 171q0 69 32 129.5t102 101.5t166 41h168v-32h-59q-12 0 -12 -16v-703q0 -87 -61 -143.5t-156 -56.5q-46 0 -69 18t-23 43q0 20 13.5 35.5t34.5 15.5q18 0 27.5 -9.5t10.5 -20.5t8.5 -20.5t22.5 -9.5q53 0 87 38t34 95z
" />
    <glyph glyph-name="periodcentered" unicode="&#xb7;" horiz-adv-x="255" 
d="M127 335q28 0 46.5 -18.5t18.5 -46.5q0 -27 -18.5 -46t-46.5 -19t-46.5 19t-18.5 46q0 28 18.5 46.5t46.5 18.5z" />
    <glyph glyph-name="cedilla" unicode="&#xb8;" horiz-adv-x="402" 
d="M189 -60q59 0 89.5 -24t30.5 -68q0 -51 -39.5 -76.5t-97.5 -25.5q-42 0 -60 12t-18 29q0 7 3 12q28 -11 63 -11q76 0 76 57q0 28 -16 45t-49 17q-18 0 -36 -8q-13 0 -13 14q0 5 4 9l104 78h47z" />
    <glyph glyph-name="onesuperior" unicode="&#xb9;" 
d="M161 776q0 19 -8 19t-19 -8q-57 -22 -71 -22q-2 0 -4.5 8t-2.5 12t3 7q75 21 156 102q24 0 24 -7q0 -2 -0.5 -26.5t-1.5 -69t-1 -93.5v-216q0 -12 9 -12h59v-30h-212v30h60q9 0 9 12v294z" />
    <glyph glyph-name="ordmasculine" unicode="&#xba;" horiz-adv-x="422" 
d="M212 705q69 0 116.5 -49t47.5 -119t-47.5 -118.5t-116.5 -48.5q-68 0 -116 48.5t-48 118.5t48 119t116 49zM212 675q-46 0 -71 -36t-25 -102t24.5 -100.5t71.5 -34.5q96 0 96 135q0 66 -24.5 102t-71.5 36z" />
    <glyph glyph-name="guillemotright" unicode="&#xbb;" horiz-adv-x="553" 
d="M263 43l-13 22l185 161l-185 165l13 23l256 -169v-34zM46 43l-12 22l184 161l-184 165l12 23l256 -169v-34z" />
    <glyph glyph-name="onequarter" unicode="&#xbc;" horiz-adv-x="864" 
d="M643 735q5 9 21 9q14 0 26.5 -5.5t8.5 -12.5l-474 -732q-6 -9 -22 -9q-14 0 -26 5.5t-8 12.5zM161 638q0 19 -8 19t-19 -8q-57 -22 -71 -22q-2 0 -4.5 8t-2.5 12t3 7q75 21 156 102q24 0 24 -7q0 -2 -0.5 -26.5t-1.5 -69t-1 -93.5v-216q0 -12 9 -12h59v-30h-212v30h60
q9 0 9 12v294zM719 128v-128h-64v128h-195l-4 30l208 290l55 -6v-263h64v-51h-64zM655 179v192l-137 -192h137z" />
    <glyph glyph-name="onehalf" unicode="&#xbd;" horiz-adv-x="864" 
d="M643 735q5 9 21 9q14 0 26.5 -5.5t8.5 -12.5l-474 -732q-6 -9 -22 -9q-14 0 -26 5.5t-8 12.5zM161 638q0 19 -8 19t-19 -8q-57 -22 -71 -22q-2 0 -4.5 8t-2.5 12t3 7q75 21 156 102q24 0 24 -7q0 -2 -0.5 -26.5t-1.5 -69t-1 -93.5v-216q0 -12 9 -12h59v-30h-212v30h60
q9 0 9 12v294zM789 0h-290v28q127 77 177 144.5t50 136.5q0 40 -22 60.5t-60 20.5q-74 0 -94 -76q-7 0 -15.5 3t-8.5 7q0 15 8 36t23.5 43t43.5 37t63 15q63 0 99 -34.5t36 -93.5q0 -67 -57 -137.5t-147 -129.5h151q18 0 27 9t17 38q20 0 20 -7q0 -4 -5.5 -42t-5.5 -48
t-10 -10z" />
    <glyph glyph-name="threequarters" unicode="&#xbe;" horiz-adv-x="864" 
d="M643 735q5 9 21 9q14 0 26.5 -5.5t8.5 -12.5l-474 -732q-6 -9 -22 -9q-14 0 -26 5.5t-8 12.5zM719 128v-128h-64v128h-195l-4 30l208 290l55 -6v-263h64v-51h-64zM655 179v192l-137 -192h137zM199 549q60 0 96 -30.5t36 -80.5q0 -70 -61 -108t-127 -38q-51 0 -79.5 17.5
t-28.5 44.5q0 34 33 34q15 0 23.5 -9t12.5 -20.5t16.5 -20.5t34.5 -9q44 0 71 24t27 69q0 81 -87 81q-39 0 -59 -10q-6 0 -9.5 6.5t-3.5 12.5q0 5 4 7q74 39 106 69.5t32 59.5q0 25 -20 40.5t-54 15.5q-29 0 -54 -15t-39 -36q-8 0 -15 4t-7 9q0 3 5 12.5t17 23t28 26
t40.5 21t52.5 8.5q56 0 86.5 -24.5t30.5 -59.5t-25.5 -64t-82.5 -60z" />
    <glyph glyph-name="questiondown" unicode="&#xbf;" horiz-adv-x="398" 
d="M227 361q-25 0 -42.5 17t-17.5 41q0 25 17.5 42t42.5 17q24 0 41 -17t17 -42q0 -24 -17 -41t-41 -17zM42 -40q0 53 14.5 88.5t36.5 53.5t44.5 30.5t40.5 30.5t23 43l15 89h23l20 -105q8 -42 -5 -70.5t-37.5 -45t-50 -32t-44 -42t-18.5 -64.5q0 -101 97 -101q28 0 56 22
t51 22q21 0 35 -14t14 -31q0 -30 -23 -49.5t-66 -19.5q-104 0 -165 56t-61 139z" />
    <glyph glyph-name="Agrave" unicode="&#xc0;" horiz-adv-x="636" 
d="M191 292h219l-108 290zM422 255h-244l-70 -182q-7 -22 -1.5 -32t20.5 -10h46v-31h-205v31h30q18 0 31 30q146 310 272 643h56q23 -72 119.5 -325.5t129.5 -329.5q10 -18 19 -18h36v-31h-238v31h56q9 0 13.5 6.5t-0.5 25.5zM190 847q-13 13 -13 21q0 17 31 17q39 0 52 -17
l115 -141l-22 -6z" />
    <glyph glyph-name="Aacute" unicode="&#xc1;" horiz-adv-x="636" 
d="M191 292h219l-108 290zM422 255h-244l-70 -182q-7 -22 -1.5 -32t20.5 -10h46v-31h-205v31h30q18 0 31 30q146 310 272 643h56q23 -72 119.5 -325.5t129.5 -329.5q10 -18 19 -18h36v-31h-238v31h56q9 0 13.5 6.5t-0.5 25.5zM447 850l-164 -126l-21 6l115 141q13 17 52 17
q31 0 31 -17q0 -8 -13 -21z" />
    <glyph glyph-name="Acircumflex" unicode="&#xc2;" horiz-adv-x="636" 
d="M191 292h219l-108 290zM422 255h-244l-70 -182q-7 -22 -1.5 -32t20.5 -10h46v-31h-205v31h30q18 0 31 30q146 310 272 643h56q23 -72 119.5 -325.5t129.5 -329.5q10 -18 19 -18h36v-31h-238v31h56q9 0 13.5 6.5t-0.5 25.5zM326 807l-112 -88l-16 9l109 140q6 10 19 10
t19 -10l109 -140l-16 -9z" />
    <glyph glyph-name="Atilde" unicode="&#xc3;" horiz-adv-x="636" 
d="M191 292h219l-108 290zM422 255h-244l-70 -182q-7 -22 -1.5 -32t20.5 -10h46v-31h-205v31h30q18 0 31 30q146 310 272 643h56q23 -72 119.5 -325.5t129.5 -329.5q10 -18 19 -18h36v-31h-238v31h56q9 0 13.5 6.5t-0.5 25.5zM207 744l-14 14q39 89 92 89q24 0 61 -23
t57 -23q31 0 57 50l13 -14q-39 -88 -89 -88q-22 0 -58 22.5t-59 22.5q-32 0 -60 -50z" />
    <glyph glyph-name="Adieresis" unicode="&#xc4;" horiz-adv-x="636" 
d="M191 292h219l-108 290zM422 255h-244l-70 -182q-7 -22 -1.5 -32t20.5 -10h46v-31h-205v31h30q18 0 31 30q146 310 272 643h56q23 -72 119.5 -325.5t129.5 -329.5q10 -18 19 -18h36v-31h-238v31h56q9 0 13.5 6.5t-0.5 25.5zM230 831q18 0 31 -13t13 -32q0 -17 -13 -29.5
t-31 -12.5t-30.5 12.5t-12.5 29.5q0 19 12.5 32t30.5 13zM397 831q19 0 31.5 -13t12.5 -32q0 -17 -12.5 -29.5t-31.5 -12.5q-17 0 -30.5 12.5t-13.5 29.5q0 18 13.5 31.5t30.5 13.5z" />
    <glyph glyph-name="Aring" unicode="&#xc5;" horiz-adv-x="636" 
d="M191 292h219l-108 290zM422 255h-244l-70 -182q-7 -22 -1.5 -32t20.5 -10h46v-31h-205v31h30q18 0 31 30q146 310 272 643h56q23 -72 119.5 -325.5t129.5 -329.5q10 -18 19 -18h36v-31h-238v31h56q9 0 13.5 6.5t-0.5 25.5zM327 909q43 0 73.5 -28.5t30.5 -68.5t-30.5 -68
t-73.5 -28q-44 0 -74 28t-30 68t30.5 68.5t73.5 28.5zM327 867q-26 0 -44.5 -16.5t-18.5 -41.5q0 -24 18.5 -41t44.5 -17t44 17t18 41q0 25 -18 41.5t-44 16.5z" />
    <glyph glyph-name="AE" unicode="&#xc6;" horiz-adv-x="987" 
d="M511 575l-218 -288h218v288zM511 649q-3 9 -13 9h-59v32q63 0 243 1.5t185 1.5q23 0 23 -22q0 -15 3 -52t3 -53q0 -11 -23 -11q-9 27 -18 41.5t-23.5 26t-45.5 16t-69.5 7t-109.5 3.5v-273q166 3 191 12q21 7 25 29q1 3 1 5l3 30q31 0 31 -8q0 -15 -1 -41.5t-1 -42.5
t1 -46t1 -45q0 -11 -31 -11l-4 31q-2 12 -4.5 19t-11.5 13t-20.5 9t-38.5 5t-57.5 2.5t-83.5 1.5v-294q98 2 143.5 4.5t82.5 14.5t51 30t30 55q26 0 26 -12q0 -10 -9.5 -55.5t-9.5 -59.5q0 -10 -6 -17t-14 -7q-3 0 -200.5 1t-261.5 1v31h59q13 0 13 17v202h-246l-133 -177
q-11 -14 -13.5 -23.5t2 -14t14.5 -4.5h46v-31h-213v31h30q16 0 43 30q256 304 470 588z" />
    <glyph glyph-name="Ccedilla" unicode="&#xc7;" horiz-adv-x="748" 
d="M414 -60q59 0 89.5 -24t30.5 -68q0 -51 -39.5 -76.5t-97.5 -25.5q-42 0 -60 12t-18 29q0 7 3 12q28 -11 63 -11q76 0 76 57q0 28 -16 45t-49 17q-18 0 -36 -8q-13 0 -13 14q0 5 4 9l82 62h-5q-155 0 -263.5 100.5t-108.5 251.5t118 261t277 110q140 0 223 -53
q12 -8 12 -19q0 -19 5 -72.5t5 -65.5t-25 -12q-17 84 -73.5 130.5t-150.5 46.5q-119 0 -200 -92t-81 -229q0 -134 81.5 -223.5t194.5 -89.5q35 0 70 8.5t70.5 27.5t61 55t33.5 85q27 0 27 -13q0 -11 -4.5 -61.5t-4.5 -69.5q0 -6 -2.5 -9.5t-8.5 -7t-8 -5.5q-71 -43 -195 -52
z" />
    <glyph glyph-name="Egrave" unicode="&#xc8;" horiz-adv-x="604" 
d="M225 649v-273q165 3 191 12q21 7 24 29q1 3 1 5l3 30q31 0 31 -8q0 -15 -1 -41.5t-1 -42.5t1 -46t1 -45q0 -11 -31 -11l-4 31q-1 12 -3.5 19t-12 13t-21 9t-38 5t-57 2.5t-83.5 1.5v-294q66 1 103 2.5t72.5 6t52.5 10t33.5 18t25 27.5t19.5 40q26 0 26 -12
q0 -10 -9 -55.5t-9 -59.5q0 -10 -6.5 -17t-14.5 -7q-4 0 -201 1t-261 1v31h59q13 0 13 17v594q0 16 -13 16h-59v32q63 0 243.5 1.5t185.5 1.5q23 0 23 -22q0 -15 3 -52t3 -53q0 -11 -24 -11q-7 23 -13 36t-19.5 24.5t-28.5 16.5t-46 9.5t-65 5.5t-93 2zM201 842
q-13 13 -13 21q0 17 31 17q39 0 52 -17l115 -141l-22 -6z" />
    <glyph glyph-name="Eacute" unicode="&#xc9;" horiz-adv-x="604" 
d="M225 649v-273q165 3 191 12q21 7 24 29q1 3 1 5l3 30q31 0 31 -8q0 -15 -1 -41.5t-1 -42.5t1 -46t1 -45q0 -11 -31 -11l-4 31q-1 12 -3.5 19t-12 13t-21 9t-38 5t-57 2.5t-83.5 1.5v-294q66 1 103 2.5t72.5 6t52.5 10t33.5 18t25 27.5t19.5 40q26 0 26 -12
q0 -10 -9 -55.5t-9 -59.5q0 -10 -6.5 -17t-14.5 -7q-4 0 -201 1t-261 1v31h59q13 0 13 17v594q0 16 -13 16h-59v32q63 0 243.5 1.5t185.5 1.5q23 0 23 -22q0 -15 3 -52t3 -53q0 -11 -24 -11q-7 23 -13 36t-19.5 24.5t-28.5 16.5t-46 9.5t-65 5.5t-93 2zM426 842l-164 -126
l-21 6l115 141q13 17 52 17q31 0 31 -17q0 -8 -13 -21z" />
    <glyph glyph-name="Ecircumflex" unicode="&#xca;" horiz-adv-x="604" 
d="M225 649v-273q165 3 191 12q21 7 24 29q1 3 1 5l3 30q31 0 31 -8q0 -15 -1 -41.5t-1 -42.5t1 -46t1 -45q0 -11 -31 -11l-4 31q-1 12 -3.5 19t-12 13t-21 9t-38 5t-57 2.5t-83.5 1.5v-294q66 1 103 2.5t72.5 6t52.5 10t33.5 18t25 27.5t19.5 40q26 0 26 -12
q0 -10 -9 -55.5t-9 -59.5q0 -10 -6.5 -17t-14.5 -7q-4 0 -201 1t-261 1v31h59q13 0 13 17v594q0 16 -13 16h-59v32q63 0 243.5 1.5t185.5 1.5q23 0 23 -22q0 -15 3 -52t3 -53q0 -11 -24 -11q-7 23 -13 36t-19.5 24.5t-28.5 16.5t-46 9.5t-65 5.5t-93 2zM310 807l-112 -88
l-16 9l109 140q6 10 19 10t19 -10l109 -140l-16 -9z" />
    <glyph glyph-name="Edieresis" unicode="&#xcb;" horiz-adv-x="604" 
d="M225 649v-273q165 3 191 12q21 7 24 29q1 3 1 5l3 30q31 0 31 -8q0 -15 -1 -41.5t-1 -42.5t1 -46t1 -45q0 -11 -31 -11l-4 31q-1 12 -3.5 19t-12 13t-21 9t-38 5t-57 2.5t-83.5 1.5v-294q66 1 103 2.5t72.5 6t52.5 10t33.5 18t25 27.5t19.5 40q26 0 26 -12
q0 -10 -9 -55.5t-9 -59.5q0 -10 -6.5 -17t-14.5 -7q-4 0 -201 1t-261 1v31h59q13 0 13 17v594q0 16 -13 16h-59v32q63 0 243.5 1.5t185.5 1.5q23 0 23 -22q0 -15 3 -52t3 -53q0 -11 -24 -11q-7 23 -13 36t-19.5 24.5t-28.5 16.5t-46 9.5t-65 5.5t-93 2zM223 831q18 0 31 -13
t13 -32q0 -17 -13 -29.5t-31 -12.5t-30.5 12.5t-12.5 29.5q0 19 12.5 32t30.5 13zM390 831q19 0 31.5 -13t12.5 -32q0 -17 -12.5 -29.5t-31.5 -12.5q-17 0 -30.5 12.5t-13.5 29.5q0 18 13 31.5t31 13.5z" />
    <glyph glyph-name="Igrave" unicode="&#xcc;" horiz-adv-x="357" 
d="M301 0h-245v31h62q12 0 12 17v594q0 16 -12 16h-62v32h245v-32h-62q-12 0 -12 -16v-594q0 -17 12 -17h62v-31zM57 842q-13 13 -13 21q0 17 31 17q39 0 52 -17l115 -141l-22 -6z" />
    <glyph glyph-name="Iacute" unicode="&#xcd;" horiz-adv-x="357" 
d="M301 0h-245v31h62q12 0 12 17v594q0 16 -12 16h-62v32h245v-32h-62q-12 0 -12 -16v-594q0 -17 12 -17h62v-31zM300 842l-164 -126l-21 6l115 141q13 17 52 17q31 0 31 -17q0 -8 -13 -21z" />
    <glyph glyph-name="Icircumflex" unicode="&#xce;" horiz-adv-x="357" 
d="M301 0h-245v31h62q12 0 12 17v594q0 16 -12 16h-62v32h245v-32h-62q-12 0 -12 -16v-594q0 -17 12 -17h62v-31zM178 807l-112 -88l-16 9l109 140q6 10 19 10t19 -10l109 -140l-16 -9z" />
    <glyph glyph-name="Idieresis" unicode="&#xcf;" horiz-adv-x="357" 
d="M301 0h-245v31h62q12 0 12 17v594q0 16 -12 16h-62v32h245v-32h-62q-12 0 -12 -16v-594q0 -17 12 -17h62v-31zM94 831q18 0 31 -13t13 -32q0 -17 -13 -29.5t-31 -12.5t-30.5 12.5t-12.5 29.5q0 19 12.5 32t30.5 13zM261 831q19 0 31.5 -13t12.5 -32q0 -17 -12.5 -29.5
t-31.5 -12.5q-17 0 -30.5 12.5t-13.5 29.5q0 18 13.5 31.5t30.5 13.5z" />
    <glyph glyph-name="Eth" unicode="&#xd0;" horiz-adv-x="778" 
d="M228 375h182v-48h-182v-292q188 0 286 77.5t98 233.5q0 143 -97 224t-287 82v-277zM131 327h-97v48h97v267q0 16 -12 16h-62v32h252q190 0 302 -96.5t112 -247.5q0 -161 -114 -253.5t-300 -92.5h-252v31h62q12 0 12 17v279z" />
    <glyph glyph-name="Ntilde" unicode="&#xd1;" horiz-adv-x="803" 
d="M633 150q0 270 -5 458q-1 32 -9 41t-36 9h-34v32h211v-32h-35q-22 0 -27.5 -8.5t-6.5 -40.5q-6 -248 -6 -620h-50l-452 624q0 -352 4 -532q1 -32 9.5 -41t36.5 -9h34v-31h-211v31h31q23 0 30.5 9.5t8.5 39.5q4 189 4 562q0 16 -11 16h-63v32h192zM295 744l-14 14
q39 89 92 89q24 0 61 -23t57 -23q31 0 57 50l13 -14q-39 -88 -89 -88q-22 0 -58 22.5t-59 22.5q-32 0 -60 -50z" />
    <glyph glyph-name="Ograve" unicode="&#xd2;" horiz-adv-x="863" 
d="M807 341q0 -147 -110 -252t-265 -105t-265.5 105t-110.5 252q0 149 111 257.5t265 108.5q155 0 265 -108.5t110 -257.5zM166 341q0 -134 76 -222.5t190 -88.5t189.5 88.5t75.5 222.5q0 135 -76 226t-189 91q-114 0 -190 -91t-76 -226zM335 848q-13 13 -13 21q0 17 31 17
q39 0 52 -17l115 -141l-22 -6z" />
    <glyph glyph-name="Oacute" unicode="&#xd3;" horiz-adv-x="863" 
d="M807 341q0 -147 -110 -252t-265 -105t-265.5 105t-110.5 252q0 149 111 257.5t265 108.5q155 0 265 -108.5t110 -257.5zM166 341q0 -134 76 -222.5t190 -88.5t189.5 88.5t75.5 222.5q0 135 -76 226t-189 91q-114 0 -190 -91t-76 -226zM539 852l-164 -126l-21 6l115 141
q13 17 52 17q31 0 31 -17q0 -8 -13 -21z" />
    <glyph glyph-name="Ocircumflex" unicode="&#xd4;" horiz-adv-x="863" 
d="M807 341q0 -147 -110 -252t-265 -105t-265.5 105t-110.5 252q0 149 111 257.5t265 108.5q155 0 265 -108.5t110 -257.5zM166 341q0 -134 76 -222.5t190 -88.5t189.5 88.5t75.5 222.5q0 135 -76 226t-189 91q-114 0 -190 -91t-76 -226zM431 807l-112 -88l-16 9l109 140
q6 10 19 10t19 -10l109 -140l-16 -9z" />
    <glyph glyph-name="Otilde" unicode="&#xd5;" horiz-adv-x="863" 
d="M807 341q0 -147 -110 -252t-265 -105t-265.5 105t-110.5 252q0 149 111 257.5t265 108.5q155 0 265 -108.5t110 -257.5zM166 341q0 -134 76 -222.5t190 -88.5t189.5 88.5t75.5 222.5q0 135 -76 226t-189 91q-114 0 -190 -91t-76 -226zM305 744l-14 14q39 89 92 89
q24 0 61 -23t57 -23q31 0 57 50l13 -14q-39 -88 -89 -88q-22 0 -58 22.5t-59 22.5q-32 0 -60 -50z" />
    <glyph glyph-name="Odieresis" unicode="&#xd6;" horiz-adv-x="863" 
d="M807 341q0 -147 -110 -252t-265 -105t-265.5 105t-110.5 252q0 149 111 257.5t265 108.5q155 0 265 -108.5t110 -257.5zM166 341q0 -134 76 -222.5t190 -88.5t189.5 88.5t75.5 222.5q0 135 -76 226t-189 91q-114 0 -190 -91t-76 -226zM347 831q18 0 31 -13t13 -32
q0 -17 -13 -29.5t-31 -12.5t-30.5 12.5t-12.5 29.5q0 19 12.5 32t30.5 13zM514 831q19 0 31.5 -13t12.5 -32q0 -17 -12.5 -29.5t-31.5 -12.5q-17 0 -30.5 12.5t-13.5 29.5q0 18 13 31.5t31 13.5z" />
    <glyph glyph-name="multiply" unicode="&#xd7;" horiz-adv-x="599" 
d="M341 251l167 -167l-41 -41l-166 167l-168 -168l-41 40l169 168l-169 167l41 41l168 -168l167 168l40 -41z" />
    <glyph glyph-name="Oslash" unicode="&#xd8;" horiz-adv-x="862" 
d="M649 638l46 52h50l-66 -75q59 -52 93.5 -123t34.5 -151q0 -147 -110 -252t-265 -105q-131 0 -232 77l-54 -61h-49l74 85q-115 105 -115 256q0 149 111 257.5t265 108.5q120 0 217 -69zM629 558l-385 -445q77 -83 188 -83q114 0 189.5 88.5t75.5 222.5q0 132 -68 217z
M222 142l382 445q-74 71 -172 71q-114 0 -190 -91t-76 -226q0 -117 56 -199z" />
    <glyph glyph-name="Ugrave" unicode="&#xd9;" horiz-adv-x="773" 
d="M597 609q0 28 -10 38.5t-37 10.5h-42v32h227v-32h-30q-26 0 -35.5 -10.5t-9.5 -34.5v-371q0 -123 -80.5 -193t-191.5 -70q-116 0 -195.5 68t-79.5 195v400q0 16 -13 16h-62v32h262v-32h-80q-11 0 -11 -16v-389q0 -104 55 -159.5t143 -55.5q83 0 136.5 52t53.5 152v367z
M278 842q-13 13 -13 21q0 17 31 17q39 0 52 -17l115 -141l-22 -6z" />
    <glyph glyph-name="Uacute" unicode="&#xda;" horiz-adv-x="773" 
d="M597 609q0 28 -10 38.5t-37 10.5h-42v32h227v-32h-30q-26 0 -35.5 -10.5t-9.5 -34.5v-371q0 -123 -80.5 -193t-191.5 -70q-116 0 -195.5 68t-79.5 195v400q0 16 -13 16h-62v32h262v-32h-80q-11 0 -11 -16v-389q0 -104 55 -159.5t143 -55.5q83 0 136.5 52t53.5 152v367z
M524 842l-164 -126l-21 6l115 141q13 17 52 17q31 0 31 -17q0 -8 -13 -21z" />
    <glyph glyph-name="Ucircumflex" unicode="&#xdb;" horiz-adv-x="773" 
d="M597 609q0 28 -10 38.5t-37 10.5h-42v32h227v-32h-30q-26 0 -35.5 -10.5t-9.5 -34.5v-371q0 -123 -80.5 -193t-191.5 -70q-116 0 -195.5 68t-79.5 195v400q0 16 -13 16h-62v32h262v-32h-80q-11 0 -11 -16v-389q0 -104 55 -159.5t143 -55.5q83 0 136.5 52t53.5 152v367z
M386 807l-112 -88l-16 9l109 140q6 10 19 10t19 -10l109 -140l-16 -9z" />
    <glyph glyph-name="Udieresis" unicode="&#xdc;" horiz-adv-x="773" 
d="M597 609q0 28 -10 38.5t-37 10.5h-42v32h227v-32h-30q-26 0 -35.5 -10.5t-9.5 -34.5v-371q0 -123 -80.5 -193t-191.5 -70q-116 0 -195.5 68t-79.5 195v400q0 16 -13 16h-62v32h262v-32h-80q-11 0 -11 -16v-389q0 -104 55 -159.5t143 -55.5q83 0 136.5 52t53.5 152v367z
M302 831q18 0 31 -13t13 -32q0 -17 -13 -29.5t-31 -12.5t-30.5 12.5t-12.5 29.5q0 19 12.5 32t30.5 13zM469 831q19 0 31.5 -13t12.5 -32q0 -17 -12.5 -29.5t-31.5 -12.5q-17 0 -30.5 12.5t-13.5 29.5q0 18 13.5 31.5t30.5 13.5z" />
    <glyph glyph-name="Yacute" unicode="&#xdd;" horiz-adv-x="687" 
d="M301 330l-227 311q-4 6 -14 11.5t-16 5.5h-40v32h254v-32h-67q-7 0 -9.5 -6t3.5 -14l185 -256q114 151 169 246q9 16 5 23t-18 7h-57v32h229v-32h-31q-16 0 -35 -17q-110 -125 -235 -291v-302q0 -17 13 -17h65v-31h-252v31h65q13 0 13 17v282zM497 842l-164 -126l-21 6
l115 141q13 17 52 17q31 0 31 -17q0 -8 -13 -21z" />
    <glyph glyph-name="Thorn" unicode="&#xde;" horiz-adv-x="560" 
d="M224 192q209 0 209 160q0 80 -47.5 123t-161.5 43v-326zM224 558h59q124 0 190.5 -58.5t66.5 -147.5q0 -24 -7 -49t-25.5 -51.5t-46.5 -46.5t-73 -33t-101 -13q-38 0 -63 4v-115q0 -17 11 -17h88v-31h-268v31h59q13 0 13 17v594q0 16 -13 16h-61v32h244v-32h-61
q-12 0 -12 -16v-84z" />
    <glyph glyph-name="germandbls" unicode="&#xdf;" horiz-adv-x="593" 
d="M309 713q-57 0 -92.5 -41.5t-35.5 -117.5v-554h-144v31h42q21 0 21 25v334h-71v21l71 28v73q0 106 66.5 177t162.5 71q74 0 105.5 -28.5t31.5 -72.5q0 -30 -16 -59.5t-36 -48.5t-36 -45.5t-16 -51.5q0 -37 19.5 -66.5t47 -51l55.5 -44.5t47.5 -58.5t19.5 -81.5
q0 -56 -28 -95.5t-65 -56t-76 -16.5q-59 0 -96 14t-37 34v73q0 19 22 19q11 -46 41.5 -72.5t69.5 -26.5q35 0 61 27.5t26 75.5q0 38 -17.5 66.5t-42.5 48l-49.5 40.5t-42 55t-17.5 80q0 38 14 69.5t30 50t30 48t14 63.5q0 64 -79 64z" />
    <glyph glyph-name="agrave" unicode="&#xe0;" horiz-adv-x="449" 
d="M266 154v87q-138 -54 -138 -145q0 -45 51 -45q33 0 60 27t27 76zM274 76q-16 -35 -53 -64t-80 -29q-44 0 -69 23.5t-25 62.5q0 53 52 106t167 99v70q0 36 -12.5 52t-41.5 16q-31 0 -55.5 -18t-30.5 -53q-2 -13 -16 -21.5t-30 -8.5q-28 0 -28 26q0 43 47.5 84t122.5 41
q64 0 95.5 -26t31.5 -71q0 -38 -3 -126t-3 -137q0 -44 36 -44q34 0 52 26q14 0 14 -10q0 -24 -25.5 -55t-64.5 -31q-38 0 -58.5 25.5t-22.5 62.5zM107 661q-13 15 -13 26q0 20 31 20q39 0 52 -20l115 -176l-21 -9z" />
    <glyph glyph-name="aacute" unicode="&#xe1;" horiz-adv-x="449" 
d="M266 154v87q-138 -54 -138 -145q0 -45 51 -45q33 0 60 27t27 76zM274 76q-16 -35 -53 -64t-80 -29q-44 0 -69 23.5t-25 62.5q0 53 52 106t167 99v70q0 36 -12.5 52t-41.5 16q-31 0 -55.5 -18t-30.5 -53q-2 -13 -16 -21.5t-30 -8.5q-28 0 -28 26q0 43 47.5 84t122.5 41
q64 0 95.5 -26t31.5 -71q0 -38 -3 -126t-3 -137q0 -44 36 -44q34 0 52 26q14 0 14 -10q0 -24 -25.5 -55t-64.5 -31q-38 0 -58.5 25.5t-22.5 62.5zM328 661l-164 -159l-21 9l115 176q13 20 52 20q31 0 31 -20q0 -11 -13 -26z" />
    <glyph glyph-name="acircumflex" unicode="&#xe2;" horiz-adv-x="449" 
d="M266 154v87q-138 -54 -138 -145q0 -45 51 -45q33 0 60 27t27 76zM274 76q-16 -35 -53 -64t-80 -29q-44 0 -69 23.5t-25 62.5q0 53 52 106t167 99v70q0 36 -12.5 52t-41.5 16q-31 0 -55.5 -18t-30.5 -53q-2 -13 -16 -21.5t-30 -8.5q-28 0 -28 26q0 43 47.5 84t122.5 41
q64 0 95.5 -26t31.5 -71q0 -38 -3 -126t-3 -137q0 -44 36 -44q34 0 52 26q14 0 14 -10q0 -24 -25.5 -55t-64.5 -31q-38 0 -58.5 25.5t-22.5 62.5zM213 619l-112 -110l-17 9l110 178q6 11 19 11t19 -11l111 -178l-18 -9z" />
    <glyph glyph-name="atilde" unicode="&#xe3;" horiz-adv-x="449" 
d="M266 154v87q-138 -54 -138 -145q0 -45 51 -45q33 0 60 27t27 76zM274 76q-16 -35 -53 -64t-80 -29q-44 0 -69 23.5t-25 62.5q0 53 52 106t167 99v70q0 36 -12.5 52t-41.5 16q-31 0 -55.5 -18t-30.5 -53q-2 -13 -16 -21.5t-30 -8.5q-28 0 -28 26q0 43 47.5 84t122.5 41
q64 0 95.5 -26t31.5 -71q0 -38 -3 -126t-3 -137q0 -44 36 -44q34 0 52 26q14 0 14 -10q0 -24 -25.5 -55t-64.5 -31q-38 0 -58.5 25.5t-22.5 62.5zM78 538l-15 15q42 98 103 98q25 0 66 -25t64 -25q31 0 63 55l15 -14q-45 -98 -100 -98q-24 0 -63.5 24.5t-65.5 24.5
q-35 0 -67 -55z" />
    <glyph glyph-name="adieresis" unicode="&#xe4;" horiz-adv-x="449" 
d="M266 154v87q-138 -54 -138 -145q0 -45 51 -45q33 0 60 27t27 76zM274 76q-16 -35 -53 -64t-80 -29q-44 0 -69 23.5t-25 62.5q0 53 52 106t167 99v70q0 36 -12.5 52t-41.5 16q-31 0 -55.5 -18t-30.5 -53q-2 -13 -16 -21.5t-30 -8.5q-28 0 -28 26q0 43 47.5 84t122.5 41
q64 0 95.5 -26t31.5 -71q0 -38 -3 -126t-3 -137q0 -44 36 -44q34 0 52 26q14 0 14 -10q0 -24 -25.5 -55t-64.5 -31q-38 0 -58.5 25.5t-22.5 62.5zM115 653q20 0 34 -15t14 -37t-14.5 -38t-33.5 -16t-33 16t-14 38t13.5 37t33.5 15zM304 653q20 0 34 -15t14 -37t-14 -38
t-34 -16t-34 16t-14 38t14 37t34 15z" />
    <glyph glyph-name="aring" unicode="&#xe5;" horiz-adv-x="449" 
d="M266 154v87q-138 -54 -138 -145q0 -45 51 -45q33 0 60 27t27 76zM274 76q-16 -35 -53 -64t-80 -29q-44 0 -69 23.5t-25 62.5q0 53 52 106t167 99v70q0 36 -12.5 52t-41.5 16q-31 0 -55.5 -18t-30.5 -53q-2 -13 -16 -21.5t-30 -8.5q-28 0 -28 26q0 43 47.5 84t122.5 41
q64 0 95.5 -26t31.5 -71q0 -38 -3 -126t-3 -137q0 -44 36 -44q34 0 52 26q14 0 14 -10q0 -24 -25.5 -55t-64.5 -31q-38 0 -58.5 25.5t-22.5 62.5zM209 725q43 0 73.5 -30t30.5 -73t-30.5 -73t-73.5 -30t-73.5 30t-30.5 73t30.5 73t73.5 30zM209 681q-26 0 -44.5 -18
t-18.5 -44t18.5 -44.5t44.5 -18.5t44 18.5t18 44.5t-18 44t-44 18z" />
    <glyph glyph-name="ae" unicode="&#xe6;" horiz-adv-x="693" 
d="M266 154v87q-138 -54 -138 -145q0 -45 51 -45q33 0 60 27t27 76zM291 106q-16 -56 -59.5 -89.5t-90.5 -33.5q-44 0 -69 23.5t-25 62.5q0 53 52 106t167 99v63q0 45 -13 61t-40 16q-71 0 -87 -73q-3 -13 -17 -21.5t-29 -8.5q-28 0 -28 28q0 42 47.5 82.5t122.5 40.5
q104 0 123 -66q71 66 163 66q68 0 108 -41t40 -100q0 -29 -28 -29h-287q-6 -27 -6 -56q0 -81 46 -123.5t117 -42.5q88 0 132 53q20 0 20 -17q0 -12 -10 -31.5t-28.5 -40.5t-53 -36t-76.5 -15q-141 0 -191 123zM352 328q77 2 118.5 4.5t64 8t28 11t5.5 17.5q0 21 -19.5 34
t-55.5 13q-45 0 -84.5 -25t-56.5 -63z" />
    <glyph glyph-name="ccedilla" unicode="&#xe7;" horiz-adv-x="449" 
d="M226 -60q59 0 89.5 -24t30.5 -68q0 -51 -39.5 -76.5t-97.5 -25.5q-42 0 -60 12t-18 29q0 7 3 12q28 -11 63 -11q76 0 76 57q0 28 -16 45t-49 17q-18 0 -36 -8q-13 0 -13 14q0 5 4 9l81 61q-98 4 -150 67.5t-52 155.5q0 107 69.5 181.5t173.5 74.5q66 0 98.5 -24.5
t32.5 -58.5q0 -18 -12 -30t-30 -12q-15 0 -25.5 9.5t-18 21.5t-28 21.5t-52.5 9.5q-61 0 -99 -45t-38 -118q0 -68 41.5 -115t119.5 -47q86 0 126 53q20 0 20 -18q0 -30 -32.5 -71.5t-94.5 -51.5z" />
    <glyph glyph-name="egrave" unicode="&#xe8;" horiz-adv-x="471" 
d="M116 292q-6 -27 -6 -58q0 -81 49.5 -122.5t118.5 -41.5q89 0 130 53q8 0 14 -5t6 -12q0 -13 -8 -27q-23 -44 -71.5 -70t-104.5 -26q-83 0 -142.5 58t-59.5 172q0 102 66.5 175.5t165.5 73.5q77 0 119 -40.5t42 -100.5q0 -29 -29 -29h-290zM127 328q80 2 122.5 4.5t65 8
t27 11t4.5 17.5q0 21 -19.5 34t-58.5 13q-47 0 -85 -25t-56 -63zM154 661q-13 15 -13 26q0 20 31 20q39 0 52 -20l115 -176l-21 -9z" />
    <glyph glyph-name="eacute" unicode="&#xe9;" horiz-adv-x="471" 
d="M116 292q-6 -27 -6 -58q0 -81 49.5 -122.5t118.5 -41.5q89 0 130 53q8 0 14 -5t6 -12q0 -13 -8 -27q-23 -44 -71.5 -70t-104.5 -26q-83 0 -142.5 58t-59.5 172q0 102 66.5 175.5t165.5 73.5q77 0 119 -40.5t42 -100.5q0 -29 -29 -29h-290zM127 328q80 2 122.5 4.5t65 8
t27 11t4.5 17.5q0 21 -19.5 34t-58.5 13q-47 0 -85 -25t-56 -63zM362 661l-164 -159l-21 9l115 176q13 20 52 20q31 0 31 -20q0 -11 -13 -26z" />
    <glyph glyph-name="ecircumflex" unicode="&#xea;" horiz-adv-x="471" 
d="M116 292q-6 -27 -6 -58q0 -81 49.5 -122.5t118.5 -41.5q89 0 130 53q8 0 14 -5t6 -12q0 -13 -8 -27q-23 -44 -71.5 -70t-104.5 -26q-83 0 -142.5 58t-59.5 172q0 102 66.5 175.5t165.5 73.5q77 0 119 -40.5t42 -100.5q0 -29 -29 -29h-290zM127 328q80 2 122.5 4.5t65 8
t27 11t4.5 17.5q0 21 -19.5 34t-58.5 13q-47 0 -85 -25t-56 -63zM268 619l-112 -110l-17 9l110 178q6 11 19 11t19 -11l111 -178l-18 -9z" />
    <glyph glyph-name="edieresis" unicode="&#xeb;" horiz-adv-x="471" 
d="M116 292q-6 -27 -6 -58q0 -81 49.5 -122.5t118.5 -41.5q89 0 130 53q8 0 14 -5t6 -12q0 -13 -8 -27q-23 -44 -71.5 -70t-104.5 -26q-83 0 -142.5 58t-59.5 172q0 102 66.5 175.5t165.5 73.5q77 0 119 -40.5t42 -100.5q0 -29 -29 -29h-290zM127 328q80 2 122.5 4.5t65 8
t27 11t4.5 17.5q0 21 -19.5 34t-58.5 13q-47 0 -85 -25t-56 -63zM157 653q20 0 34 -15t14 -37t-14.5 -38t-33.5 -16t-33 16t-14 38t13.5 37t33.5 15zM346 653q20 0 34 -15t14 -37t-14 -38t-34 -16t-34 16t-14 38t14 37t34 15z" />
    <glyph glyph-name="igrave" unicode="&#xec;" horiz-adv-x="268" 
d="M175 360v-304q0 -25 19 -25h43v-31h-206v31h42q21 0 21 25v276q0 22 -20 27l-26 6q-17 3 -17 17q0 6 3 9q65 16 128 73q18 0 18 -6q0 -3 -1 -13.5t-2.5 -32.5t-1.5 -52zM4 661q-13 15 -13 26q0 20 31 20q39 0 52 -20l115 -176l-21 -9z" />
    <glyph glyph-name="iacute" unicode="&#xed;" horiz-adv-x="268" 
d="M175 360v-304q0 -25 19 -25h43v-31h-206v31h42q21 0 21 25v276q0 22 -20 27l-26 6q-17 3 -17 17q0 6 3 9q65 16 128 73q18 0 18 -6q0 -3 -1 -13.5t-2.5 -32.5t-1.5 -52zM249 661l-164 -159l-21 9l115 176q13 20 52 20q31 0 31 -20q0 -11 -13 -26z" />
    <glyph glyph-name="icircumflex" unicode="&#xee;" horiz-adv-x="268" 
d="M175 360v-304q0 -25 19 -25h43v-31h-206v31h42q21 0 21 25v276q0 22 -20 27l-26 6q-17 3 -17 17q0 6 3 9q65 16 128 73q18 0 18 -6q0 -3 -1 -13.5t-2.5 -32.5t-1.5 -52zM128 619l-112 -110l-17 9l110 178q6 11 19 11t19 -11l111 -178l-18 -9z" />
    <glyph glyph-name="idieresis" unicode="&#xef;" horiz-adv-x="268" 
d="M175 360v-304q0 -25 19 -25h43v-31h-206v31h42q21 0 21 25v276q0 22 -20 27l-26 6q-17 3 -17 17q0 6 3 9q65 16 128 73q18 0 18 -6q0 -3 -1 -13.5t-2.5 -32.5t-1.5 -52zM39 653q20 0 34 -15t14 -37t-14.5 -38t-33.5 -16t-33 16t-14 38t13.5 37t33.5 15zM228 653
q20 0 34 -15t14 -37t-14 -38t-34 -16t-34 16t-14 38t14 37t34 15z" />
    <glyph glyph-name="eth" unicode="&#xf0;" horiz-adv-x="556" 
d="M250 575l-105 -38q-16 11 -13 37l83 31q-58 45 -143 83q0 5 5.5 13t11.5 8q15 0 69.5 -22.5t112.5 -60.5l102 38q18 -24 13 -40l-74 -26q193 -148 193 -358q0 -122 -67.5 -189.5t-159.5 -67.5q-96 0 -160.5 63t-64.5 171q0 96 55.5 162t158.5 66q29 0 48.5 -5.5
t26.5 -12.5t7 -15t-4 -8q-12 4 -43 4q-75 0 -116.5 -57.5t-41.5 -143.5q0 -89 37 -134t91 -45q64 0 103.5 57t39.5 155q0 90 -42 176.5t-123 158.5z" />
    <glyph glyph-name="ntilde" unicode="&#xf1;" horiz-adv-x="567" 
d="M175 371q25 43 69 67t92 24q61 0 102 -38.5t41 -110.5v-257q0 -25 20 -25h42v-31h-213v31h50q20 0 20 25v232q0 53 -30.5 79.5t-75.5 26.5q-46 0 -81.5 -25.5t-35.5 -66.5v-246q0 -25 19 -25h50v-31h-213v31h42q21 0 21 25v276q0 22 -20 27l-26 6q-17 4 -17 17q0 6 3 9
q34 8 67.5 28.5t55.5 44.5q18 0 18 -6v-87zM149 538l-15 15q42 98 103 98q25 0 66 -25t64 -25q31 0 63 55l15 -14q-45 -98 -100 -98q-24 0 -63.5 24.5t-65.5 24.5q-35 0 -67 -55z" />
    <glyph glyph-name="ograve" unicode="&#xf2;" horiz-adv-x="562" 
d="M281 462q98 0 168.5 -70.5t70.5 -169.5q0 -100 -70.5 -169.5t-168.5 -69.5t-168.5 69.5t-70.5 169.5q0 99 70.5 169.5t168.5 70.5zM281 415q-68 0 -105.5 -50t-37.5 -143q0 -94 37.5 -143t105.5 -49t105 49.5t37 142.5t-37.5 143t-104.5 50zM193 661q-13 15 -13 26
q0 20 31 20q39 0 52 -20l115 -176l-21 -9z" />
    <glyph glyph-name="oacute" unicode="&#xf3;" horiz-adv-x="562" 
d="M281 462q98 0 168.5 -70.5t70.5 -169.5q0 -100 -70.5 -169.5t-168.5 -69.5t-168.5 69.5t-70.5 169.5q0 99 70.5 169.5t168.5 70.5zM281 415q-68 0 -105.5 -50t-37.5 -143q0 -94 37.5 -143t105.5 -49t105 49.5t37 142.5t-37.5 143t-104.5 50zM394 661l-164 -159l-21 9
l115 176q13 20 52 20q31 0 31 -20q0 -11 -13 -26z" />
    <glyph glyph-name="ocircumflex" unicode="&#xf4;" horiz-adv-x="562" 
d="M281 462q98 0 168.5 -70.5t70.5 -169.5q0 -100 -70.5 -169.5t-168.5 -69.5t-168.5 69.5t-70.5 169.5q0 99 70.5 169.5t168.5 70.5zM281 415q-68 0 -105.5 -50t-37.5 -143q0 -94 37.5 -143t105.5 -49t105 49.5t37 142.5t-37.5 143t-104.5 50zM281 619l-112 -110l-17 9
l110 178q6 11 19 11t19 -11l111 -178l-18 -9z" />
    <glyph glyph-name="otilde" unicode="&#xf5;" horiz-adv-x="562" 
d="M281 462q98 0 168.5 -70.5t70.5 -169.5q0 -100 -70.5 -169.5t-168.5 -69.5t-168.5 69.5t-70.5 169.5q0 99 70.5 169.5t168.5 70.5zM281 415q-68 0 -105.5 -50t-37.5 -143q0 -94 37.5 -143t105.5 -49t105 49.5t37 142.5t-37.5 143t-104.5 50zM141 538l-15 15q42 98 103 98
q25 0 66 -25t64 -25q31 0 63 55l15 -14q-45 -98 -100 -98q-24 0 -63.5 24.5t-65.5 24.5q-35 0 -67 -55z" />
    <glyph glyph-name="odieresis" unicode="&#xf6;" horiz-adv-x="562" 
d="M281 462q98 0 168.5 -70.5t70.5 -169.5q0 -100 -70.5 -169.5t-168.5 -69.5t-168.5 69.5t-70.5 169.5q0 99 70.5 169.5t168.5 70.5zM281 415q-68 0 -105.5 -50t-37.5 -143q0 -94 37.5 -143t105.5 -49t105 49.5t37 142.5t-37.5 143t-104.5 50zM186 653q20 0 34 -15t14 -37
t-14.5 -38t-33.5 -16t-33 16t-14 38t13.5 37t33.5 15zM375 653q20 0 34 -15t14 -37t-14 -38t-34 -16t-34 16t-14 38t14 37t34 15z" />
    <glyph glyph-name="divide" unicode="&#xf7;" horiz-adv-x="503" 
d="M252 415q21 0 36 -15.5t15 -35.5q0 -21 -15 -36t-36 -15t-36 15t-15 36q0 20 15 35.5t36 15.5zM252 116q20 0 34 -14t14 -33t-14 -33.5t-34 -14.5t-34 14.5t-14 33.5t14 33t34 14zM42 245h420v-57h-420v57z" />
    <glyph glyph-name="oslash" unicode="&#xf8;" horiz-adv-x="562" 
d="M121 44l-47 -44h-59l78 74q-51 64 -51 148q0 99 70.5 169.5t168.5 70.5q90 0 156 -60l39 38h61l-72 -67q55 -65 55 -151q0 -100 -70.5 -169.5t-168.5 -69.5q-91 0 -160 61zM409 319l-241 -230q38 -59 113 -59q68 0 105 49.5t37 142.5q0 55 -14 97zM151 129l239 230
q-38 56 -109 56q-68 0 -105.5 -50t-37.5 -143q0 -55 13 -93z" />
    <glyph glyph-name="ugrave" unicode="&#xf9;" horiz-adv-x="565" 
d="M395 -7l-6 78q-21 -41 -65 -64t-92 -23q-60 0 -102 38.5t-42 110.5v251q0 25 -19 25h-42v31h143v-282q0 -53 30.5 -79.5t75.5 -26.5q47 0 80 24t33 64v244q0 25 -20 25h-50v31h151v-355q0 -25 20 -25h50v-25zM170 661q-13 15 -13 26q0 20 31 20q39 0 52 -20l115 -176
l-21 -9z" />
    <glyph glyph-name="uacute" unicode="&#xfa;" horiz-adv-x="565" 
d="M395 -7l-6 78q-21 -41 -65 -64t-92 -23q-60 0 -102 38.5t-42 110.5v251q0 25 -19 25h-42v31h143v-282q0 -53 30.5 -79.5t75.5 -26.5q47 0 80 24t33 64v244q0 25 -20 25h-50v31h151v-355q0 -25 20 -25h50v-25zM396 661l-164 -159l-21 9l115 176q13 20 52 20q31 0 31 -20
q0 -11 -13 -26z" />
    <glyph glyph-name="ucircumflex" unicode="&#xfb;" horiz-adv-x="565" 
d="M395 -7l-6 78q-21 -41 -65 -64t-92 -23q-60 0 -102 38.5t-42 110.5v251q0 25 -19 25h-42v31h143v-282q0 -53 30.5 -79.5t75.5 -26.5q47 0 80 24t33 64v244q0 25 -20 25h-50v31h151v-355q0 -25 20 -25h50v-25zM271 619l-112 -110l-17 9l110 178q6 11 19 11t19 -11
l111 -178l-18 -9z" />
    <glyph glyph-name="udieresis" unicode="&#xfc;" horiz-adv-x="565" 
d="M395 -7l-6 78q-21 -41 -65 -64t-92 -23q-60 0 -102 38.5t-42 110.5v251q0 25 -19 25h-42v31h143v-282q0 -53 30.5 -79.5t75.5 -26.5q47 0 80 24t33 64v244q0 25 -20 25h-50v31h151v-355q0 -25 20 -25h50v-25zM188 653q20 0 34 -15t14 -37t-14.5 -38t-33.5 -16t-33 16
t-14 38t13.5 37t33.5 15zM377 653q20 0 34 -15t14 -37t-14 -38t-34 -16t-34 16t-14 38t14 37t34 15z" />
    <glyph glyph-name="yacute" unicode="&#xfd;" horiz-adv-x="490" 
d="M309 440h183v-31h-25q-25 0 -36 -25l-187 -434q-48 -110 -91 -160t-110 -50q-33 0 -54.5 18.5t-21.5 44.5q0 23 11.5 38t34.5 15q16 0 25 -8t12 -17t10.5 -17t19.5 -8q55 0 145 194l-169 395q-6 14 -23 14h-33v31h216v-31h-51q-26 0 -12 -32l80 -190q18 -43 33 -98
q16 56 32 102l66 183q6 17 -0.5 26t-20.5 9h-34v31zM392 661l-164 -159l-21 9l115 176q13 20 52 20q31 0 31 -20q0 -11 -13 -26z" />
    <glyph glyph-name="thorn" unicode="&#xfe;" horiz-adv-x="583" 
d="M170 397q64 65 164 65q97 0 152 -63.5t55 -152.5q0 -102 -71.5 -179t-199.5 -77q-46 0 -100 12v-189q0 -25 19 -25h56v-31h-219v31h42q20 0 20 25v842q0 25 -6.5 34.5t-21.5 14.5l-17 6q-17 5 -17 19q0 9 3 13q56 7 130 43q18 0 18 -6q0 -2 -0.5 -12.5l-1.5 -30.5
l-2.5 -49t-2 -79t-0.5 -110v-101zM170 339v-190q0 -118 119 -118q79 0 122 52t43 124q0 83 -45 135t-130 52q-41 0 -75 -16.5t-34 -38.5z" />
    <glyph glyph-name="ydieresis" unicode="&#xff;" horiz-adv-x="490" 
d="M309 440h183v-31h-25q-25 0 -36 -25l-187 -434q-48 -110 -91 -160t-110 -50q-33 0 -54.5 18.5t-21.5 44.5q0 23 11.5 38t34.5 15q16 0 25 -8t12 -17t10.5 -17t19.5 -8q55 0 145 194l-169 395q-6 14 -23 14h-33v31h216v-31h-51q-26 0 -12 -32l80 -190q18 -43 33 -98
q16 56 32 102l66 183q6 17 -0.5 26t-20.5 9h-34v31zM158 653q20 0 34 -15t14 -37t-14.5 -38t-33.5 -16t-33 16t-14 38t13.5 37t33.5 15zM347 653q20 0 34 -15t14 -37t-14 -38t-34 -16t-34 16t-14 38t14 37t34 15z" />
    <glyph glyph-name="Amacron" unicode="&#x100;" horiz-adv-x="636" 
d="M191 292h219l-108 290zM422 255h-244l-70 -182q-7 -22 -1.5 -32t20.5 -10h46v-31h-205v31h30q18 0 31 30q146 310 272 643h56q23 -72 119.5 -325.5t129.5 -329.5q10 -18 19 -18h36v-31h-238v31h56q9 0 13.5 6.5t-0.5 25.5zM200 827h246v-52h-246v52z" />
    <glyph glyph-name="amacron" unicode="&#x101;" horiz-adv-x="449" 
d="M266 154v87q-138 -54 -138 -145q0 -45 51 -45q33 0 60 27t27 76zM274 76q-16 -35 -53 -64t-80 -29q-44 0 -69 23.5t-25 62.5q0 53 52 106t167 99v70q0 36 -12.5 52t-41.5 16q-31 0 -55.5 -18t-30.5 -53q-2 -13 -16 -21.5t-30 -8.5q-28 0 -28 26q0 43 47.5 84t122.5 41
q64 0 95.5 -26t31.5 -71q0 -38 -3 -126t-3 -137q0 -44 36 -44q34 0 52 26q14 0 14 -10q0 -24 -25.5 -55t-64.5 -31q-38 0 -58.5 25.5t-22.5 62.5zM97 620h246v-52h-246v52z" />
    <glyph glyph-name="Abreve" unicode="&#x102;" horiz-adv-x="636" 
d="M191 292h219l-108 290zM422 255h-244l-70 -182q-7 -22 -1.5 -32t20.5 -10h46v-31h-205v31h30q18 0 31 30q146 310 272 643h56q23 -72 119.5 -325.5t129.5 -329.5q10 -18 19 -18h36v-31h-238v31h56q9 0 13.5 6.5t-0.5 25.5zM429 865q0 -57 -30 -92.5t-74 -35.5t-74 35.5
t-30 92.5h22q0 -37 25.5 -57t56.5 -20q30 0 56 20t26 57h22z" />
    <glyph glyph-name="abreve" unicode="&#x103;" horiz-adv-x="449" 
d="M266 154v87q-138 -54 -138 -145q0 -45 51 -45q33 0 60 27t27 76zM274 76q-16 -35 -53 -64t-80 -29q-44 0 -69 23.5t-25 62.5q0 53 52 106t167 99v70q0 36 -12.5 52t-41.5 16q-31 0 -55.5 -18t-30.5 -53q-2 -13 -16 -21.5t-30 -8.5q-28 0 -28 26q0 43 47.5 84t122.5 41
q64 0 95.5 -26t31.5 -71q0 -38 -3 -126t-3 -137q0 -44 36 -44q34 0 52 26q14 0 14 -10q0 -24 -25.5 -55t-64.5 -31q-38 0 -58.5 25.5t-22.5 62.5zM323 669q0 -63 -27 -101t-77 -38t-77 38t-27 101h23q0 -40 25 -59t56 -19t56.5 19.5t25.5 58.5h22z" />
    <glyph glyph-name="Aogonek" unicode="&#x104;" horiz-adv-x="636" 
d="M422 255h-244l-70 -182q-7 -22 -1.5 -32t20.5 -10h46v-31h-205v31h30q18 0 31 30q146 310 272 643h56q23 -72 119.5 -325.5t129.5 -329.5q10 -18 19 -18h36v-31h-57q-52 -20 -81 -53t-29 -70q0 -61 66 -61q23 0 48 8q7 -1 7 -10q0 -16 -20.5 -30t-62.5 -14q-50 0 -75 23
t-25 58q0 47 38 88.5t98 60.5h-145v31h56q9 0 13.5 6.5t-0.5 25.5zM191 292h219l-108 290z" />
    <glyph glyph-name="aogonek" unicode="&#x105;" horiz-adv-x="449" 
d="M274 76q-16 -35 -53 -64t-80 -29q-44 0 -69 23.5t-25 62.5q0 53 52 106t167 99v70q0 36 -12.5 52t-41.5 16q-31 0 -55.5 -18t-30.5 -53q-2 -13 -16 -21.5t-30 -8.5q-28 0 -28 26q0 43 47.5 84t122.5 41q64 0 95.5 -26t31.5 -71q0 -38 -3 -126t-3 -137q0 -44 36 -44
q34 0 52 26q14 0 14 -10q0 -22 -22 -51t-56 -34q-85 -43 -85 -112q0 -61 66 -61q23 0 48 8q7 -1 7 -10q0 -16 -20.5 -30t-62.5 -14q-50 0 -75 23t-25 58q0 42 30.5 80t80.5 60q-55 15 -57 85zM266 154v87q-138 -54 -138 -145q0 -45 51 -45q33 0 60 27t27 76z" />
    <glyph glyph-name="Cacute" unicode="&#x106;" horiz-adv-x="748" 
d="M674 654q12 -8 12 -19q0 -19 5 -72.5t5 -65.5t-25 -12q-17 84 -73.5 130.5t-150.5 46.5q-119 0 -200 -92t-81 -229q0 -134 81.5 -223.5t194.5 -89.5q35 0 70 8.5t70.5 27.5t61 55t33.5 85q27 0 27 -13q0 -11 -4.5 -61.5t-4.5 -69.5q0 -6 -2.5 -9.5t-8.5 -7t-8 -5.5
q-88 -54 -248 -54q-155 0 -263.5 100.5t-108.5 251.5t118 261t277 110q140 0 223 -53zM534 842l-164 -126l-21 6l115 141q13 17 52 17q31 0 31 -17q0 -8 -13 -21z" />
    <glyph glyph-name="cacute" unicode="&#x107;" horiz-adv-x="449" 
d="M420 109q0 -13 -9 -32.5t-26.5 -41.5t-51 -37t-75.5 -15q-104 0 -160 64t-56 159q0 107 69.5 181.5t173.5 74.5q66 0 98.5 -24.5t32.5 -58.5q0 -18 -12 -30t-30 -12q-15 0 -25.5 9.5t-18 21.5t-28 21.5t-52.5 9.5q-61 0 -99 -45t-38 -118q0 -68 41.5 -115t119.5 -47
q86 0 126 53q20 0 20 -18zM375 661l-164 -159l-21 9l115 176q13 20 52 20q31 0 31 -20q0 -11 -13 -26z" />
    <glyph glyph-name="Ccircumflex" unicode="&#x108;" horiz-adv-x="748" 
d="M674 654q12 -8 12 -19q0 -19 5 -72.5t5 -65.5t-25 -12q-17 84 -73.5 130.5t-150.5 46.5q-119 0 -200 -92t-81 -229q0 -134 81.5 -223.5t194.5 -89.5q35 0 70 8.5t70.5 27.5t61 55t33.5 85q27 0 27 -13q0 -11 -4.5 -61.5t-4.5 -69.5q0 -6 -2.5 -9.5t-8.5 -7t-8 -5.5
q-88 -54 -248 -54q-155 0 -263.5 100.5t-108.5 251.5t118 261t277 110q140 0 223 -53zM451 807l-112 -88l-16 9l109 140q6 10 19 10t19 -10l109 -140l-16 -9z" />
    <glyph glyph-name="ccircumflex" unicode="&#x109;" horiz-adv-x="449" 
d="M420 109q0 -13 -9 -32.5t-26.5 -41.5t-51 -37t-75.5 -15q-104 0 -160 64t-56 159q0 107 69.5 181.5t173.5 74.5q66 0 98.5 -24.5t32.5 -58.5q0 -18 -12 -30t-30 -12q-15 0 -25.5 9.5t-18 21.5t-28 21.5t-52.5 9.5q-61 0 -99 -45t-38 -118q0 -68 41.5 -115t119.5 -47
q86 0 126 53q20 0 20 -18zM263 619l-112 -110l-17 9l110 178q6 11 19 11t19 -11l111 -178l-18 -9z" />
    <glyph glyph-name="Cdotaccent" unicode="&#x10a;" horiz-adv-x="748" 
d="M674 654q12 -8 12 -19q0 -19 5 -72.5t5 -65.5t-25 -12q-17 84 -73.5 130.5t-150.5 46.5q-119 0 -200 -92t-81 -229q0 -134 81.5 -223.5t194.5 -89.5q35 0 70 8.5t70.5 27.5t61 55t33.5 85q27 0 27 -13q0 -11 -4.5 -61.5t-4.5 -69.5q0 -6 -2.5 -9.5t-8.5 -7t-8 -5.5
q-88 -54 -248 -54q-155 0 -263.5 100.5t-108.5 251.5t118 261t277 110q140 0 223 -53zM446 847q22 0 37.5 -15.5t15.5 -37.5q0 -21 -15.5 -35.5t-37.5 -14.5q-21 0 -36.5 14.5t-15.5 35.5q0 22 15.5 37.5t36.5 15.5z" />
    <glyph glyph-name="cdotaccent" unicode="&#x10b;" horiz-adv-x="449" 
d="M420 109q0 -13 -9 -32.5t-26.5 -41.5t-51 -37t-75.5 -15q-104 0 -160 64t-56 159q0 107 69.5 181.5t173.5 74.5q66 0 98.5 -24.5t32.5 -58.5q0 -18 -12 -30t-30 -12q-15 0 -25.5 9.5t-18 21.5t-28 21.5t-52.5 9.5q-61 0 -99 -45t-38 -118q0 -68 41.5 -115t119.5 -47
q86 0 126 53q20 0 20 -18zM269 673q21 0 36 -15.5t15 -35.5q0 -21 -15 -37t-36 -16t-37 16t-16 37q0 20 16 35.5t37 15.5z" />
    <glyph glyph-name="Ccaron" unicode="&#x10c;" horiz-adv-x="748" 
d="M674 654q12 -8 12 -19q0 -19 5 -72.5t5 -65.5t-25 -12q-17 84 -73.5 130.5t-150.5 46.5q-119 0 -200 -92t-81 -229q0 -134 81.5 -223.5t194.5 -89.5q35 0 70 8.5t70.5 27.5t61 55t33.5 85q27 0 27 -13q0 -11 -4.5 -61.5t-4.5 -69.5q0 -6 -2.5 -9.5t-8.5 -7t-8 -5.5
q-88 -54 -248 -54q-155 0 -263.5 100.5t-108.5 251.5t118 261t277 110q140 0 223 -53zM448 798l111 89l16 -10l-109 -140q-6 -9 -18 -9q-14 0 -20 9l-109 140l16 10z" />
    <glyph glyph-name="ccaron" unicode="&#x10d;" horiz-adv-x="449" 
d="M420 109q0 -13 -9 -32.5t-26.5 -41.5t-51 -37t-75.5 -15q-104 0 -160 64t-56 159q0 107 69.5 181.5t173.5 74.5q66 0 98.5 -24.5t32.5 -58.5q0 -18 -12 -30t-30 -12q-15 0 -25.5 9.5t-18 21.5t-28 21.5t-52.5 9.5q-61 0 -99 -45t-38 -118q0 -68 41.5 -115t119.5 -47
q86 0 126 53q20 0 20 -18zM267 596l111 110l18 -9l-111 -178q-6 -11 -18 -11q-14 0 -20 11l-110 178l17 9z" />
    <glyph glyph-name="Dcaron" unicode="&#x10e;" horiz-adv-x="778" 
d="M227 35q188 0 286.5 77.5t98.5 233.5q0 143 -97 224t-288 82v-617zM130 48v594q0 16 -12 16h-62v32h252q190 0 302 -96.5t112 -247.5q0 -161 -114 -253.5t-300 -92.5h-252v31h62q12 0 12 17zM345 788l111 89l16 -10l-109 -140q-6 -9 -18 -9q-14 0 -20 9l-109 140l16 10z
" />
    <glyph glyph-name="dcaron" unicode="&#x10f;" horiz-adv-x="596" 
d="M553 760q0 31 40 31q28 0 37 -11.5t1 -40.5l-51 -174h-27v195zM501 779q0 -1 -0.5 -11l-1.5 -30.5l-2.5 -50t-2 -79.5t-0.5 -110v-415q0 -25 20 -25h50v-25l-145 -42l-5 69q-77 -77 -164 -77q-97 0 -152.5 64.5t-55.5 153.5q0 103 71 182t199 79q48 0 101 -13v206
q0 25 -6.5 34.5t-21.5 14.5l-18 6q-17 6 -17 19q0 7 4 13q56 8 130 43q17 0 17 -6zM413 112v191q0 117 -120 117q-79 0 -122 -53.5t-43 -126.5q0 -85 42 -137.5t127 -52.5q40 0 78 19.5t38 42.5z" />
    <glyph glyph-name="Dcroat" unicode="&#x110;" horiz-adv-x="778" 
d="M228 375h182v-48h-182v-292q188 0 286 77.5t98 233.5q0 143 -97 224t-287 82v-277zM131 327h-97v48h97v267q0 16 -12 16h-62v32h252q190 0 302 -96.5t112 -247.5q0 -161 -114 -253.5t-300 -92.5h-252v31h62q12 0 12 17v279z" />
    <glyph glyph-name="dcroat" unicode="&#x111;" horiz-adv-x="596" 
d="M310 573l1 42h102v40q0 25 -6.5 34.5t-21.5 14.5l-18 6q-17 6 -17 19q0 7 4 13q56 8 130 43q17 0 17 -6q0 -1 -1.5 -17t-3 -55t-2.5 -92h63v-42h-63v-75v-415q0 -25 20 -25h50v-25l-145 -42l-5 69q-77 -77 -164 -77q-97 0 -152.5 64.5t-55.5 153.5q0 103 71 182t199 79
q48 0 101 -13v124h-103zM413 112v191q0 117 -120 117q-79 0 -122 -53.5t-43 -126.5q0 -85 42 -137.5t127 -52.5q40 0 78 19.5t38 42.5z" />
    <glyph glyph-name="Emacron" unicode="&#x112;" horiz-adv-x="604" 
d="M225 649v-273q165 3 191 12q21 7 24 29q1 3 1 5l3 30q31 0 31 -8q0 -15 -1 -41.5t-1 -42.5t1 -46t1 -45q0 -11 -31 -11l-4 31q-1 12 -3.5 19t-12 13t-21 9t-38 5t-57 2.5t-83.5 1.5v-294q66 1 103 2.5t72.5 6t52.5 10t33.5 18t25 27.5t19.5 40q26 0 26 -12
q0 -10 -9 -55.5t-9 -59.5q0 -10 -6.5 -17t-14.5 -7q-4 0 -201 1t-261 1v31h59q13 0 13 17v594q0 16 -13 16h-59v32q63 0 243.5 1.5t185.5 1.5q23 0 23 -22q0 -15 3 -52t3 -53q0 -11 -24 -11q-7 23 -13 36t-19.5 24.5t-28.5 16.5t-46 9.5t-65 5.5t-93 2zM187 827h246v-52
h-246v52z" />
    <glyph glyph-name="emacron" unicode="&#x113;" horiz-adv-x="471" 
d="M116 292q-6 -27 -6 -58q0 -81 49.5 -122.5t118.5 -41.5q89 0 130 53q8 0 14 -5t6 -12q0 -13 -8 -27q-23 -44 -71.5 -70t-104.5 -26q-83 0 -142.5 58t-59.5 172q0 102 66.5 175.5t165.5 73.5q77 0 119 -40.5t42 -100.5q0 -29 -29 -29h-290zM127 328q80 2 122.5 4.5t65 8
t27 11t4.5 17.5q0 21 -19.5 34t-58.5 13q-47 0 -85 -25t-56 -63zM149 620h246v-52h-246v52z" />
    <glyph glyph-name="Ebreve" unicode="&#x114;" horiz-adv-x="604" 
d="M225 649v-273q165 3 191 12q21 7 24 29q1 3 1 5l3 30q31 0 31 -8q0 -15 -1 -41.5t-1 -42.5t1 -46t1 -45q0 -11 -31 -11l-4 31q-1 12 -3.5 19t-12 13t-21 9t-38 5t-57 2.5t-83.5 1.5v-294q66 1 103 2.5t72.5 6t52.5 10t33.5 18t25 27.5t19.5 40q26 0 26 -12
q0 -10 -9 -55.5t-9 -59.5q0 -10 -6.5 -17t-14.5 -7q-4 0 -201 1t-261 1v31h59q13 0 13 17v594q0 16 -13 16h-59v32q63 0 243.5 1.5t185.5 1.5q23 0 23 -22q0 -15 3 -52t3 -53q0 -11 -24 -11q-7 23 -13 36t-19.5 24.5t-28.5 16.5t-46 9.5t-65 5.5t-93 2zM417 865
q0 -57 -30 -92.5t-74 -35.5t-74 35.5t-30 92.5h22q0 -37 25.5 -57t56.5 -20q30 0 56 20t26 57h22z" />
    <glyph glyph-name="ebreve" unicode="&#x115;" horiz-adv-x="471" 
d="M116 292q-6 -27 -6 -58q0 -81 49.5 -122.5t118.5 -41.5q89 0 130 53q8 0 14 -5t6 -12q0 -13 -8 -27q-23 -44 -71.5 -70t-104.5 -26q-83 0 -142.5 58t-59.5 172q0 102 66.5 175.5t165.5 73.5q77 0 119 -40.5t42 -100.5q0 -29 -29 -29h-290zM127 328q80 2 122.5 4.5t65 8
t27 11t4.5 17.5q0 21 -19.5 34t-58.5 13q-47 0 -85 -25t-56 -63zM368 669q0 -63 -27 -101t-77 -38t-77 38t-27 101h23q0 -40 25 -59t56 -19t56.5 19.5t25.5 58.5h22z" />
    <glyph glyph-name="Edotaccent" unicode="&#x116;" horiz-adv-x="604" 
d="M225 649v-273q165 3 191 12q21 7 24 29q1 3 1 5l3 30q31 0 31 -8q0 -15 -1 -41.5t-1 -42.5t1 -46t1 -45q0 -11 -31 -11l-4 31q-1 12 -3.5 19t-12 13t-21 9t-38 5t-57 2.5t-83.5 1.5v-294q66 1 103 2.5t72.5 6t52.5 10t33.5 18t25 27.5t19.5 40q26 0 26 -12
q0 -10 -9 -55.5t-9 -59.5q0 -10 -6.5 -17t-14.5 -7q-4 0 -201 1t-261 1v31h59q13 0 13 17v594q0 16 -13 16h-59v32q63 0 243.5 1.5t185.5 1.5q23 0 23 -22q0 -15 3 -52t3 -53q0 -11 -24 -11q-7 23 -13 36t-19.5 24.5t-28.5 16.5t-46 9.5t-65 5.5t-93 2zM316 847
q22 0 37.5 -15.5t15.5 -37.5q0 -21 -15.5 -35.5t-37.5 -14.5q-21 0 -36.5 14.5t-15.5 35.5q0 22 15.5 37.5t36.5 15.5z" />
    <glyph glyph-name="edotaccent" unicode="&#x117;" horiz-adv-x="471" 
d="M116 292q-6 -27 -6 -58q0 -81 49.5 -122.5t118.5 -41.5q89 0 130 53q8 0 14 -5t6 -12q0 -13 -8 -27q-23 -44 -71.5 -70t-104.5 -26q-83 0 -142.5 58t-59.5 172q0 102 66.5 175.5t165.5 73.5q77 0 119 -40.5t42 -100.5q0 -29 -29 -29h-290zM127 328q80 2 122.5 4.5t65 8
t27 11t4.5 17.5q0 21 -19.5 34t-58.5 13q-47 0 -85 -25t-56 -63zM261 673q21 0 36 -15.5t15 -35.5q0 -21 -15 -37t-36 -16t-37 16t-16 37q0 20 16 35.5t37 15.5z" />
    <glyph glyph-name="Eogonek" unicode="&#x118;" horiz-adv-x="604" 
d="M225 649v-273q165 3 191 12q21 7 24 29q1 3 1 5l3 30q31 0 31 -8q0 -15 -1 -41.5t-1 -42.5t1 -46t1 -45q0 -11 -31 -11l-4 31q-1 12 -3.5 19t-12 13t-21 9t-38 5t-57 2.5t-83.5 1.5v-294q66 1 103 2.5t72.5 6t52.5 10t33.5 18t25 27.5t19.5 40q26 0 26 -12
q0 -10 -9 -55.5t-9 -59.5q0 -10 -6.5 -17t-14.5 -7h-32q-50 -20 -77.5 -52.5t-27.5 -68.5q0 -61 66 -61q23 0 48 8q7 -1 7 -10q0 -16 -20.5 -30t-62.5 -14q-50 0 -75 23t-25 58q0 46 36.5 86.5t93.5 60.5q-216 2 -393 2v31h59q13 0 13 17v594q0 16 -13 16h-59v32
q63 0 243.5 1.5t185.5 1.5q23 0 23 -22q0 -15 3 -52t3 -53q0 -11 -24 -11q-7 23 -13 36t-19.5 24.5t-28.5 16.5t-46 9.5t-65 5.5t-93 2z" />
    <glyph glyph-name="eogonek" unicode="&#x119;" horiz-adv-x="471" 
d="M116 292q-6 -27 -6 -58q0 -81 49.5 -122.5t118.5 -41.5q89 0 130 53q8 0 14 -5t6 -12q0 -13 -8 -27q-35 -65 -118 -88q-42 -20 -65 -50.5t-23 -63.5q0 -61 66 -61q23 0 48 8q7 -1 7 -10q0 -16 -20.5 -30t-62.5 -14q-50 0 -75 23t-25 58q0 39 26 74t69 58h-3
q-83 0 -142.5 58t-59.5 172q0 102 66.5 175.5t165.5 73.5q77 0 119 -40.5t42 -100.5q0 -29 -29 -29h-290zM127 328q80 2 122.5 4.5t65 8t27 11t4.5 17.5q0 21 -19.5 34t-58.5 13q-47 0 -85 -25t-56 -63z" />
    <glyph glyph-name="Ecaron" unicode="&#x11a;" horiz-adv-x="604" 
d="M225 649v-273q165 3 191 12q21 7 24 29q1 3 1 5l3 30q31 0 31 -8q0 -15 -1 -41.5t-1 -42.5t1 -46t1 -45q0 -11 -31 -11l-4 31q-1 12 -3.5 19t-12 13t-21 9t-38 5t-57 2.5t-83.5 1.5v-294q66 1 103 2.5t72.5 6t52.5 10t33.5 18t25 27.5t19.5 40q26 0 26 -12
q0 -10 -9 -55.5t-9 -59.5q0 -10 -6.5 -17t-14.5 -7q-4 0 -201 1t-261 1v31h59q13 0 13 17v594q0 16 -13 16h-59v32q63 0 243.5 1.5t185.5 1.5q23 0 23 -22q0 -15 3 -52t3 -53q0 -11 -24 -11q-7 23 -13 36t-19.5 24.5t-28.5 16.5t-46 9.5t-65 5.5t-93 2zM314 788l111 89
l16 -10l-109 -140q-6 -9 -18 -9q-14 0 -20 9l-109 140l16 10z" />
    <glyph glyph-name="ecaron" unicode="&#x11b;" horiz-adv-x="471" 
d="M116 292q-6 -27 -6 -58q0 -81 49.5 -122.5t118.5 -41.5q89 0 130 53q8 0 14 -5t6 -12q0 -13 -8 -27q-23 -44 -71.5 -70t-104.5 -26q-83 0 -142.5 58t-59.5 172q0 102 66.5 175.5t165.5 73.5q77 0 119 -40.5t42 -100.5q0 -29 -29 -29h-290zM127 328q80 2 122.5 4.5t65 8
t27 11t4.5 17.5q0 21 -19.5 34t-58.5 13q-47 0 -85 -25t-56 -63zM261 596l111 110l18 -9l-111 -178q-6 -11 -18 -11q-14 0 -20 11l-110 178l17 9z" />
    <glyph glyph-name="Gcircumflex" unicode="&#x11c;" horiz-adv-x="804" 
d="M447 29q153 0 153 80v124q0 17 -13 17h-91v31h278v-31h-60q-13 0 -13 -17v-184q-47 -29 -119.5 -47t-147.5 -18q-170 0 -274 99t-104 253q0 152 117.5 261.5t280.5 109.5q136 0 220 -53q11 -8 11 -19q0 -19 5 -72.5t5 -65.5t-25 -12q-11 79 -70.5 128t-147.5 49
q-118 0 -202 -93.5t-84 -227.5q0 -141 79.5 -226.5t201.5 -85.5zM453 807l-112 -88l-16 9l109 140q6 10 19 10t19 -10l109 -140l-16 -9z" />
    <glyph glyph-name="gcircumflex" unicode="&#x11d;" horiz-adv-x="522" 
d="M182 -29q-31 -12 -51.5 -38.5t-20.5 -56.5q0 -80 132 -80q78 0 129 32.5t51 84.5q0 33 -18.5 48.5t-69.5 15.5q-24 0 -75 -3t-77 -3zM144 -25q-29 4 -60.5 27.5t-31.5 46.5q0 13 40 50t68 55q-96 37 -96 148q0 71 49 115.5t126 44.5q64 0 109 -23h138v-50h-100
q29 -36 29 -93q0 -71 -51 -115.5t-125 -44.5q-27 0 -51 5q-46 -37 -46 -65q0 -31 39 -31q18 0 77 3.5t99 3.5q136 0 136 -111q0 -91 -88.5 -146.5t-207.5 -55.5q-77 0 -125.5 28t-48.5 77q0 39 35.5 75.5t85.5 55.5zM239 425q-40 0 -64 -32t-24 -92q0 -63 24 -96t64 -33
q42 0 67 32t25 95q0 60 -25.5 93t-66.5 33zM248 619l-112 -110l-17 9l110 178q6 11 19 11t19 -11l111 -178l-18 -9z" />
    <glyph glyph-name="Gbreve" unicode="&#x11e;" horiz-adv-x="804" 
d="M447 29q153 0 153 80v124q0 17 -13 17h-91v31h278v-31h-60q-13 0 -13 -17v-184q-47 -29 -119.5 -47t-147.5 -18q-170 0 -274 99t-104 253q0 152 117.5 261.5t280.5 109.5q136 0 220 -53q11 -8 11 -19q0 -19 5 -72.5t5 -65.5t-25 -12q-11 79 -70.5 128t-147.5 49
q-118 0 -202 -93.5t-84 -227.5q0 -141 79.5 -226.5t201.5 -85.5zM555 865q0 -57 -30 -92.5t-74 -35.5t-74 35.5t-30 92.5h22q0 -37 25.5 -57t56.5 -20q30 0 56 20t26 57h22z" />
    <glyph glyph-name="gbreve" unicode="&#x11f;" horiz-adv-x="522" 
d="M182 -29q-31 -12 -51.5 -38.5t-20.5 -56.5q0 -80 132 -80q78 0 129 32.5t51 84.5q0 33 -18.5 48.5t-69.5 15.5q-24 0 -75 -3t-77 -3zM144 -25q-29 4 -60.5 27.5t-31.5 46.5q0 13 40 50t68 55q-96 37 -96 148q0 71 49 115.5t126 44.5q64 0 109 -23h138v-50h-100
q29 -36 29 -93q0 -71 -51 -115.5t-125 -44.5q-27 0 -51 5q-46 -37 -46 -65q0 -31 39 -31q18 0 77 3.5t99 3.5q136 0 136 -111q0 -91 -88.5 -146.5t-207.5 -55.5q-77 0 -125.5 28t-48.5 77q0 39 35.5 75.5t85.5 55.5zM239 425q-40 0 -64 -32t-24 -92q0 -63 24 -96t64 -33
q42 0 67 32t25 95q0 60 -25.5 93t-66.5 33zM347 669q0 -63 -27 -101t-77 -38t-77 38t-27 101h23q0 -40 25 -59t56 -19t56.5 19.5t25.5 58.5h22z" />
    <glyph glyph-name="Gdotaccent" unicode="&#x120;" horiz-adv-x="804" 
d="M447 29q153 0 153 80v124q0 17 -13 17h-91v31h278v-31h-60q-13 0 -13 -17v-184q-47 -29 -119.5 -47t-147.5 -18q-170 0 -274 99t-104 253q0 152 117.5 261.5t280.5 109.5q136 0 220 -53q11 -8 11 -19q0 -19 5 -72.5t5 -65.5t-25 -12q-11 79 -70.5 128t-147.5 49
q-118 0 -202 -93.5t-84 -227.5q0 -141 79.5 -226.5t201.5 -85.5zM452 847q22 0 37.5 -15.5t15.5 -37.5q0 -21 -15.5 -35.5t-37.5 -14.5q-21 0 -36.5 14.5t-15.5 35.5q0 22 15.5 37.5t36.5 15.5z" />
    <glyph glyph-name="gdotaccent" unicode="&#x121;" horiz-adv-x="522" 
d="M182 -29q-31 -12 -51.5 -38.5t-20.5 -56.5q0 -80 132 -80q78 0 129 32.5t51 84.5q0 33 -18.5 48.5t-69.5 15.5q-24 0 -75 -3t-77 -3zM144 -25q-29 4 -60.5 27.5t-31.5 46.5q0 13 40 50t68 55q-96 37 -96 148q0 71 49 115.5t126 44.5q64 0 109 -23h138v-50h-100
q29 -36 29 -93q0 -71 -51 -115.5t-125 -44.5q-27 0 -51 5q-46 -37 -46 -65q0 -31 39 -31q18 0 77 3.5t99 3.5q136 0 136 -111q0 -91 -88.5 -146.5t-207.5 -55.5q-77 0 -125.5 28t-48.5 77q0 39 35.5 75.5t85.5 55.5zM239 425q-40 0 -64 -32t-24 -92q0 -63 24 -96t64 -33
q42 0 67 32t25 95q0 60 -25.5 93t-66.5 33zM248 673q21 0 36 -15.5t15 -35.5q0 -21 -15 -37t-36 -16t-37 16t-16 37q0 20 16 35.5t37 15.5z" />
    <glyph glyph-name="Gcommaaccent" unicode="&#x122;" horiz-adv-x="804" 
d="M447 29q153 0 153 80v124q0 17 -13 17h-91v31h278v-31h-60q-13 0 -13 -17v-184q-47 -29 -119.5 -47t-147.5 -18q-170 0 -274 99t-104 253q0 152 117.5 261.5t280.5 109.5q136 0 220 -53q11 -8 11 -19q0 -19 5 -72.5t5 -65.5t-25 -12q-11 79 -70.5 128t-147.5 49
q-118 0 -202 -93.5t-84 -227.5q0 -141 79.5 -226.5t201.5 -85.5zM386 -286v26q36 5 57.5 25t21.5 49q0 18 -9.5 27.5t-21.5 9.5q-20 0 -33 11.5t-13 30.5q0 20 13.5 34t32.5 14q30 0 53 -26.5t23 -66.5q0 -57 -34.5 -91.5t-89.5 -42.5z" />
    <glyph glyph-name="gcommaaccent" unicode="&#x123;" horiz-adv-x="522" 
d="M182 -29q-31 -12 -51.5 -38.5t-20.5 -56.5q0 -80 132 -80q78 0 129 32.5t51 84.5q0 33 -18.5 48.5t-69.5 15.5q-24 0 -75 -3t-77 -3zM144 -25q-29 4 -60.5 27.5t-31.5 46.5q0 13 40 50t68 55q-96 37 -96 148q0 71 49 115.5t126 44.5q64 0 109 -23h138v-50h-100
q29 -36 29 -93q0 -71 -51 -115.5t-125 -44.5q-27 0 -51 5q-46 -37 -46 -65q0 -31 39 -31q18 0 77 3.5t99 3.5q136 0 136 -111q0 -91 -88.5 -146.5t-207.5 -55.5q-77 0 -125.5 28t-48.5 77q0 39 35.5 75.5t85.5 55.5zM239 425q-40 0 -64 -32t-24 -92q0 -63 24 -96t64 -33
q42 0 67 32t25 95q0 60 -25.5 93t-66.5 33zM299 738v-26q-36 -5 -57.5 -25t-21.5 -49q0 -18 9.5 -27.5t21.5 -9.5q20 0 33 -11.5t13 -30.5q0 -20 -13.5 -34t-32.5 -14q-30 0 -53 26.5t-23 66.5q0 57 34.5 91.5t89.5 42.5z" />
    <glyph glyph-name="Hcircumflex" unicode="&#x124;" horiz-adv-x="823" 
d="M596 343h-370v-295q0 -17 13 -17h62v-31h-245v31h62q12 0 12 17v594q0 16 -12 16h-62v32h245v-32h-62q-13 0 -13 -16v-262h370v262q0 16 -13 16h-61v32h244v-32h-61q-12 0 -12 -16v-594q0 -17 12 -17h61v-31h-244v31h61q13 0 13 17v295zM411 807l-112 -88l-16 9l109 140
q6 10 19 10t19 -10l109 -140l-16 -9z" />
    <glyph glyph-name="hcircumflex" unicode="&#x125;" horiz-adv-x="567" 
d="M244 0h-213v31h42q21 0 21 25v599q0 25 -6.5 34.5t-21.5 14.5l-18 6q-17 5 -17 19q0 9 3 13q56 7 130 43q18 0 18 -6q0 -2 -0.5 -13.5t-2 -33.5t-2.5 -53.5t-1.5 -83t-0.5 -111.5v-113q25 43 69 67t92 24q61 0 102 -38.5t41 -110.5v-257q0 -25 20 -25h42v-31h-213v31h50
q20 0 20 25v232q0 53 -30.5 79.5t-75.5 26.5q-46 0 -81.5 -25.5t-35.5 -66.5v-246q0 -25 19 -25h50v-31zM205 878l-112 -88l-16 9l109 140q6 10 19 10t19 -10l109 -140l-16 -9z" />
    <glyph glyph-name="Hbar" unicode="&#x126;" horiz-adv-x="823" 
d="M55 582h75v60q0 16 -12 16h-62v32h245v-32h-62q-13 0 -13 -16v-60h370v60q0 16 -13 16h-61v32h244v-32h-61q-12 0 -12 -16v-60h73v-53h-73v-481q0 -17 12 -17h61v-31h-244v31h61q13 0 13 17v295h-370v-295q0 -17 13 -17h62v-31h-245v31h62q12 0 12 17v481h-75v53z
M226 380h370v149h-370v-149z" />
    <glyph glyph-name="hbar" unicode="&#x127;" horiz-adv-x="567" 
d="M19 615h75v40q0 25 -6.5 34.5t-21.5 14.5l-18 6q-17 5 -17 19q0 9 3 13q56 7 130 43q18 0 18 -6q0 -2 -1 -19.5t-2.5 -57t-2.5 -87.5h89v-42h-90v-26.5v-33.5v-29v-113q25 43 69 67t92 24q61 0 102 -38.5t41 -110.5v-257q0 -25 20 -25h42v-31h-213v31h50q20 0 20 25v232
q0 53 -30.5 79.5t-75.5 26.5q-46 0 -81.5 -25.5t-35.5 -66.5v-246q0 -25 19 -25h50v-31h-213v31h42q21 0 21 25v517h-75v42z" />
    <glyph glyph-name="Itilde" unicode="&#x128;" horiz-adv-x="357" 
d="M301 0h-245v31h62q12 0 12 17v594q0 16 -12 16h-62v32h245v-32h-62q-12 0 -12 -16v-594q0 -17 12 -17h62v-31zM58 744l-14 14q39 89 92 89q24 0 61 -23t57 -23q31 0 57 50l13 -14q-39 -88 -89 -88q-22 0 -58 22.5t-59 22.5q-32 0 -60 -50z" />
    <glyph glyph-name="itilde" unicode="&#x129;" horiz-adv-x="268" 
d="M175 360v-304q0 -25 19 -25h43v-31h-206v31h42q21 0 21 25v276q0 22 -20 27l-26 6q-17 3 -17 17q0 6 3 9q65 16 128 73q18 0 18 -6q0 -3 -1 -13.5t-2.5 -32.5t-1.5 -52zM-6 538l-15 15q42 98 103 98q25 0 66 -25t64 -25q31 0 63 55l15 -14q-45 -98 -100 -98
q-24 0 -63.5 24.5t-65.5 24.5q-35 0 -67 -55z" />
    <glyph glyph-name="Imacron" unicode="&#x12a;" horiz-adv-x="357" 
d="M301 0h-245v31h62q12 0 12 17v594q0 16 -12 16h-62v32h245v-32h-62q-12 0 -12 -16v-594q0 -17 12 -17h62v-31zM55 827h246v-52h-246v52z" />
    <glyph glyph-name="imacron" unicode="&#x12b;" horiz-adv-x="268" 
d="M175 360v-304q0 -25 19 -25h43v-31h-206v31h42q21 0 21 25v276q0 22 -20 27l-26 6q-17 3 -17 17q0 6 3 9q65 16 128 73q18 0 18 -6q0 -3 -1 -13.5t-2.5 -32.5t-1.5 -52zM-4 620h246v-52h-246v52z" />
    <glyph glyph-name="Ibreve" unicode="&#x12c;" horiz-adv-x="357" 
d="M301 0h-245v31h62q12 0 12 17v594q0 16 -12 16h-62v32h245v-32h-62q-12 0 -12 -16v-594q0 -17 12 -17h62v-31zM282 865q0 -57 -30 -92.5t-74 -35.5t-74 35.5t-30 92.5h22q0 -37 25.5 -57t56.5 -20q30 0 56 20t26 57h22z" />
    <glyph glyph-name="ibreve" unicode="&#x12d;" horiz-adv-x="268" 
d="M175 360v-304q0 -25 19 -25h43v-31h-206v31h42q21 0 21 25v276q0 22 -20 27l-26 6q-17 3 -17 17q0 6 3 9q65 16 128 73q18 0 18 -6q0 -3 -1 -13.5t-2.5 -32.5t-1.5 -52zM231 669q0 -63 -27 -101t-77 -38t-77 38t-27 101h23q0 -40 25 -59t56 -19t56.5 19.5t25.5 58.5h22z
" />
    <glyph glyph-name="Iogonek" unicode="&#x12e;" horiz-adv-x="357" 
d="M301 0h-44q-52 -20 -81 -53t-29 -70q0 -61 66 -61q23 0 48 8q7 -1 7 -10q0 -16 -20.5 -30t-62.5 -14q-50 0 -75 23t-25 58q0 47 38 88.5t98 60.5h-165v31h62q12 0 12 17v594q0 16 -12 16h-62v32h245v-32h-62q-12 0 -12 -16v-594q0 -17 12 -17h62v-31z" />
    <glyph glyph-name="iogonek" unicode="&#x12f;" horiz-adv-x="268" 
d="M175 360v-304q0 -25 19 -25h43v-31h-32q-52 -20 -81 -53t-29 -70q0 -61 66 -61q23 0 48 8q7 -1 7 -10q0 -16 -20.5 -30t-62.5 -14q-50 0 -75 23t-25 58q0 47 38 88.5t98 60.5h-138v31h42q21 0 21 25v276q0 22 -20 27l-26 6q-17 3 -17 17q0 6 3 9q65 16 128 73q18 0 18 -6
q0 -3 -1 -13.5t-2.5 -32.5t-1.5 -52zM136 673q21 0 36 -15t15 -36t-15 -37t-36 -16t-37 16t-16 37q0 20 16 35.5t37 15.5z" />
    <glyph glyph-name="Idotaccent" unicode="&#x130;" horiz-adv-x="357" 
d="M301 0h-245v31h62q12 0 12 17v594q0 16 -12 16h-62v32h245v-32h-62q-12 0 -12 -16v-594q0 -17 12 -17h62v-31zM178 847q22 0 37.5 -15.5t15.5 -37.5q0 -21 -15.5 -35.5t-37.5 -14.5q-21 0 -36.5 14.5t-15.5 35.5q0 22 15.5 37.5t36.5 15.5z" />
    <glyph glyph-name="dotlessi" unicode="&#x131;" horiz-adv-x="268" 
d="M175 360v-304q0 -25 19 -25h43v-31h-206v31h42q21 0 21 25v276q0 22 -20 27l-26 6q-17 3 -17 17q0 6 3 9q65 16 128 73q18 0 18 -6q0 -3 -1 -13.5t-2.5 -32.5t-1.5 -52z" />
    <glyph glyph-name="IJ" unicode="&#x132;" horiz-adv-x="714" 
d="M301 0h-245v31h62q12 0 12 17v594q0 16 -12 16h-62v32h245v-32h-62q-12 0 -12 -16v-594q0 -17 12 -17h62v-31zM606 37q0 -98 -67.5 -174.5t-167.5 -76.5q-36 0 -54.5 17.5t-18.5 44.5q0 19 13.5 34.5t33.5 15.5q24 0 40 -24.5t39 -24.5q36 0 60.5 43.5t24.5 129.5v620
q0 16 -13 16h-61v32h244v-32h-61q-12 0 -12 -16v-605z" />
    <glyph glyph-name="ij" unicode="&#x133;" horiz-adv-x="536" 
d="M136 673q21 0 36 -15t15 -36t-15 -37t-36 -16t-37 16t-16 37q0 20 16 35.5t37 15.5zM175 360v-304q0 -25 19 -25h43v-31h-206v31h42q21 0 21 25v276q0 22 -20 27l-26 6q-17 3 -17 17q0 6 3 9q65 16 128 73q18 0 18 -6q0 -3 -1 -13.5t-2.5 -32.5t-1.5 -52zM331 365
q-17 5 -17 17q0 6 3 9q65 16 128 73q18 0 18 -6q0 -3 -1.5 -13.5t-2.5 -32.5t-1 -52v-321q0 -71 -31 -141t-82.5 -114.5t-106.5 -44.5q-29 0 -29 25q0 23 21.5 39.5t62.5 16.5q36 0 60 39.5t24 120.5v352q0 22 -20 27zM419 673q21 0 36 -15.5t15 -35.5q0 -21 -15 -37
t-36 -16t-37 16t-16 37q0 20 16 35.5t37 15.5z" />
    <glyph glyph-name="Jcircumflex" unicode="&#x134;" horiz-adv-x="334" 
d="M224 37q0 -98 -67.5 -174.5t-167.5 -76.5q-36 0 -54.5 17.5t-18.5 44.5q0 19 13.5 34.5t33.5 15.5q24 0 40 -24.5t39 -24.5q36 0 60.5 43.5t24.5 129.5v620q0 16 -13 16h-61v32h244v-32h-61q-12 0 -12 -16v-605zM174 807l-112 -88l-16 9l109 140q6 10 19 10t19 -10
l109 -140l-16 -9z" />
    <glyph glyph-name="jcircumflex" unicode="&#x135;" horiz-adv-x="249" 
d="M48 365q-17 5 -17 17q0 6 3 9q65 16 128 73q18 0 18 -6q0 -3 -1 -13.5t-2.5 -32.5t-1.5 -52v-321q0 -71 -31 -141t-82.5 -114.5t-106.5 -44.5q-29 0 -29 25q0 23 21.5 39.5t62.5 16.5q36 0 60 39.5t24 120.5v352q0 22 -20 27zM126 619l-112 -110l-17 9l110 178
q6 11 19 11t19 -11l111 -178l-18 -9z" />
    <glyph glyph-name="Kcommaaccent" unicode="&#x136;" horiz-adv-x="692" 
d="M227 346v-298q0 -17 12 -17h62v-31h-245v31h62q12 0 12 17v594q0 16 -12 16h-62v32h245v-32h-62q-12 0 -12 -16v-273q69 61 144 135.5t112 120.5q8 11 5 22t-15 11h-65v32h269v-32h-34q-27 0 -46 -17q-17 -14 -116 -103.5t-175 -147.5q154 -140 323 -344q14 -15 31 -15
h40v-31h-270v31h70q4 0 7.5 3t3.5 7q0 6 -13 21q-44 55 -135.5 149.5t-135.5 134.5zM320 -286v26q36 5 57.5 25t21.5 49q0 18 -9.5 27.5t-21.5 9.5q-20 0 -33 11.5t-13 30.5q0 20 13.5 34t32.5 14q30 0 53 -26.5t23 -66.5q0 -57 -34.5 -91.5t-89.5 -42.5z" />
    <glyph glyph-name="kcommaaccent" unicode="&#x137;" horiz-adv-x="525" 
d="M182 779q0 -2 -0.5 -12.5t-2 -31t-2.5 -51t-1.5 -82t-0.5 -114.5v-244q19 9 84 73.5t65 74.5q0 17 -20 17h-38v31h217v-31h-21q-30 0 -61 -24l-67.5 -58l-74.5 -63q50 -47 197 -219q9 -14 26 -14h22v-31h-197v31h28q15 0 15 14q0 10 -77.5 97t-97.5 89v-175q0 -25 19 -25
h29v-31h-192v31h42q21 0 21 25v599q0 25 -6.5 34.5t-21.5 14.5l-18 6q-17 5 -17 19q0 9 3 13q56 7 130 43q18 0 18 -6zM209 -286v26q36 5 57.5 25t21.5 49q0 18 -9.5 27.5t-21.5 9.5q-20 0 -33 11.5t-13 30.5q0 20 13.5 34t32.5 14q30 0 53 -26.5t23 -66.5
q0 -57 -34.5 -91.5t-89.5 -42.5z" />
    <glyph glyph-name="Lacute" unicode="&#x139;" horiz-adv-x="566" 
d="M227 45q133 1 204.5 23.5t102.5 90.5q26 0 26 -13q0 -9 -9.5 -55.5t-9.5 -68.5q0 -10 -6.5 -17t-14.5 -7q-3 0 -201.5 1t-262.5 1v31h62q12 0 12 17v594q0 16 -12 16h-62v32h249v-32h-66q-12 0 -12 -16v-597zM364 842l-164 -126l-21 6l115 141q13 17 52 17q31 0 31 -17
q0 -8 -13 -21z" />
    <glyph glyph-name="lacute" unicode="&#x13a;" horiz-adv-x="268" 
d="M182 779q0 -2 -0.5 -12.5t-2 -30.5t-2.5 -49t-1.5 -79t-0.5 -110v-442q0 -25 19 -25h43v-31h-206v31h42q21 0 21 25v599q0 25 -6.5 34.5t-21.5 14.5l-18 6q-17 5 -17 19q0 9 3 13q56 7 130 43q18 0 18 -6zM232 904l-164 -126l-21 6l115 141q13 17 52 17q31 0 31 -17
q0 -8 -13 -21z" />
    <glyph glyph-name="Lcommaaccent" unicode="&#x13b;" horiz-adv-x="566" 
d="M227 45q133 1 204.5 23.5t102.5 90.5q26 0 26 -13q0 -9 -9.5 -55.5t-9.5 -68.5q0 -10 -6.5 -17t-14.5 -7q-3 0 -201.5 1t-262.5 1v31h62q12 0 12 17v594q0 16 -12 16h-62v32h249v-32h-66q-12 0 -12 -16v-597zM246 -286v26q36 5 57.5 25t21.5 49q0 18 -9.5 27.5t-21.5 9.5
q-20 0 -33 11.5t-13 30.5q0 20 13.5 34t32.5 14q30 0 53 -26.5t23 -66.5q0 -57 -34.5 -91.5t-89.5 -42.5z" />
    <glyph glyph-name="lcommaaccent" unicode="&#x13c;" horiz-adv-x="268" 
d="M182 779q0 -2 -0.5 -12.5t-2 -30.5t-2.5 -49t-1.5 -79t-0.5 -110v-442q0 -25 19 -25h43v-31h-206v31h42q21 0 21 25v599q0 25 -6.5 34.5t-21.5 14.5l-18 6q-17 5 -17 19q0 9 3 13q56 7 130 43q18 0 18 -6zM78 -286v26q36 5 57.5 25t21.5 49q0 18 -9.5 27.5t-21.5 9.5
q-20 0 -33 11.5t-13 30.5q0 20 13.5 34t32.5 14q30 0 53 -26.5t23 -66.5q0 -57 -34.5 -91.5t-89.5 -42.5z" />
    <glyph glyph-name="Lcaron" unicode="&#x13d;" horiz-adv-x="566" 
d="M227 45q133 1 204.5 23.5t102.5 90.5q26 0 26 -13q0 -9 -9.5 -55.5t-9.5 -68.5q0 -10 -6.5 -17t-14.5 -7q-3 0 -201.5 1t-262.5 1v31h62q12 0 12 17v594q0 16 -12 16h-62v32h249v-32h-66q-12 0 -12 -16v-597zM355 720q0 31 40 31q28 0 37 -11.5t1 -40.5l-51 -174h-27v195
z" />
    <glyph glyph-name="lcaron" unicode="&#x13e;" horiz-adv-x="268" 
d="M182 779q0 -2 -0.5 -12.5t-2 -30.5t-2.5 -49t-1.5 -79t-0.5 -110v-442q0 -25 19 -25h43v-31h-206v31h42q21 0 21 25v599q0 25 -6.5 34.5t-21.5 14.5l-18 6q-17 5 -17 19q0 9 3 13q56 7 130 43q18 0 18 -6zM233 760q0 31 40 31q28 0 37 -11.5t1 -40.5l-51 -174h-27v195z
" />
    <glyph glyph-name="Ldotaccent" unicode="&#x13f;" horiz-adv-x="0" 
 />
    <glyph glyph-name="ldotaccent" unicode="&#x140;" horiz-adv-x="0" 
 />
    <glyph glyph-name="Lslash" unicode="&#x141;" horiz-adv-x="565" 
d="M129 252l-87 -56v57l87 56v333q0 16 -13 16h-61v32h249v-32h-66q-12 0 -12 -16v-273l190 120v-57l-190 -120v-267q133 1 204.5 23.5t101.5 90.5q26 0 26 -13q0 -9 -9 -55.5t-9 -68.5q0 -10 -6.5 -17t-14.5 -7q-3 0 -201.5 1t-262.5 1v31h61q13 0 13 17v204z" />
    <glyph glyph-name="lslash" unicode="&#x142;" horiz-adv-x="268" 
d="M94 315l-73 -77v57l73 77v283q0 25 -6.5 34.5t-21.5 14.5l-18 6q-17 5 -17 19q0 9 3 13q56 7 130 43q18 0 18 -6q0 -2 -0.5 -12.5t-2 -30.5t-2.5 -49t-1.5 -79t-0.5 -110v-40l74 78v-58l-74 -78v-344q0 -25 19 -25h43v-31h-206v31h42q21 0 21 25v259z" />
    <glyph glyph-name="Nacute" unicode="&#x143;" horiz-adv-x="803" 
d="M633 150q0 270 -5 458q-1 32 -9 41t-36 9h-34v32h211v-32h-35q-22 0 -27.5 -8.5t-6.5 -40.5q-6 -248 -6 -620h-50l-452 624q0 -352 4 -532q1 -32 9.5 -41t36.5 -9h34v-31h-211v31h31q23 0 30.5 9.5t8.5 39.5q4 189 4 562q0 16 -11 16h-63v32h192zM540 842l-164 -126
l-21 6l115 141q13 17 52 17q31 0 31 -17q0 -8 -13 -21z" />
    <glyph glyph-name="nacute" unicode="&#x144;" horiz-adv-x="567" 
d="M175 371q25 43 69 67t92 24q61 0 102 -38.5t41 -110.5v-257q0 -25 20 -25h42v-31h-213v31h50q20 0 20 25v232q0 53 -30.5 79.5t-75.5 26.5q-46 0 -81.5 -25.5t-35.5 -66.5v-246q0 -25 19 -25h50v-31h-213v31h42q21 0 21 25v276q0 22 -20 27l-26 6q-17 4 -17 17q0 6 3 9
q34 8 67.5 28.5t55.5 44.5q18 0 18 -6v-87zM407 661l-164 -159l-21 9l115 176q13 20 52 20q31 0 31 -20q0 -11 -13 -26z" />
    <glyph glyph-name="Ncommaaccent" unicode="&#x145;" horiz-adv-x="803" 
d="M633 150q0 270 -5 458q-1 32 -9 41t-36 9h-34v32h211v-32h-35q-22 0 -27.5 -8.5t-6.5 -40.5q-6 -248 -6 -620h-50l-452 624q0 -352 4 -532q1 -32 9.5 -41t36.5 -9h34v-31h-211v31h31q23 0 30.5 9.5t8.5 39.5q4 189 4 562q0 16 -11 16h-63v32h192zM372 -286v26
q36 5 57.5 25t21.5 49q0 18 -9.5 27.5t-21.5 9.5q-20 0 -33 11.5t-13 30.5q0 20 13.5 34t32.5 14q30 0 53 -26.5t23 -66.5q0 -57 -34.5 -91.5t-89.5 -42.5z" />
    <glyph glyph-name="ncommaaccent" unicode="&#x146;" horiz-adv-x="567" 
d="M175 371q25 43 69 67t92 24q61 0 102 -38.5t41 -110.5v-257q0 -25 20 -25h42v-31h-213v31h50q20 0 20 25v232q0 53 -30.5 79.5t-75.5 26.5q-46 0 -81.5 -25.5t-35.5 -66.5v-246q0 -25 19 -25h50v-31h-213v31h42q21 0 21 25v276q0 22 -20 27l-26 6q-17 4 -17 17q0 6 3 9
q34 8 67.5 28.5t55.5 44.5q18 0 18 -6v-87zM231 -286v26q36 5 57.5 25t21.5 49q0 18 -9.5 27.5t-21.5 9.5q-20 0 -33 11.5t-13 30.5q0 20 13.5 34t32.5 14q30 0 53 -26.5t23 -66.5q0 -57 -34.5 -91.5t-89.5 -42.5z" />
    <glyph glyph-name="Ncaron" unicode="&#x147;" horiz-adv-x="803" 
d="M633 150q0 270 -5 458q-1 32 -9 41t-36 9h-34v32h211v-32h-35q-22 0 -27.5 -8.5t-6.5 -40.5q-6 -248 -6 -620h-50l-452 624q0 -352 4 -532q1 -32 9.5 -41t36.5 -9h34v-31h-211v31h31q23 0 30.5 9.5t8.5 39.5q4 189 4 562q0 16 -11 16h-63v32h192zM412 788l111 89l16 -10
l-109 -140q-6 -9 -18 -9q-14 0 -20 9l-109 140l16 10z" />
    <glyph glyph-name="ncaron" unicode="&#x148;" horiz-adv-x="567" 
d="M175 371q25 43 69 67t92 24q61 0 102 -38.5t41 -110.5v-257q0 -25 20 -25h42v-31h-213v31h50q20 0 20 25v232q0 53 -30.5 79.5t-75.5 26.5q-46 0 -81.5 -25.5t-35.5 -66.5v-246q0 -25 19 -25h50v-31h-213v31h42q21 0 21 25v276q0 22 -20 27l-26 6q-17 4 -17 17q0 6 3 9
q34 8 67.5 28.5t55.5 44.5q18 0 18 -6v-87zM283 596l111 110l18 -9l-111 -178q-6 -11 -18 -11q-14 0 -20 11l-110 178l17 9z" />
    <glyph glyph-name="napostrophe" unicode="&#x149;" horiz-adv-x="567" 
d="M175 371q25 43 69 67t92 24q61 0 102 -38.5t41 -110.5v-257q0 -25 20 -25h42v-31h-213v31h50q20 0 20 25v232q0 53 -30.5 79.5t-75.5 26.5q-46 0 -81.5 -25.5t-35.5 -66.5v-246q0 -25 19 -25h50v-31h-213v31h42q21 0 21 25v276q0 22 -20 27l-26 6q-17 4 -17 17q0 6 3 9
q34 8 67.5 28.5t55.5 44.5q18 0 18 -6v-87zM84 720q0 31 40 31q28 0 37 -11.5t1 -40.5l-51 -174h-27v195z" />
    <glyph glyph-name="Eng" unicode="&#x14a;" horiz-adv-x="803" 
d="M500 -195v32q43 1 72.5 23.5t39.5 54t6 67t-23 61.5l-412 570q0 -352 4 -532q1 -32 9.5 -41t36.5 -9h34v-31h-211v31h31q23 0 30.5 9.5t8.5 39.5q4 189 4 562q0 16 -11 16h-63v32h192l385 -540q0 270 -5 458q-1 32 -9 41t-36 9h-34v32h211v-32h-35q-22 0 -27.5 -8.5
t-6.5 -40.5q-6 -230 -6 -655q0 -81 -45 -116t-140 -33z" />
    <glyph glyph-name="eng" unicode="&#x14b;" horiz-adv-x="567" 
d="M303 -162v32q28 1 46.5 11t28 22t14.5 38.5t5.5 44t0.5 56.5v14v232q0 53 -30.5 79.5t-75.5 26.5q-46 0 -81.5 -25.5t-35.5 -66.5v-246q0 -25 19 -25h50v-31h-213v31h42q21 0 21 25v276q0 22 -20 27l-26 6q-17 4 -17 17q0 6 3 9q34 8 67.5 28.5t55.5 44.5q18 0 18 -6v-87
q25 43 69 67t92 24q61 0 102 -38.5t41 -110.5v-257q0 -209 -176 -218z" />
    <glyph glyph-name="Omacron" unicode="&#x14c;" horiz-adv-x="863" 
d="M807 341q0 -147 -110 -252t-265 -105t-265.5 105t-110.5 252q0 149 111 257.5t265 108.5q155 0 265 -108.5t110 -257.5zM166 341q0 -134 76 -222.5t190 -88.5t189.5 88.5t75.5 222.5q0 135 -76 226t-189 91q-114 0 -190 -91t-76 -226zM308 827h246v-52h-246v52z" />
    <glyph glyph-name="omacron" unicode="&#x14d;" horiz-adv-x="562" 
d="M281 462q98 0 168.5 -70.5t70.5 -169.5q0 -100 -70.5 -169.5t-168.5 -69.5t-168.5 69.5t-70.5 169.5q0 99 70.5 169.5t168.5 70.5zM281 415q-68 0 -105.5 -50t-37.5 -143q0 -94 37.5 -143t105.5 -49t105 49.5t37 142.5t-37.5 143t-104.5 50zM158 620h246v-52h-246v52z
" />
    <glyph glyph-name="Obreve" unicode="&#x14e;" horiz-adv-x="863" 
d="M807 341q0 -147 -110 -252t-265 -105t-265.5 105t-110.5 252q0 149 111 257.5t265 108.5q155 0 265 -108.5t110 -257.5zM166 341q0 -134 76 -222.5t190 -88.5t189.5 88.5t75.5 222.5q0 135 -76 226t-189 91q-114 0 -190 -91t-76 -226zM535 865q0 -57 -30 -92.5t-74 -35.5
t-74 35.5t-30 92.5h22q0 -37 25.5 -57t56.5 -20q30 0 56 20t26 57h22z" />
    <glyph glyph-name="obreve" unicode="&#x14f;" horiz-adv-x="562" 
d="M281 462q98 0 168.5 -70.5t70.5 -169.5q0 -100 -70.5 -169.5t-168.5 -69.5t-168.5 69.5t-70.5 169.5q0 99 70.5 169.5t168.5 70.5zM281 415q-68 0 -105.5 -50t-37.5 -143q0 -94 37.5 -143t105.5 -49t105 49.5t37 142.5t-37.5 143t-104.5 50zM385 669q0 -63 -27 -101
t-77 -38t-77 38t-27 101h23q0 -40 25 -59t56 -19t56.5 19.5t25.5 58.5h22z" />
    <glyph glyph-name="Ohungarumlaut" unicode="&#x150;" horiz-adv-x="863" 
d="M807 341q0 -147 -110 -252t-265 -105t-265.5 105t-110.5 252q0 149 111 257.5t265 108.5q155 0 265 -108.5t110 -257.5zM166 341q0 -134 76 -222.5t190 -88.5t189.5 88.5t75.5 222.5q0 135 -76 226t-189 91q-114 0 -190 -91t-76 -226zM468 852l-134 -126l-18 6l95 141
q11 17 43 17q25 0 25 -17q0 -6 -11 -21zM595 852l-133 -126l-18 6l95 141q9 17 42 17q26 0 26 -17q0 -7 -12 -21z" />
    <glyph glyph-name="ohungarumlaut" unicode="&#x151;" horiz-adv-x="562" 
d="M281 462q98 0 168.5 -70.5t70.5 -169.5q0 -100 -70.5 -169.5t-168.5 -69.5t-168.5 69.5t-70.5 169.5q0 99 70.5 169.5t168.5 70.5zM281 415q-68 0 -105.5 -50t-37.5 -143q0 -94 37.5 -143t105.5 -49t105 49.5t37 142.5t-37.5 143t-104.5 50zM440 661l-133 -159l-19 9
l95 176q11 20 43 20q26 0 26 -20q0 -8 -12 -26zM318 661l-133 -159l-17 9l93 176q11 20 43 20q26 0 26 -20q0 -13 -12 -26z" />
    <glyph glyph-name="OE" unicode="&#x152;" horiz-adv-x="1128" 
d="M631 43q259 4 317 16t85 49q9 14 23 41q26 0 26 -12q0 -10 -9.5 -55.5t-9.5 -59.5q0 -10 -6 -17t-15 -7l-212 1q-211 1 -288 1q-59 -16 -110 -16q-155 0 -265.5 105t-110.5 252q0 149 111 257.5t265 108.5q59 0 113 -17q67 0 263.5 1.5t200.5 1.5q23 0 23 -22
q0 -15 3 -52t3 -53q0 -11 -24 -11q-16 49 -40 64q-35 23 -170 28q-50 2 -179 4q70 -44 113.5 -116t51.5 -157q43 1 67 1.5t46 2.5t31.5 4t17 7.5t10 11.5t3.5 17l3 30q31 0 31 -8q0 -15 -1 -41.5t-1 -42.5t1 -46t1 -45q0 -11 -31 -11l-4 31q-3 22 -14 31t-45 13t-113 5
q-1 -91 -43.5 -168.5t-117.5 -126.5zM166 341q0 -134 76 -222.5t190 -88.5t189.5 88.5t75.5 222.5q0 135 -76 226t-189 91q-114 0 -190 -91t-76 -226z" />
    <glyph glyph-name="oe" unicode="&#x153;" horiz-adv-x="855" 
d="M463 70q-77 -87 -181 -87q-98 0 -169 69.5t-71 169.5q0 99 71 169.5t169 70.5q111 0 187 -99q69 99 196 99q68 0 108 -41t40 -100q0 -29 -28 -29h-287q-6 -27 -6 -56q0 -81 46 -123.5t117 -42.5q88 0 132 53q20 0 20 -17q0 -30 -48 -76.5t-120 -46.5q-116 0 -176 87z
M282 415q-68 0 -105.5 -50t-37.5 -143q0 -94 37.5 -143t105.5 -49q67 0 103.5 49t36.5 143q0 93 -36.5 143t-103.5 50zM509 328q77 2 118.5 4.5t64 8t28 11t5.5 17.5q0 21 -19.5 34t-55.5 13q-45 0 -84.5 -25t-56.5 -63z" />
    <glyph glyph-name="Racute" unicode="&#x154;" horiz-adv-x="660" 
d="M225 341q100 1 152.5 35.5t52.5 119.5q0 79 -45 116t-160 37v-308zM56 0v31h59q13 0 13 17v594q0 16 -13 16h-59v32h228q72 0 124 -18t78.5 -48.5t38.5 -62t12 -65.5q0 -61 -40 -105.5t-108 -62.5q50 -67 162 -195q96 -102 151 -102q-3 -31 -10 -31h-122q-30 0 -111 93
t-171 217q-8 0 -20 -1t-22.5 -1.5t-20.5 -0.5v-259q0 -17 11 -17h74v-31h-254zM425 842l-164 -126l-21 6l115 141q13 17 52 17q31 0 31 -17q0 -8 -13 -21z" />
    <glyph glyph-name="racute" unicode="&#x155;" horiz-adv-x="362" 
d="M34 391q33 8 67 28.5t56 44.5q18 0 18 -6v-98q52 100 132 100q23 0 39 -17.5t16 -43.5q0 -58 -48 -58q-19 0 -33.5 19.5t-34.5 19.5q-27 0 -49 -30t-22 -72v-222q0 -25 19 -25h76v-31h-239v31h42q21 0 21 25v276q0 22 -20 27l-26 6q-17 4 -17 17q0 6 3 9zM355 661
l-164 -159l-21 9l115 176q13 20 52 20q31 0 31 -20q0 -11 -13 -26z" />
    <glyph glyph-name="Rcommaaccent" unicode="&#x156;" horiz-adv-x="660" 
d="M225 341q100 1 152.5 35.5t52.5 119.5q0 79 -45 116t-160 37v-308zM56 0v31h59q13 0 13 17v594q0 16 -13 16h-59v32h228q72 0 124 -18t78.5 -48.5t38.5 -62t12 -65.5q0 -61 -40 -105.5t-108 -62.5q50 -67 162 -195q96 -102 151 -102q-3 -31 -10 -31h-122q-30 0 -111 93
t-171 217q-8 0 -20 -1t-22.5 -1.5t-20.5 -0.5v-259q0 -17 11 -17h74v-31h-254zM316 -286v26q36 5 57.5 25t21.5 49q0 18 -9.5 27.5t-21.5 9.5q-20 0 -33 11.5t-13 30.5q0 20 13.5 34t32.5 14q30 0 53 -26.5t23 -66.5q0 -57 -34.5 -91.5t-89.5 -42.5z" />
    <glyph glyph-name="rcommaaccent" unicode="&#x157;" horiz-adv-x="362" 
d="M34 391q33 8 67 28.5t56 44.5q18 0 18 -6v-98q52 100 132 100q23 0 39 -17.5t16 -43.5q0 -58 -48 -58q-19 0 -33.5 19.5t-34.5 19.5q-27 0 -49 -30t-22 -72v-222q0 -25 19 -25h76v-31h-239v31h42q21 0 21 25v276q0 22 -20 27l-26 6q-17 4 -17 17q0 6 3 9zM83 -286v26
q36 5 57.5 25t21.5 49q0 18 -9.5 27.5t-21.5 9.5q-20 0 -33 11.5t-13 30.5q0 20 13.5 34t32.5 14q30 0 53 -26.5t23 -66.5q0 -57 -34.5 -91.5t-89.5 -42.5z" />
    <glyph glyph-name="Rcaron" unicode="&#x158;" horiz-adv-x="660" 
d="M225 341q100 1 152.5 35.5t52.5 119.5q0 79 -45 116t-160 37v-308zM56 0v31h59q13 0 13 17v594q0 16 -13 16h-59v32h228q72 0 124 -18t78.5 -48.5t38.5 -62t12 -65.5q0 -61 -40 -105.5t-108 -62.5q50 -67 162 -195q96 -102 151 -102q-3 -31 -10 -31h-122q-30 0 -111 93
t-171 217q-8 0 -20 -1t-22.5 -1.5t-20.5 -0.5v-259q0 -17 11 -17h74v-31h-254zM296 788l111 89l16 -10l-109 -140q-6 -9 -18 -9q-14 0 -20 9l-109 140l16 10z" />
    <glyph glyph-name="rcaron" unicode="&#x159;" horiz-adv-x="362" 
d="M34 391q33 8 67 28.5t56 44.5q18 0 18 -6v-98q52 100 132 100q23 0 39 -17.5t16 -43.5q0 -58 -48 -58q-19 0 -33.5 19.5t-34.5 19.5q-27 0 -49 -30t-22 -72v-222q0 -25 19 -25h76v-31h-239v31h42q21 0 21 25v276q0 22 -20 27l-26 6q-17 4 -17 17q0 6 3 9zM216 596
l111 110l18 -9l-111 -178q-6 -11 -18 -11q-14 0 -20 11l-110 178l17 9z" />
    <glyph glyph-name="Sacute" unicode="&#x15a;" horiz-adv-x="522" 
d="M439 642l3 -88q0 -16 -25 -16q-15 53 -49.5 87t-88.5 34q-57 0 -88 -33t-31 -85q0 -20 7.5 -38t15 -29t30.5 -27.5t33 -23t44 -26.5q93 -56 128.5 -101.5t35.5 -113.5q0 -95 -64.5 -146.5t-159.5 -51.5q-56 0 -98.5 12.5t-60.5 27.5t-19 29l-5 98q-1 8 6.5 11.5t18.5 3.5
q20 -56 63 -95t104 -39q57 0 93 32t36 91q0 51 -26.5 81t-110.5 79q-78 45 -115 90.5t-37 117.5q0 66 56.5 125t147.5 59q66 0 110.5 -19t45.5 -46zM380 850l-164 -126l-21 6l115 141q13 17 52 17q31 0 31 -17q0 -8 -13 -21z" />
    <glyph glyph-name="sacute" unicode="&#x15b;" 
d="M203 462q45 0 77 -15t32 -32v-80q0 -12 -25 -12q-14 50 -35.5 72t-54.5 22q-34 0 -53 -19t-19 -45q0 -31 19.5 -47.5t70.5 -39.5q56 -26 83.5 -58.5t27.5 -83.5q0 -64 -43 -102.5t-110 -38.5q-57 0 -90.5 15.5t-33.5 33.5v80q0 15 25 15q14 -51 38 -75t64 -24
q37 0 59 19.5t22 50.5q0 34 -18.5 51t-72.5 41q-55 26 -81.5 57.5t-26.5 79.5q0 54 39.5 94.5t105.5 40.5zM313 661l-164 -159l-21 9l115 176q13 20 52 20q31 0 31 -20q0 -11 -13 -26z" />
    <glyph glyph-name="Scircumflex" unicode="&#x15c;" horiz-adv-x="522" 
d="M439 642l3 -88q0 -16 -25 -16q-15 53 -49.5 87t-88.5 34q-57 0 -88 -33t-31 -85q0 -20 7.5 -38t15 -29t30.5 -27.5t33 -23t44 -26.5q93 -56 128.5 -101.5t35.5 -113.5q0 -95 -64.5 -146.5t-159.5 -51.5q-56 0 -98.5 12.5t-60.5 27.5t-19 29l-5 98q-1 8 6.5 11.5t18.5 3.5
q20 -56 63 -95t104 -39q57 0 93 32t36 91q0 51 -26.5 81t-110.5 79q-78 45 -115 90.5t-37 117.5q0 66 56.5 125t147.5 59q66 0 110.5 -19t45.5 -46zM286 807l-112 -88l-16 9l109 140q6 10 19 10t19 -10l109 -140l-16 -9z" />
    <glyph glyph-name="scircumflex" unicode="&#x15d;" 
d="M203 462q45 0 77 -15t32 -32v-80q0 -12 -25 -12q-14 50 -35.5 72t-54.5 22q-34 0 -53 -19t-19 -45q0 -31 19.5 -47.5t70.5 -39.5q56 -26 83.5 -58.5t27.5 -83.5q0 -64 -43 -102.5t-110 -38.5q-57 0 -90.5 15.5t-33.5 33.5v80q0 15 25 15q14 -51 38 -75t64 -24
q37 0 59 19.5t22 50.5q0 34 -18.5 51t-72.5 41q-55 26 -81.5 57.5t-26.5 79.5q0 54 39.5 94.5t105.5 40.5zM203 619l-112 -110l-17 9l110 178q6 11 19 11t19 -11l111 -178l-18 -9z" />
    <glyph glyph-name="Scedilla" unicode="&#x15e;" horiz-adv-x="522" 
d="M225 -60q59 0 89.5 -24t30.5 -68q0 -51 -39.5 -76.5t-97.5 -25.5q-42 0 -60 12t-18 29q0 7 3 12q27 -11 63 -11q76 0 76 57q0 28 -16 45t-49 17q-18 0 -36 -8q-13 0 -13 14q0 5 4 9l83 63q-3 0 -8 -0.5t-7 -0.5q-56 0 -98.5 12.5t-60.5 27.5t-19 29l-5 98q-1 8 6.5 11.5
t18.5 3.5q20 -56 63 -95t104 -39q57 0 93 32t36 91q0 51 -26.5 81t-110.5 79q-78 45 -115 90.5t-37 117.5q0 66 56.5 125t147.5 59q66 0 110.5 -19t45.5 -46l3 -88q0 -16 -25 -16q-15 53 -49.5 87t-88.5 34q-57 0 -88 -33t-31 -85q0 -20 7.5 -38t15 -29t30.5 -27.5t33 -23
t44 -26.5q93 -56 128.5 -101.5t35.5 -113.5q0 -76 -41.5 -124t-110.5 -65z" />
    <glyph glyph-name="scedilla" unicode="&#x15f;" 
d="M141 -60q59 0 89.5 -24t30.5 -68q0 -51 -39.5 -76.5t-97.5 -25.5q-42 0 -60 12t-18 29q0 7 3 12q28 -11 63 -11q76 0 76 57q0 28 -16 45t-49 17q-18 0 -36 -8q-13 0 -13 14q0 5 4 9l81 61q-52 2 -81 17t-29 32v80q0 15 25 15q14 -51 38 -75t64 -24q37 0 59 19.5t22 50.5
q0 34 -18.5 51t-72.5 41q-55 26 -81.5 57.5t-26.5 79.5q0 54 39.5 94.5t105.5 40.5q45 0 77 -15t32 -32v-80q0 -12 -25 -12q-14 50 -35.5 72t-54.5 22q-34 0 -53 -19t-19 -45q0 -31 19.5 -47.5t70.5 -39.5q56 -26 83.5 -58.5t27.5 -83.5q0 -55 -32.5 -91.5t-84.5 -46.5z" />
    <glyph glyph-name="Scaron" unicode="&#x160;" horiz-adv-x="522" 
d="M439 642l3 -88q0 -16 -25 -16q-15 53 -49.5 87t-88.5 34q-57 0 -88 -33t-31 -85q0 -20 7.5 -38t15 -29t30.5 -27.5t33 -23t44 -26.5q93 -56 128.5 -101.5t35.5 -113.5q0 -95 -64.5 -146.5t-159.5 -51.5q-56 0 -98.5 12.5t-60.5 27.5t-19 29l-5 98q-1 8 6.5 11.5t18.5 3.5
q20 -56 63 -95t104 -39q57 0 93 32t36 91q0 51 -26.5 81t-110.5 79q-78 45 -115 90.5t-37 117.5q0 66 56.5 125t147.5 59q66 0 110.5 -19t45.5 -46zM280 798l111 89l16 -10l-109 -140q-6 -9 -18 -9q-14 0 -20 9l-109 140l16 10z" />
    <glyph glyph-name="scaron" unicode="&#x161;" 
d="M203 462q45 0 77 -15t32 -32v-80q0 -12 -25 -12q-14 50 -35.5 72t-54.5 22q-34 0 -53 -19t-19 -45q0 -31 19.5 -47.5t70.5 -39.5q56 -26 83.5 -58.5t27.5 -83.5q0 -64 -43 -102.5t-110 -38.5q-57 0 -90.5 15.5t-33.5 33.5v80q0 15 25 15q14 -51 38 -75t64 -24
q37 0 59 19.5t22 50.5q0 34 -18.5 51t-72.5 41q-55 26 -81.5 57.5t-26.5 79.5q0 54 39.5 94.5t105.5 40.5zM193 596l111 110l18 -9l-111 -178q-6 -11 -18 -11q-14 0 -20 11l-110 178l17 9z" />
    <glyph glyph-name="Tcommaaccent" unicode="&#x162;" horiz-adv-x="623" 
d="M353 653v-605q0 -17 13 -17h66v-31h-254v31h66q13 0 13 17v605q-70 -2 -103 -5.5t-60 -17.5t-39 -31.5t-34 -59.5q-21 0 -21 10q0 4 1.5 18t3.5 40.5t2 62.5q0 11 4.5 15.5t18.5 4.5h563q23 0 23 -20q0 -36 2 -62.5t3.5 -40.5t1.5 -18q0 -10 -22 -10q-28 54 -50 74
t-62 28.5t-136 11.5zM251 -286v26q36 5 57.5 25t21.5 49q0 18 -9.5 27.5t-21.5 9.5q-20 0 -33 11.5t-13 30.5q0 20 13.5 34t32.5 14q30 0 53 -26.5t23 -66.5q0 -57 -34.5 -91.5t-89.5 -42.5z" />
    <glyph glyph-name="tcommaaccent" unicode="&#x163;" horiz-adv-x="320" 
d="M86 390h-65v21q38 8 75 53t53 105q18 0 18 -9v-120h131v-50h-131v-257q0 -87 67 -87q43 0 58 24q16 0 16 -13q0 -7 -4.5 -18t-15 -24.5t-32.5 -22.5t-52 -9q-55 0 -86.5 34t-31.5 101v272zM126 -286v26q36 5 57.5 25t21.5 49q0 18 -9.5 27.5t-21.5 9.5q-20 0 -33 11.5
t-13 30.5q0 20 13.5 34t32.5 14q30 0 53 -26.5t23 -66.5q0 -57 -34.5 -91.5t-89.5 -42.5z" />
    <glyph glyph-name="Tcaron" unicode="&#x164;" horiz-adv-x="623" 
d="M353 653v-605q0 -17 13 -17h66v-31h-254v31h66q13 0 13 17v605q-70 -2 -103 -5.5t-60 -17.5t-39 -31.5t-34 -59.5q-21 0 -21 10q0 4 1.5 18t3.5 40.5t2 62.5q0 11 4.5 15.5t18.5 4.5h563q23 0 23 -20q0 -36 2 -62.5t3.5 -40.5t1.5 -18q0 -10 -22 -10q-28 54 -50 74
t-62 28.5t-136 11.5zM312 788l111 89l16 -10l-109 -140q-6 -9 -18 -9q-14 0 -20 9l-109 140l16 10z" />
    <glyph glyph-name="tcaron" unicode="&#x165;" horiz-adv-x="320" 
d="M86 390h-65v21q38 8 75 53t53 105q18 0 18 -9v-120h131v-50h-131v-257q0 -87 67 -87q43 0 58 24q16 0 16 -13q0 -7 -4.5 -18t-15 -24.5t-32.5 -22.5t-52 -9q-55 0 -86.5 34t-31.5 101v272zM239 720q0 31 40 31q28 0 37 -11.5t1 -40.5l-51 -174h-27v195z" />
    <glyph glyph-name="Tbar" unicode="&#x166;" horiz-adv-x="623" 
d="M130 342h127v311q-70 -2 -103 -5.5t-60 -17.5t-39 -31.5t-34 -59.5q-21 0 -21 10q0 4 1.5 18t3.5 40.5t2 62.5q0 11 4.5 15.5t18.5 4.5h563q23 0 23 -20q0 -36 2 -62.5t3.5 -40.5t1.5 -18q0 -10 -22 -10q-28 54 -50 74t-62 28.5t-136 11.5v-311h125v-37h-125v-257
q0 -17 13 -17h66v-31h-254v31h66q13 0 13 17v257h-127v37z" />
    <glyph glyph-name="tbar" unicode="&#x167;" horiz-adv-x="320" 
d="M21 271h65v119h-65v21q38 8 75 53t53 105q18 0 18 -9v-120h131v-50h-131v-119h133v-44h-133v-94q0 -87 67 -87q43 0 58 24q16 0 16 -13q0 -7 -4.5 -18t-15 -24.5t-32.5 -22.5t-52 -9q-55 0 -86.5 34t-31.5 101v109h-65v44z" />
    <glyph glyph-name="Utilde" unicode="&#x168;" horiz-adv-x="773" 
d="M597 609q0 28 -10 38.5t-37 10.5h-42v32h227v-32h-30q-26 0 -35.5 -10.5t-9.5 -34.5v-371q0 -123 -80.5 -193t-191.5 -70q-116 0 -195.5 68t-79.5 195v400q0 16 -13 16h-62v32h262v-32h-80q-11 0 -11 -16v-389q0 -104 55 -159.5t143 -55.5q83 0 136.5 52t53.5 152v367z
M276 744l-14 14q39 89 92 89q24 0 61 -23t57 -23q31 0 57 50l13 -14q-39 -88 -89 -88q-22 0 -58 22.5t-59 22.5q-32 0 -60 -50z" />
    <glyph glyph-name="utilde" unicode="&#x169;" horiz-adv-x="565" 
d="M395 -7l-6 78q-21 -41 -65 -64t-92 -23q-60 0 -102 38.5t-42 110.5v251q0 25 -19 25h-42v31h143v-282q0 -53 30.5 -79.5t75.5 -26.5q47 0 80 24t33 64v244q0 25 -20 25h-50v31h151v-355q0 -25 20 -25h50v-25zM143 538l-15 15q42 98 103 98q25 0 66 -25t64 -25q31 0 63 55
l15 -14q-45 -98 -100 -98q-24 0 -63.5 24.5t-65.5 24.5q-35 0 -67 -55z" />
    <glyph glyph-name="Umacron" unicode="&#x16a;" horiz-adv-x="773" 
d="M597 609q0 28 -10 38.5t-37 10.5h-42v32h227v-32h-30q-26 0 -35.5 -10.5t-9.5 -34.5v-371q0 -123 -80.5 -193t-191.5 -70q-116 0 -195.5 68t-79.5 195v400q0 16 -13 16h-62v32h262v-32h-80q-11 0 -11 -16v-389q0 -104 55 -159.5t143 -55.5q83 0 136.5 52t53.5 152v367z
M275 827h246v-52h-246v52z" />
    <glyph glyph-name="umacron" unicode="&#x16b;" horiz-adv-x="565" 
d="M395 -7l-6 78q-21 -41 -65 -64t-92 -23q-60 0 -102 38.5t-42 110.5v251q0 25 -19 25h-42v31h143v-282q0 -53 30.5 -79.5t75.5 -26.5q47 0 80 24t33 64v244q0 25 -20 25h-50v31h151v-355q0 -25 20 -25h50v-25zM160 620h246v-52h-246v52z" />
    <glyph glyph-name="Ubreve" unicode="&#x16c;" horiz-adv-x="773" 
d="M597 609q0 28 -10 38.5t-37 10.5h-42v32h227v-32h-30q-26 0 -35.5 -10.5t-9.5 -34.5v-371q0 -123 -80.5 -193t-191.5 -70q-116 0 -195.5 68t-79.5 195v400q0 16 -13 16h-62v32h262v-32h-80q-11 0 -11 -16v-389q0 -104 55 -159.5t143 -55.5q83 0 136.5 52t53.5 152v367z
M490 865q0 -57 -30 -92.5t-74 -35.5t-74 35.5t-30 92.5h22q0 -37 25.5 -57t56.5 -20q30 0 56 20t26 57h22z" />
    <glyph glyph-name="ubreve" unicode="&#x16d;" horiz-adv-x="565" 
d="M395 -7l-6 78q-21 -41 -65 -64t-92 -23q-60 0 -102 38.5t-42 110.5v251q0 25 -19 25h-42v31h143v-282q0 -53 30.5 -79.5t75.5 -26.5q47 0 80 24t33 64v244q0 25 -20 25h-50v31h151v-355q0 -25 20 -25h50v-25zM383 669q0 -63 -27 -101t-77 -38t-77 38t-27 101h23
q0 -40 25 -59t56 -19t56.5 19.5t25.5 58.5h22z" />
    <glyph glyph-name="Uring" unicode="&#x16e;" horiz-adv-x="773" 
d="M597 609q0 28 -10 38.5t-37 10.5h-42v32h227v-32h-30q-26 0 -35.5 -10.5t-9.5 -34.5v-371q0 -123 -80.5 -193t-191.5 -70q-116 0 -195.5 68t-79.5 195v400q0 16 -13 16h-62v32h262v-32h-80q-11 0 -11 -16v-389q0 -104 55 -159.5t143 -55.5q83 0 136.5 52t53.5 152v367z
M403 909q43 0 73.5 -28.5t30.5 -68.5t-30.5 -68t-73.5 -28q-44 0 -74 28t-30 68t30.5 68.5t73.5 28.5zM403 867q-26 0 -44.5 -16.5t-18.5 -41.5q0 -24 18.5 -41t44.5 -17t44 17t18 41q0 25 -18 41.5t-44 16.5z" />
    <glyph glyph-name="uring" unicode="&#x16f;" horiz-adv-x="565" 
d="M395 -7l-6 78q-21 -41 -65 -64t-92 -23q-60 0 -102 38.5t-42 110.5v251q0 25 -19 25h-42v31h143v-282q0 -53 30.5 -79.5t75.5 -26.5q47 0 80 24t33 64v244q0 25 -20 25h-50v31h151v-355q0 -25 20 -25h50v-25zM276 725q43 0 73.5 -30t30.5 -73t-30.5 -73t-73.5 -30
t-73.5 30t-30.5 73t30.5 73t73.5 30zM276 681q-26 0 -44.5 -18t-18.5 -44t18.5 -44.5t44.5 -18.5t44 18.5t18 44.5t-18 44t-44 18z" />
    <glyph glyph-name="Uhungarumlaut" unicode="&#x170;" horiz-adv-x="773" 
d="M597 609q0 28 -10 38.5t-37 10.5h-42v32h227v-32h-30q-26 0 -35.5 -10.5t-9.5 -34.5v-371q0 -123 -80.5 -193t-191.5 -70q-116 0 -195.5 68t-79.5 195v400q0 16 -13 16h-62v32h262v-32h-80q-11 0 -11 -16v-389q0 -104 55 -159.5t143 -55.5q83 0 136.5 52t53.5 152v367z
M446 842l-134 -126l-18 6l95 141q11 17 43 17q25 0 25 -17q0 -6 -11 -21zM573 842l-133 -126l-18 6l95 141q9 17 42 17q26 0 26 -17q0 -7 -12 -21z" />
    <glyph glyph-name="uhungarumlaut" unicode="&#x171;" horiz-adv-x="565" 
d="M395 -7l-6 78q-21 -41 -65 -64t-92 -23q-60 0 -102 38.5t-42 110.5v251q0 25 -19 25h-42v31h143v-282q0 -53 30.5 -79.5t75.5 -26.5q47 0 80 24t33 64v244q0 25 -20 25h-50v31h151v-355q0 -25 20 -25h50v-25zM443 661l-133 -159l-19 9l95 176q11 20 43 20q26 0 26 -20
q0 -8 -12 -26zM321 661l-133 -159l-17 9l93 176q11 20 43 20q26 0 26 -20q0 -13 -12 -26z" />
    <glyph glyph-name="Uogonek" unicode="&#x172;" horiz-adv-x="773" 
d="M597 609q0 28 -10 38.5t-37 10.5h-42v32h227v-32h-30q-26 0 -35.5 -10.5t-9.5 -34.5v-371q0 -108 -63 -176t-158 -83q-74 -42 -74 -106q0 -61 66 -61q23 0 48 8q7 -1 7 -10q0 -16 -20.5 -30t-62.5 -14q-50 0 -75 23t-25 58q0 37 24 71t64 57h-3q-116 0 -195.5 68
t-79.5 195v400q0 16 -13 16h-62v32h262v-32h-80q-11 0 -11 -16v-389q0 -104 55 -159.5t143 -55.5q83 0 136.5 52t53.5 152v367z" />
    <glyph glyph-name="uogonek" unicode="&#x173;" horiz-adv-x="565" 
d="M540 35l-99 -29q-46 -20 -71 -51t-25 -66q0 -61 66 -61q23 0 48 8q7 -1 7 -10q0 -16 -20.5 -30t-62.5 -14q-50 0 -75 23t-25 58q0 42 30.5 80t80.5 59l-5 69q-21 -41 -65 -64t-92 -23q-60 0 -102 38.5t-42 110.5v251q0 25 -19 25h-42v31h143v-282q0 -53 30.5 -79.5
t75.5 -26.5q47 0 80 24t33 64v244q0 25 -20 25h-50v31h151v-355q0 -25 20 -25h50v-25z" />
    <glyph glyph-name="Wcircumflex" unicode="&#x174;" horiz-adv-x="930" 
d="M505 412l118 -305l191 510q8 22 2.5 31.5t-20.5 9.5h-46v32h219v-32h-35q-18 0 -31 -30q-167 -349 -278 -643h-50q-14 47 -112 326q-79 -184 -129 -326h-50q-25 76 -123 329.5t-131 327.5q-7 16 -19 16h-37v32h243v-32h-53q-14 0 -20 -8.5t0 -23.5l189 -519l108 260
q-80 213 -109 275q-7 16 -19 16h-37v32h187v-32h-16q-33 0 -22 -32l59 -155l61 146q8 22 2 31.5t-21 9.5h-20v32h168v-32h-35q-15 0 -32 -30q-39 -71 -102 -216zM471 807l-112 -88l-16 9l109 140q6 10 19 10t19 -10l109 -140l-16 -9z" />
    <glyph glyph-name="wcircumflex" unicode="&#x175;" horiz-adv-x="776" 
d="M389 307l-130 -323h-28l-175 411q-6 14 -23 14h-33v31h216v-31h-51q-27 0 -12 -32l81 -193q23 -60 33 -95q17 50 35 95l64 170l-17 41q-6 14 -18 14h-39v31h212v-31h-56q-19 0 -10 -24l79 -208q20 -51 32 -100q17 59 31 103l67 197q12 32 -18 32h-38v31h185v-31h-25
q-25 0 -37 -25l-171 -400h-28zM388 619l-112 -110l-17 9l110 178q6 11 19 11t19 -11l111 -178l-18 -9z" />
    <glyph glyph-name="Ycircumflex" unicode="&#x176;" horiz-adv-x="687" 
d="M301 330l-227 311q-4 6 -14 11.5t-16 5.5h-40v32h254v-32h-67q-7 0 -9.5 -6t3.5 -14l185 -256q114 151 169 246q9 16 5 23t-18 7h-57v32h229v-32h-31q-16 0 -35 -17q-110 -125 -235 -291v-302q0 -17 13 -17h65v-31h-252v31h65q13 0 13 17v282zM351 807l-112 -88l-16 9
l109 140q6 10 19 10t19 -10l109 -140l-16 -9z" />
    <glyph glyph-name="ycircumflex" unicode="&#x177;" horiz-adv-x="490" 
d="M309 440h183v-31h-25q-25 0 -36 -25l-187 -434q-48 -110 -91 -160t-110 -50q-33 0 -54.5 18.5t-21.5 44.5q0 23 11.5 38t34.5 15q16 0 25 -8t12 -17t10.5 -17t19.5 -8q55 0 145 194l-169 395q-6 14 -23 14h-33v31h216v-31h-51q-26 0 -12 -32l80 -190q18 -43 33 -98
q16 56 32 102l66 183q6 17 -0.5 26t-20.5 9h-34v31zM256 619l-112 -110l-17 9l110 178q6 11 19 11t19 -11l111 -178l-18 -9z" />
    <glyph glyph-name="Ydieresis" unicode="&#x178;" horiz-adv-x="687" 
d="M301 330l-227 311q-4 6 -14 11.5t-16 5.5h-40v32h254v-32h-67q-7 0 -9.5 -6t3.5 -14l185 -256q114 151 169 246q9 16 5 23t-18 7h-57v32h229v-32h-31q-16 0 -35 -17q-110 -125 -235 -291v-302q0 -17 13 -17h65v-31h-252v31h65q13 0 13 17v282zM267 831q18 0 31 -13
t13 -32q0 -17 -13 -29.5t-31 -12.5t-30.5 12.5t-12.5 29.5q0 19 12.5 32t30.5 13zM434 831q19 0 31.5 -13t12.5 -32q0 -17 -12.5 -29.5t-31.5 -12.5q-17 0 -30.5 12.5t-13.5 29.5q0 18 13 31.5t31 13.5z" />
    <glyph glyph-name="Zacute" unicode="&#x179;" horiz-adv-x="696" 
d="M647 163q0 -13 -9 -67t-9 -74q0 -23 -21 -23q-7 0 -117 0.5t-246.5 0.5h-208.5l-4 18l477 626q-111 0 -175 -3.5t-109.5 -9.5t-69.5 -23.5t-36.5 -36t-29.5 -57.5q-23 0 -23 13q0 7 9 65t9 77q0 9 6 15.5t14 6.5q3 0 236 -0.5t298 -0.5l5 -19l-481 -625q79 0 133 0.5
t101 4.5t74.5 6t52.5 12t36.5 16t25.5 23.5t20 29t19 38.5q23 0 23 -13zM476 842l-164 -126l-21 6l115 141q13 17 52 17q31 0 31 -17q0 -8 -13 -21z" />
    <glyph glyph-name="zacute" unicode="&#x17a;" horiz-adv-x="464" 
d="M413 154q22 0 22 -12q0 -11 -8 -54t-8 -61q0 -27 -27 -27h-363v27l287 371q-64 0 -102 -2.5t-73 -11.5t-52 -27t-23 -47q-14 0 -21 3.5t-4 14.5l27 141h27q-4 -29 24 -29h305v-27l-286 -371q104 0 154.5 9.5t75.5 31.5t45 71zM370 661l-164 -159l-21 9l115 176
q13 20 52 20q31 0 31 -20q0 -11 -13 -26z" />
    <glyph glyph-name="Zdotaccent" unicode="&#x17b;" horiz-adv-x="696" 
d="M647 163q0 -13 -9 -67t-9 -74q0 -23 -21 -23q-7 0 -117 0.5t-246.5 0.5h-208.5l-4 18l477 626q-111 0 -175 -3.5t-109.5 -9.5t-69.5 -23.5t-36.5 -36t-29.5 -57.5q-23 0 -23 13q0 7 9 65t9 77q0 9 6 15.5t14 6.5q3 0 236 -0.5t298 -0.5l5 -19l-481 -625q79 0 133 0.5
t101 4.5t74.5 6t52.5 12t36.5 16t25.5 23.5t20 29t19 38.5q23 0 23 -13zM360 847q22 0 37.5 -15.5t15.5 -37.5q0 -21 -15.5 -35.5t-37.5 -14.5q-21 0 -36.5 14.5t-15.5 35.5q0 22 15.5 37.5t36.5 15.5z" />
    <glyph glyph-name="zdotaccent" unicode="&#x17c;" horiz-adv-x="464" 
d="M413 154q22 0 22 -12q0 -11 -8 -54t-8 -61q0 -27 -27 -27h-363v27l287 371q-64 0 -102 -2.5t-73 -11.5t-52 -27t-23 -47q-14 0 -21 3.5t-4 14.5l27 141h27q-4 -29 24 -29h305v-27l-286 -371q104 0 154.5 9.5t75.5 31.5t45 71zM252 673q21 0 36 -15.5t15 -35.5
q0 -21 -15 -37t-36 -16t-37 16t-16 37q0 20 16 35.5t37 15.5z" />
    <glyph glyph-name="Zcaron" unicode="&#x17d;" horiz-adv-x="696" 
d="M647 163q0 -13 -9 -67t-9 -74q0 -23 -21 -23q-7 0 -117 0.5t-246.5 0.5h-208.5l-4 18l477 626q-111 0 -175 -3.5t-109.5 -9.5t-69.5 -23.5t-36.5 -36t-29.5 -57.5q-23 0 -23 13q0 7 9 65t9 77q0 9 6 15.5t14 6.5q3 0 236 -0.5t298 -0.5l5 -19l-481 -625q79 0 133 0.5
t101 4.5t74.5 6t52.5 12t36.5 16t25.5 23.5t20 29t19 38.5q23 0 23 -13zM354 788l111 89l16 -10l-109 -140q-6 -9 -18 -9q-14 0 -20 9l-109 140l16 10z" />
    <glyph glyph-name="zcaron" unicode="&#x17e;" horiz-adv-x="464" 
d="M413 154q22 0 22 -12q0 -11 -8 -54t-8 -61q0 -27 -27 -27h-363v27l287 371q-64 0 -102 -2.5t-73 -11.5t-52 -27t-23 -47q-14 0 -21 3.5t-4 14.5l27 141h27q-4 -29 24 -29h305v-27l-286 -371q104 0 154.5 9.5t75.5 31.5t45 71zM245 596l111 110l18 -9l-111 -178
q-6 -11 -18 -11q-14 0 -20 11l-110 178l17 9z" />
    <glyph glyph-name="longs" unicode="&#x17f;" horiz-adv-x="283" 
d="M181 554v-498q0 -25 20 -25h56v-31h-220v31h42q21 0 21 25v334h-71v21l71 28v73q0 101 66.5 174.5t150.5 73.5q58 0 87 -21.5t29 -55.5q0 -19 -13 -33t-30 -14q-19 0 -30.5 11.5t-16.5 25t-19 25t-37 11.5q-38 0 -72 -39.5t-34 -115.5z" />
    <glyph glyph-name="florin" unicode="&#x192;" horiz-adv-x="264" 
d="M122 411h-63q-7 0 -7 12q0 16 8 18l72 7q33 144 96 224.5t179 80.5q108 0 108 -77q0 -19 -12 -32.5t-32 -13.5q-19 0 -28 12.5t-9.5 28t-8.5 28t-25 12.5q-65 0 -109 -61t-81 -194l125 6q5 0 5 -19q0 -31 -8 -31l-133 -1l-89 -357q-72 -298 -242 -298q-70 0 -70 52
q0 18 10.5 28.5t26.5 10.5t23.5 -8.5t9 -19t7.5 -19t19 -8.5q20 0 39 19.5t33 46.5t29 69.5t23.5 75l19.5 76.5l47 188t37 144z" />
    <glyph glyph-name="gacute" unicode="&#x1f5;" horiz-adv-x="522" 
d="M182 -29q-31 -12 -51.5 -38.5t-20.5 -56.5q0 -80 132 -80q78 0 129 32.5t51 84.5q0 33 -18.5 48.5t-69.5 15.5q-24 0 -75 -3t-77 -3zM144 -25q-29 4 -60.5 27.5t-31.5 46.5q0 13 40 50t68 55q-96 37 -96 148q0 71 49 115.5t126 44.5q64 0 109 -23h138v-50h-100
q29 -36 29 -93q0 -71 -51 -115.5t-125 -44.5q-27 0 -51 5q-46 -37 -46 -65q0 -31 39 -31q18 0 77 3.5t99 3.5q136 0 136 -111q0 -91 -88.5 -146.5t-207.5 -55.5q-77 0 -125.5 28t-48.5 77q0 39 35.5 75.5t85.5 55.5zM239 425q-40 0 -64 -32t-24 -92q0 -63 24 -96t64 -33
q42 0 67 32t25 95q0 60 -25.5 93t-66.5 33zM357 661l-164 -159l-21 9l115 176q13 20 52 20q31 0 31 -20q0 -11 -13 -26z" />
    <glyph glyph-name="AEacute" unicode="&#x1fc;" horiz-adv-x="987" 
d="M511 575l-218 -288h218v288zM511 649q-3 9 -13 9h-59v32q63 0 243 1.5t185 1.5q23 0 23 -22q0 -15 3 -52t3 -53q0 -11 -23 -11q-9 27 -18 41.5t-23.5 26t-45.5 16t-69.5 7t-109.5 3.5v-273q166 3 191 12q21 7 25 29q1 3 1 5l3 30q31 0 31 -8q0 -15 -1 -41.5t-1 -42.5
t1 -46t1 -45q0 -11 -31 -11l-4 31q-2 12 -4.5 19t-11.5 13t-20.5 9t-38.5 5t-57.5 2.5t-83.5 1.5v-294q98 2 143.5 4.5t82.5 14.5t51 30t30 55q26 0 26 -12q0 -10 -9.5 -55.5t-9.5 -59.5q0 -10 -6 -17t-14 -7q-3 0 -200.5 1t-261.5 1v31h59q13 0 13 17v202h-246l-133 -177
q-11 -14 -13.5 -23.5t2 -14t14.5 -4.5h46v-31h-213v31h30q16 0 43 30q256 304 470 588zM749 842l-164 -126l-21 6l115 141q13 17 52 17q31 0 31 -17q0 -8 -13 -21z" />
    <glyph glyph-name="aeacute" unicode="&#x1fd;" horiz-adv-x="693" 
d="M266 154v87q-138 -54 -138 -145q0 -45 51 -45q33 0 60 27t27 76zM291 106q-16 -56 -59.5 -89.5t-90.5 -33.5q-44 0 -69 23.5t-25 62.5q0 53 52 106t167 99v63q0 45 -13 61t-40 16q-71 0 -87 -73q-3 -13 -17 -21.5t-29 -8.5q-28 0 -28 28q0 42 47.5 82.5t122.5 40.5
q104 0 123 -66q71 66 163 66q68 0 108 -41t40 -100q0 -29 -28 -29h-287q-6 -27 -6 -56q0 -81 46 -123.5t117 -42.5q88 0 132 53q20 0 20 -17q0 -12 -10 -31.5t-28.5 -40.5t-53 -36t-76.5 -15q-141 0 -191 123zM352 328q77 2 118.5 4.5t64 8t28 11t5.5 17.5q0 21 -19.5 34
t-55.5 13q-45 0 -84.5 -25t-56.5 -63zM492 661l-164 -159l-21 9l115 176q13 20 52 20q31 0 31 -20q0 -11 -13 -26z" />
    <glyph glyph-name="Oslashacute" unicode="&#x1fe;" horiz-adv-x="862" 
d="M649 638l46 52h50l-66 -75q59 -52 93.5 -123t34.5 -151q0 -147 -110 -252t-265 -105q-131 0 -232 77l-54 -61h-49l74 85q-115 105 -115 256q0 149 111 257.5t265 108.5q120 0 217 -69zM629 558l-385 -445q77 -83 188 -83q114 0 189.5 88.5t75.5 222.5q0 132 -68 217z
M222 142l382 445q-74 71 -172 71q-114 0 -190 -91t-76 -226q0 -117 56 -199zM539 842l-164 -126l-21 6l115 141q13 17 52 17q31 0 31 -17q0 -8 -13 -21z" />
    <glyph glyph-name="oslashacute" unicode="&#x1ff;" horiz-adv-x="562" 
d="M121 44l-47 -44h-59l78 74q-51 64 -51 148q0 99 70.5 169.5t168.5 70.5q90 0 156 -60l39 38h61l-72 -67q55 -65 55 -151q0 -100 -70.5 -169.5t-168.5 -69.5q-91 0 -160 61zM409 319l-241 -230q38 -59 113 -59q68 0 105 49.5t37 142.5q0 55 -14 97zM151 129l239 230
q-38 56 -109 56q-68 0 -105.5 -50t-37.5 -143q0 -55 13 -93zM379 661l-164 -159l-21 9l115 176q13 20 52 20q31 0 31 -20q0 -11 -13 -26z" />
    <glyph glyph-name="Scommaaccent" unicode="&#x218;" horiz-adv-x="522" 
d="M439 642l3 -88q0 -16 -25 -16q-15 53 -49.5 87t-88.5 34q-57 0 -88 -33t-31 -85q0 -20 7.5 -38t15 -29t30.5 -27.5t33 -23t44 -26.5q93 -56 128.5 -101.5t35.5 -113.5q0 -95 -64.5 -146.5t-159.5 -51.5q-56 0 -98.5 12.5t-60.5 27.5t-19 29l-5 98q-1 8 6.5 11.5t18.5 3.5
q20 -56 63 -95t104 -39q57 0 93 32t36 91q0 51 -26.5 81t-110.5 79q-78 45 -115 90.5t-37 117.5q0 66 56.5 125t147.5 59q66 0 110.5 -19t45.5 -46zM194 -286v26q36 5 57.5 25t21.5 49q0 18 -9.5 27.5t-21.5 9.5q-20 0 -33 11.5t-13 30.5q0 20 13.5 34t32.5 14
q30 0 53 -26.5t23 -66.5q0 -57 -34.5 -91.5t-89.5 -42.5z" />
    <glyph glyph-name="scommaaccent" unicode="&#x219;" 
d="M203 462q45 0 77 -15t32 -32v-80q0 -12 -25 -12q-14 50 -35.5 72t-54.5 22q-34 0 -53 -19t-19 -45q0 -31 19.5 -47.5t70.5 -39.5q56 -26 83.5 -58.5t27.5 -83.5q0 -64 -43 -102.5t-110 -38.5q-57 0 -90.5 15.5t-33.5 33.5v80q0 15 25 15q14 -51 38 -75t64 -24
q37 0 59 19.5t22 50.5q0 34 -18.5 51t-72.5 41q-55 26 -81.5 57.5t-26.5 79.5q0 54 39.5 94.5t105.5 40.5zM121 -286v26q36 5 57.5 25t21.5 49q0 18 -9.5 27.5t-21.5 9.5q-20 0 -33 11.5t-13 30.5q0 20 13.5 34t32.5 14q30 0 53 -26.5t23 -66.5q0 -57 -34.5 -91.5
t-89.5 -42.5z" />
    <glyph glyph-name="dotlessj" unicode="&#x237;" horiz-adv-x="249" 
d="M48 365q-17 5 -17 17q0 6 3 9q65 16 128 73q18 0 18 -6q0 -3 -1 -13.5t-2.5 -32.5t-1.5 -52v-321q0 -71 -31 -141t-82.5 -114.5t-106.5 -44.5q-29 0 -29 25q0 23 21.5 39.5t62.5 16.5q36 0 60 39.5t24 120.5v352q0 22 -20 27z" />
    <glyph glyph-name="circumflex" unicode="&#x2c6;" horiz-adv-x="446" 
d="M223 619l-112 -110l-17 9l110 178q6 11 19 11t19 -11l111 -178l-18 -9z" />
    <glyph glyph-name="caron" unicode="&#x2c7;" horiz-adv-x="446" 
d="M224 596l111 110l18 -9l-111 -178q-6 -11 -18 -11q-14 0 -20 11l-110 178l17 9z" />
    <glyph glyph-name="breve" unicode="&#x2d8;" horiz-adv-x="428" 
d="M304 669q0 -63 -27 -101t-77 -38t-77 38t-27 101h23q0 -40 25 -59t56 -19t56.5 19.5t25.5 58.5h22z" />
    <glyph glyph-name="dotaccent" unicode="&#x2d9;" horiz-adv-x="291" 
d="M147 673q21 0 36 -15.5t15 -35.5q0 -21 -15 -37t-36 -16t-37 16t-16 37q0 20 16 35.5t37 15.5z" />
    <glyph glyph-name="ring" unicode="&#x2da;" horiz-adv-x="395" 
d="M198 725q43 0 73.5 -30t30.5 -73t-30.5 -73t-73.5 -30t-73.5 30t-30.5 73t30.5 73t73.5 30zM198 681q-26 0 -44.5 -18t-18.5 -44t18.5 -44.5t44.5 -18.5t44 18.5t18 44.5t-18 44t-44 18z" />
    <glyph glyph-name="ogonek" unicode="&#x2db;" horiz-adv-x="379" 
d="M266 0q-52 -20 -81 -53t-29 -70q0 -61 66 -61q23 0 48 8q7 -1 7 -10q0 -16 -20.5 -30t-62.5 -14q-50 0 -75 23t-25 58q0 47 38 88.5t98 60.5h36z" />
    <glyph glyph-name="tilde" unicode="&#x2dc;" horiz-adv-x="498" 
d="M109 538l-15 15q42 98 103 98q25 0 66 -25t64 -25q31 0 63 55l15 -14q-45 -98 -100 -98q-24 0 -63.5 24.5t-65.5 24.5q-35 0 -67 -55z" />
    <glyph glyph-name="hungarumlaut" unicode="&#x2dd;" horiz-adv-x="471" 
d="M366 661l-133 -159l-19 9l95 176q11 20 43 20q26 0 26 -20q0 -8 -12 -26zM244 661l-133 -159l-17 9l93 176q11 20 43 20q26 0 26 -20q0 -13 -12 -26z" />
    <glyph glyph-name="tonos" unicode="&#x384;" horiz-adv-x="201" 
d="M79 724q0 5 14 5q42 0 73 -18q-24 -110 -78 -201q-4 -6 -15 -6q-5 0 -8 1.5t-2 4.5q23 127 16 214z" />
    <glyph glyph-name="dieresistonos" unicode="&#x385;" horiz-adv-x="449" 
d="M106 622q19 0 33 -15.5t14 -37.5t-14 -37.5t-33 -15.5t-33 15.5t-14 37.5t14 37.5t33 15.5zM331 622q19 0 33 -15.5t14 -37.5t-14 -37.5t-33 -15.5t-33 15.5t-14 37.5t14 37.5t33 15.5zM202 724q0 5 14 5q42 0 73 -18q-24 -110 -78 -201q-4 -6 -15 -6q-5 0 -8 1.5t-2 4.5
q23 127 16 214z" />
    <glyph glyph-name="Alphatonos" unicode="&#x386;" horiz-adv-x="636" 
d="M191 292h219l-108 290zM422 255h-244l-70 -182q-7 -22 -1.5 -32t20.5 -10h46v-31h-205v31h30q18 0 31 30q146 310 272 643h56q23 -72 119.5 -325.5t129.5 -329.5q10 -18 19 -18h36v-31h-238v31h56q9 0 13.5 6.5t-0.5 25.5zM129 724q0 5 14 5q42 0 73 -18
q-24 -110 -78 -201q-4 -6 -15 -6q-5 0 -8 1.5t-2 4.5q23 127 16 214z" />
    <glyph glyph-name="anoteleia" unicode="&#x387;" horiz-adv-x="264" 
d="M132 335q28 0 46.5 -18.5t18.5 -46.5q0 -27 -18.5 -46t-46.5 -19t-46.5 19t-18.5 46q0 28 18.5 46.5t46.5 18.5z" />
    <glyph glyph-name="Epsilontonos" unicode="&#x388;" horiz-adv-x="604" 
d="M225 649v-273q165 3 191 12q21 7 24 29q1 3 1 5l3 30q31 0 31 -8q0 -15 -1 -41.5t-1 -42.5t1 -46t1 -45q0 -11 -31 -11l-4 31q-1 12 -3.5 19t-12 13t-21 9t-38 5t-57 2.5t-83.5 1.5v-294q66 1 103 2.5t72.5 6t52.5 10t33.5 18t25 27.5t19.5 40q26 0 26 -12
q0 -10 -9 -55.5t-9 -59.5q0 -10 -6.5 -17t-14.5 -7q-4 0 -201 1t-261 1v31h59q13 0 13 17v594q0 16 -13 16h-59v32q63 0 243.5 1.5t185.5 1.5q23 0 23 -22q0 -15 3 -52t3 -53q0 -11 -24 -11q-7 23 -13 36t-19.5 24.5t-28.5 16.5t-46 9.5t-65 5.5t-93 2zM-61 724q0 5 14 5
q42 0 73 -18q-24 -110 -78 -201q-4 -6 -15 -6q-5 0 -8 1.5t-2 4.5q23 127 16 214z" />
    <glyph glyph-name="Etatonos" unicode="&#x389;" horiz-adv-x="823" 
d="M596 343h-370v-295q0 -17 13 -17h62v-31h-245v31h62q12 0 12 17v594q0 16 -12 16h-62v32h245v-32h-62q-13 0 -13 -16v-262h370v262q0 16 -13 16h-61v32h244v-32h-61q-12 0 -12 -16v-594q0 -17 12 -17h61v-31h-244v31h61q13 0 13 17v295zM-61 724q0 5 14 5q42 0 73 -18
q-24 -110 -78 -201q-4 -6 -15 -6q-5 0 -8 1.5t-2 4.5q23 127 16 214z" />
    <glyph glyph-name="Iotatonos" unicode="&#x38a;" horiz-adv-x="357" 
d="M301 0h-245v31h62q12 0 12 17v594q0 16 -12 16h-62v32h245v-32h-62q-12 0 -12 -16v-594q0 -17 12 -17h62v-31zM-52 724q0 5 14 5q42 0 73 -18q-24 -110 -78 -201q-4 -6 -15 -6q-5 0 -8 1.5t-2 4.5q23 127 16 214z" />
    <glyph glyph-name="Omicrontonos" unicode="&#x38c;" horiz-adv-x="863" 
d="M807 341q0 -147 -110 -252t-265 -105t-265.5 105t-110.5 252q0 149 111 257.5t265 108.5q155 0 265 -108.5t110 -257.5zM166 341q0 -134 76 -222.5t190 -88.5t189.5 88.5t75.5 222.5q0 135 -76 226t-189 91q-114 0 -190 -91t-76 -226zM39 724q0 5 14 5q42 0 73 -18
q-24 -110 -78 -201q-4 -6 -15 -6q-5 0 -8 1.5t-2 4.5q23 127 16 214z" />
    <glyph glyph-name="Upsilontonos" unicode="&#x38e;" horiz-adv-x="687" 
d="M-78 724q0 5 14 5q42 0 73 -18l-5 -21h254v-32h-67q-7 0 -9.5 -6t3.5 -14l185 -256q114 151 169 246q9 16 5 23t-18 7h-57v32h229v-32h-31q-16 0 -35 -17q-110 -125 -235 -291v-302q0 -17 13 -17h65v-31h-252v31h65q13 0 13 17v282l-227 311q-4 6 -14 11.5t-16 5.5h-40
v31q-25 -101 -73 -179q-4 -6 -15 -6q-5 0 -8 1.5t-2 4.5q23 127 16 214z" />
    <glyph glyph-name="Omegatonos" unicode="&#x38f;" horiz-adv-x="826" 
d="M413 707q148 0 236 -87.5t88 -223.5q0 -106 -39 -185.5t-136 -141.5q50 0 76.5 0.5t51.5 4t35 7t21 14.5t15 21.5l12 32.5q23 0 23 -12q0 -10 -7.5 -55.5t-7.5 -59.5q0 -10 -6.5 -17t-14.5 -7q-4 0 -116 1t-176 1l-1 27q94 65 128 143.5t34 208.5q0 131 -58 212.5
t-158 81.5t-158 -81.5t-58 -212.5q0 -130 34 -208.5t128 -143.5l-1 -27q-64 0 -176 -1t-116 -1q-8 0 -14.5 7t-6.5 17q0 14 -7.5 59.5t-7.5 55.5q0 12 23 12l12 -32.5t15 -21.5t21 -14.5t35 -7t51.5 -4t76.5 -0.5q-97 62 -136 141.5t-39 185.5q0 136 88 223.5t236 87.5z
M49 724q0 5 14 5q42 0 73 -18q-24 -110 -78 -201q-4 -6 -15 -6q-5 0 -8 1.5t-2 4.5q23 127 16 214z" />
    <glyph glyph-name="iotadieresistonos" unicode="&#x390;" horiz-adv-x="287" 
d="M96 71v368q40 24 80 24q14 0 14 -5q-25 -189 -25 -354q0 -31 9 -44t29 -13q35 0 57 24l13 -13q-11 -24 -43.5 -49.5t-68.5 -25.5q-65 0 -65 88zM35 622q19 0 33 -15.5t14 -37.5t-14 -37.5t-33 -15.5t-33 15.5t-14 37.5t14 37.5t33 15.5zM260 622q19 0 33 -15.5t14 -37.5
t-14 -37.5t-33 -15.5t-33 15.5t-14 37.5t14 37.5t33 15.5zM131 724q0 5 14 5q42 0 73 -18q-24 -110 -78 -201q-4 -6 -15 -6q-5 0 -8 1.5t-2 4.5q23 127 16 214z" />
    <glyph glyph-name="Alpha" unicode="&#x391;" horiz-adv-x="636" 
d="M191 292h219l-108 290zM422 255h-244l-70 -182q-7 -22 -1.5 -32t20.5 -10h46v-31h-205v31h30q18 0 31 30q146 310 272 643h56q23 -72 119.5 -325.5t129.5 -329.5q10 -18 19 -18h36v-31h-238v31h56q9 0 13.5 6.5t-0.5 25.5z" />
    <glyph glyph-name="Beta" unicode="&#x392;" horiz-adv-x="633" 
d="M428 514q0 69 -43 104.5t-160 35.5v-279q119 1 161 32.5t42 106.5zM225 40q133 0 190.5 36t57.5 111q0 33 -9 58t-34 48.5t-76.5 36t-128.5 12.5v-302zM371 365q93 -8 150.5 -56.5t57.5 -122.5q0 -82 -73 -134t-218 -52h-232v31h59q13 0 13 17v594q0 16 -13 16h-59v32
h227q130 0 190.5 -50t60.5 -116q0 -65 -45.5 -106t-117.5 -53z" />
    <glyph glyph-name="Gamma" unicode="&#x393;" horiz-adv-x="532" 
d="M56 690h446q23 0 23 -20q0 -36 1.5 -62.5t3.5 -40.5t2 -18q0 -10 -22 -10q-13 29 -20.5 43t-23.5 29t-30.5 20.5t-47 11t-68 7t-98.5 3.5v-605q0 -17 13 -17h66v-31h-245v31h62q12 0 12 17v594q0 16 -12 16h-62v32z" />
    <glyph glyph-name="Epsilon" unicode="&#x395;" horiz-adv-x="604" 
d="M225 649v-273q165 3 191 12q21 7 24 29q1 3 1 5l3 30q31 0 31 -8q0 -15 -1 -41.5t-1 -42.5t1 -46t1 -45q0 -11 -31 -11l-4 31q-1 12 -3.5 19t-12 13t-21 9t-38 5t-57 2.5t-83.5 1.5v-294q66 1 103 2.5t72.5 6t52.5 10t33.5 18t25 27.5t19.5 40q26 0 26 -12
q0 -10 -9 -55.5t-9 -59.5q0 -10 -6.5 -17t-14.5 -7q-4 0 -201 1t-261 1v31h59q13 0 13 17v594q0 16 -13 16h-59v32q63 0 243.5 1.5t185.5 1.5q23 0 23 -22q0 -15 3 -52t3 -53q0 -11 -24 -11q-7 23 -13 36t-19.5 24.5t-28.5 16.5t-46 9.5t-65 5.5t-93 2z" />
    <glyph glyph-name="Zeta" unicode="&#x396;" horiz-adv-x="696" 
d="M647 163q0 -13 -9 -67t-9 -74q0 -23 -21 -23q-7 0 -117 0.5t-246.5 0.5h-208.5l-4 18l477 626q-111 0 -175 -3.5t-109.5 -9.5t-69.5 -23.5t-36.5 -36t-29.5 -57.5q-23 0 -23 13q0 7 9 65t9 77q0 9 6 15.5t14 6.5q3 0 236 -0.5t298 -0.5l5 -19l-481 -625q79 0 133 0.5
t101 4.5t74.5 6t52.5 12t36.5 16t25.5 23.5t20 29t19 38.5q23 0 23 -13z" />
    <glyph glyph-name="Eta" unicode="&#x397;" horiz-adv-x="823" 
d="M596 343h-370v-295q0 -17 13 -17h62v-31h-245v31h62q12 0 12 17v594q0 16 -12 16h-62v32h245v-32h-62q-13 0 -13 -16v-262h370v262q0 16 -13 16h-61v32h244v-32h-61q-12 0 -12 -16v-594q0 -17 12 -17h61v-31h-244v31h61q13 0 13 17v295z" />
    <glyph glyph-name="Theta" unicode="&#x398;" horiz-adv-x="863" 
d="M282 393h295q23 0 23 18v45h31v-210h-31v41q0 21 -23 21h-295q-24 0 -24 -20v-42h-31v210h31v-45q0 -18 24 -18zM807 341q0 -147 -110 -252t-265 -105t-265.5 105t-110.5 252q0 149 111 257.5t265 108.5q155 0 265 -108.5t110 -257.5zM166 341q0 -134 76 -222.5
t190 -88.5t189.5 88.5t75.5 222.5q0 135 -76 226t-189 91q-114 0 -190 -91t-76 -226z" />
    <glyph glyph-name="Iota" unicode="&#x399;" horiz-adv-x="357" 
d="M301 0h-245v31h62q12 0 12 17v594q0 16 -12 16h-62v32h245v-32h-62q-12 0 -12 -16v-594q0 -17 12 -17h62v-31z" />
    <glyph glyph-name="Kappa" unicode="&#x39a;" horiz-adv-x="692" 
d="M227 346v-298q0 -17 12 -17h62v-31h-245v31h62q12 0 12 17v594q0 16 -12 16h-62v32h245v-32h-62q-12 0 -12 -16v-273q69 61 144 135.5t112 120.5q8 11 5 22t-15 11h-65v32h269v-32h-34q-27 0 -46 -17q-17 -14 -116 -103.5t-175 -147.5q154 -140 323 -344q14 -15 31 -15
h40v-31h-270v31h70q4 0 7.5 3t3.5 7q0 6 -13 21q-44 55 -135.5 149.5t-135.5 134.5z" />
    <glyph glyph-name="Lambda" unicode="&#x39b;" horiz-adv-x="639" 
d="M321 585l-192 -512q-8 -22 -2 -31.5t21 -9.5h45v-32h-219v32h35q18 0 31 30q167 349 278 643h50q25 -76 123 -329.5t131 -327.5q7 -16 19 -16h37v-32h-243v32h53q14 0 20 8.5t0 23.5z" />
    <glyph glyph-name="Mu" unicode="&#x39c;" horiz-adv-x="930" 
d="M468 12h-28l-262 537q0 -271 5 -468q1 -31 10.5 -40.5t34.5 -9.5h34v-31h-206v31h34q18 0 26 10.5t9 38.5q5 315 5 562q0 16 -11 16h-63v32h157l264 -558l243 558h154v-32h-62q-12 0 -12 -16v-594q0 -17 12 -17h62v-31h-249v31h66q12 0 12 17v497z" />
    <glyph glyph-name="Nu" unicode="&#x39d;" horiz-adv-x="803" 
d="M633 150q0 270 -5 458q-1 32 -9 41t-36 9h-34v32h211v-32h-35q-22 0 -27.5 -8.5t-6.5 -40.5q-6 -248 -6 -620h-50l-452 624q0 -352 4 -532q1 -32 9.5 -41t36.5 -9h34v-31h-211v31h31q23 0 30.5 9.5t8.5 39.5q4 189 4 562q0 16 -11 16h-63v32h192z" />
    <glyph glyph-name="Xi" unicode="&#x39e;" horiz-adv-x="664" 
d="M585 0h-506q-8 0 -14.5 7t-6.5 17q0 14 -9 69.5t-9 65.5q0 12 26 12q8 -27 13 -40t19 -26t26 -17.5t45.5 -8t65 -4t97.5 -0.5t97.5 0.5t65 4t45.5 8t26 17.5t19 26t13 40q26 0 26 -12q0 -10 -9 -65.5t-9 -69.5q0 -10 -6.5 -17t-14.5 -7zM92 690h480q23 0 23 -22
q0 -16 3 -63t3 -62q0 -11 -24 -11q-5 23 -8.5 35.5t-15 24t-23.5 15.5t-43 7.5t-62.5 4t-92.5 0.5t-92.5 -0.5t-62.5 -4t-43 -7.5t-23.5 -15.5t-15 -24t-8.5 -35.5q-24 0 -24 11q0 15 3 62t3 63q0 22 23 22zM200 393h265q23 0 23 18v45h31v-210h-31v41q0 21 -23 21h-265
q-24 0 -24 -20v-42h-31v210h31v-45q0 -18 24 -18z" />
    <glyph glyph-name="Omicron" unicode="&#x39f;" horiz-adv-x="863" 
d="M807 341q0 -147 -110 -252t-265 -105t-265.5 105t-110.5 252q0 149 111 257.5t265 108.5q155 0 265 -108.5t110 -257.5zM166 341q0 -134 76 -222.5t190 -88.5t189.5 88.5t75.5 222.5q0 135 -76 226t-189 91q-114 0 -190 -91t-76 -226z" />
    <glyph glyph-name="Pi" unicode="&#x3a0;" horiz-adv-x="823" 
d="M583 31q13 0 13 17v588q-1 12 -13 12h-344q-12 0 -13 -12v-588q0 -17 13 -17h62v-31h-245v31h62q12 0 12 17v594q0 16 -12 16h-62v32h710v-32h-61q-12 0 -12 -16v-594q0 -17 12 -17h61v-31h-244v31h61z" />
    <glyph glyph-name="Rho" unicode="&#x3a1;" horiz-adv-x="558" 
d="M225 323q209 0 209 160q0 80 -47.5 123t-161.5 43v-326zM56 0v31h59q13 0 13 17v594q0 16 -13 16h-59v32h228q124 0 190.5 -59t66.5 -148q0 -24 -7 -49t-25.5 -51.5t-46.5 -46.5t-73 -33t-101 -13q-38 0 -63 4v-246q0 -17 11 -17h88v-31h-268z" />
    <glyph glyph-name="Sigma" unicode="&#x3a3;" horiz-adv-x="696" 
d="M395 349l-233 -303q79 0 133 0.5t101 4.5t74.5 6t52.5 12t36.5 16t25.5 23.5t20 29t19 38.5q23 0 23 -13t-9 -67t-9 -74q0 -23 -21 -23q-7 0 -117 0.5t-246.5 0.5h-208.5l-4 18l252 331l-247 322l6 19q64 0 297 0.5t236 0.5q8 0 14 -6t6 -16q0 -19 9.5 -77t9.5 -65
q0 -13 -24 -13q-17 39 -29.5 57.5t-36.5 36t-69 23.5t-109.5 9.5t-174.5 3.5z" />
    <glyph glyph-name="Tau" unicode="&#x3a4;" horiz-adv-x="623" 
d="M353 653v-605q0 -17 13 -17h66v-31h-254v31h66q13 0 13 17v605q-70 -2 -103 -5.5t-60 -17.5t-39 -31.5t-34 -59.5q-21 0 -21 10q0 4 1.5 18t3.5 40.5t2 62.5q0 11 4.5 15.5t18.5 4.5h563q23 0 23 -20q0 -36 2 -62.5t3.5 -40.5t1.5 -18q0 -10 -22 -10q-28 54 -50 74
t-62 28.5t-136 11.5z" />
    <glyph glyph-name="Upsilon" unicode="&#x3a5;" horiz-adv-x="687" 
d="M301 330l-227 311q-4 6 -14 11.5t-16 5.5h-40v32h254v-32h-67q-7 0 -9.5 -6t3.5 -14l185 -256q114 151 169 246q9 16 5 23t-18 7h-57v32h229v-32h-31q-16 0 -35 -17q-110 -125 -235 -291v-302q0 -17 13 -17h65v-31h-252v31h65q13 0 13 17v282z" />
    <glyph glyph-name="Phi" unicode="&#x3a6;" horiz-adv-x="802" 
d="M752 346q0 -97 -85.5 -160.5t-217.5 -73.5v-64q0 -17 12 -17h62v-31h-245v31h62q12 0 12 17v64q-132 11 -217 74t-85 160t85.5 162t216.5 77v57q0 16 -12 16h-62v32h245v-32h-62q-12 0 -12 -16v-56q131 -11 217 -76.5t86 -163.5zM648 346q0 86 -55 142.5t-144 68.5v-418
q90 12 144.5 66.5t54.5 140.5zM155 346q0 -86 54 -140.5t143 -66.5v417q-89 -13 -143 -68.5t-54 -141.5z" />
    <glyph glyph-name="Chi" unicode="&#x3a7;" horiz-adv-x="692" 
d="M385 372l242 -322q14 -19 30 -19h40v-31h-259v31h65q8 0 11 6.5t-3 14.5l-184 253q-132 -177 -169 -244q-9 -15 -5 -22.5t18 -7.5h57v-31h-234v31h32q7 0 17.5 6.5t15.5 12.5q111 122 242 286l-228 305q-13 17 -30 17h-40v32h257v-32h-66q-7 0 -9 -5.5t4 -16.5l171 -232
l175 224q10 15 6 22.5t-18 7.5h-58v32h237v-32h-36q-18 0 -35 -17q-22 -25 -112 -120.5t-134 -148.5z" />
    <glyph glyph-name="Psi" unicode="&#x3a8;" horiz-adv-x="771" 
d="M508 0h-245v31h62q12 0 12 17v213q-118 9 -188 61.5t-70 147.5q0 107 -9 147.5t-35 40.5h-35v32h94q45 0 60 -40t15 -153q0 -177 168 -202v347q0 16 -12 16h-62v32h245v-32h-62q-12 0 -12 -16v-347q168 26 168 202q0 113 15 153t60 40h94v-32h-35q-26 0 -35 -40.5
t-9 -147.5q0 -95 -70 -148t-188 -62v-212q0 -17 12 -17h62v-31z" />
    <glyph glyph-name="Iotadieresis" unicode="&#x3aa;" horiz-adv-x="357" 
d="M301 0h-245v31h62q12 0 12 17v594q0 16 -12 16h-62v32h245v-32h-62q-12 0 -12 -16v-594q0 -17 12 -17h62v-31zM94 831q18 0 31 -13t13 -32q0 -17 -13 -29.5t-31 -12.5t-30.5 12.5t-12.5 29.5q0 19 12.5 32t30.5 13zM261 831q19 0 31.5 -13t12.5 -32q0 -17 -12.5 -29.5
t-31.5 -12.5q-17 0 -30.5 12.5t-13.5 29.5q0 18 13.5 31.5t30.5 13.5z" />
    <glyph glyph-name="Upsilondieresis" unicode="&#x3ab;" horiz-adv-x="687" 
d="M301 330l-227 311q-4 6 -14 11.5t-16 5.5h-40v32h254v-32h-67q-7 0 -9.5 -6t3.5 -14l185 -256q114 151 169 246q9 16 5 23t-18 7h-57v32h229v-32h-31q-16 0 -35 -17q-110 -125 -235 -291v-302q0 -17 13 -17h65v-31h-252v31h65q13 0 13 17v282zM267 831q18 0 31 -13
t13 -32q0 -17 -13 -29.5t-31 -12.5t-30.5 12.5t-12.5 29.5q0 19 12.5 32t30.5 13zM434 831q19 0 31.5 -13t12.5 -32q0 -17 -12.5 -29.5t-31.5 -12.5q-17 0 -30.5 12.5t-13.5 29.5q0 18 13 31.5t31 13.5z" />
    <glyph glyph-name="alphatonos" unicode="&#x3ac;" horiz-adv-x="557" 
d="M504 455q-29 -135 -116 -272q16 -67 33 -90.5t39 -23.5q33 0 56 23l12 -12q-12 -35 -41 -63.5t-57 -28.5q-30 0 -49.5 35t-33.5 107q-50 -72 -92.5 -109.5t-86.5 -37.5q-61 0 -91 55t-30 139q0 69 22 133t68 108t106 44q28 0 50.5 -18t37.5 -53.5t25 -73t19 -89.5
q21 44 33 104t12 106q38 24 71 24q13 0 13 -7zM183 77q94 0 153 91q-25 118 -50 163.5t-72 45.5q-60 0 -92 -46t-32 -116q0 -57 24 -97.5t69 -40.5zM280 724q0 5 14 5q42 0 73 -18q-24 -110 -78 -201q-4 -6 -15 -6q-5 0 -8 1.5t-2 4.5q23 127 16 214z" />
    <glyph glyph-name="epsilontonos" unicode="&#x3ad;" horiz-adv-x="387" 
d="M125 218q-66 37 -66 104q0 56 46.5 98t126.5 42q56 0 89 -13.5t33 -33.5q0 -15 -15 -40.5t-32 -25.5q-44 47 -122 47q-42 0 -64 -17.5t-22 -42.5q0 -27 23 -48.5t61 -21.5q20 0 44.5 3t27.5 3q17 0 17 -24q0 -25 -11 -40.5t-28 -15.5q-7 0 -26.5 2.5t-31.5 2.5
q-33 0 -52.5 -17.5t-19.5 -42.5q0 -29 28.5 -51t82.5 -22q80 0 129 36l15 -15q-19 -43 -69 -72.5t-103 -29.5q-66 0 -101 34t-35 83q0 36 20 68.5t55 49.5zM189 724q0 5 14 5q42 0 73 -18q-24 -110 -78 -201q-4 -6 -15 -6q-5 0 -8 1.5t-2 4.5q23 127 16 214z" />
    <glyph glyph-name="etatonos" unicode="&#x3ae;" horiz-adv-x="527" 
d="M146 221q-3 145 -60 145q-27 0 -57 -17l-6 23q63 90 113 90q27 0 38 -41.5t11 -131.5q25 70 75.5 121.5t92.5 51.5q23 0 40 -9t27.5 -30t17 -43.5t9.5 -62t4 -72.5t1 -87q0 -188 -18 -378q-47 -20 -85 -20q41 175 41 371q0 129 -15.5 182t-53.5 53q-66 0 -132 -112
q7 -133 7 -219q0 -33 -17 -47.5t-39 -14.5q-34 0 -34 23q2 90 40 225zM240 724q0 5 14 5q42 0 73 -18q-24 -110 -78 -201q-4 -6 -15 -6q-5 0 -8 1.5t-2 4.5q23 127 16 214z" />
    <glyph glyph-name="iotatonos" unicode="&#x3af;" horiz-adv-x="287" 
d="M96 71v368q40 24 80 24q14 0 14 -5q-25 -189 -25 -354q0 -31 9 -44t29 -13q35 0 57 24l13 -13q-11 -24 -43.5 -49.5t-68.5 -25.5q-65 0 -65 88zM125 724q0 5 14 5q42 0 73 -18q-24 -110 -78 -201q-4 -6 -15 -6q-5 0 -8 1.5t-2 4.5q23 127 16 214z" />
    <glyph glyph-name="upsilondieresistonos" unicode="&#x3b0;" horiz-adv-x="475" 
d="M167 294q0 -111 21 -163.5t69 -52.5q54 0 87 50.5t33 116.5q0 53 -24.5 95t-72.5 55q0 27 13 47.5t38 20.5q51 0 75.5 -42t24.5 -111q0 -71 -24 -146t-69.5 -128t-98.5 -53q-69 0 -94.5 58.5t-25.5 175.5q0 151 -50 151q-26 0 -55 -15l-8 22q64 88 113 88q26 0 37 -40.5
t11 -128.5zM126 622q19 0 33 -15.5t14 -37.5t-14 -37.5t-33 -15.5t-33 15.5t-14 37.5t14 37.5t33 15.5zM351 622q19 0 33 -15.5t14 -37.5t-14 -37.5t-33 -15.5t-33 15.5t-14 37.5t14 37.5t33 15.5zM222 724q0 5 14 5q42 0 73 -18q-24 -110 -78 -201q-4 -6 -15 -6
q-5 0 -8 1.5t-2 4.5q23 127 16 214z" />
    <glyph glyph-name="alpha" unicode="&#x3b1;" horiz-adv-x="557" 
d="M504 455q-29 -135 -116 -272q16 -67 33 -90.5t39 -23.5q33 0 56 23l12 -12q-12 -35 -41 -63.5t-57 -28.5q-30 0 -49.5 35t-33.5 107q-50 -72 -92.5 -109.5t-86.5 -37.5q-61 0 -91 55t-30 139q0 69 22 133t68 108t106 44q28 0 50.5 -18t37.5 -53.5t25 -73t19 -89.5
q21 44 33 104t12 106q38 24 71 24q13 0 13 -7zM183 77q94 0 153 91q-25 118 -50 163.5t-72 45.5q-60 0 -92 -46t-32 -116q0 -57 24 -97.5t69 -40.5z" />
    <glyph glyph-name="beta" unicode="&#x3b2;" horiz-adv-x="515" 
d="M176 -215q-34 -25 -75 -25q-11 0 -11 5v623q0 133 65.5 226t170.5 93q64 0 96 -40.5t32 -101.5q0 -60 -35 -118t-84 -71q63 -11 98.5 -58.5t35.5 -108.5q0 -86 -52 -158.5t-127 -72.5q-68 0 -127 83q5 -168 13 -276zM160 405q-1 -126 2 -298q48 -47 120 -47
q68 0 105 36.5t37 86.5q0 52 -38.5 92t-104.5 40q-32 0 -44 -3q-10 -4 -15 3.5t-5 22.5q0 24 10.5 44.5t23.5 13.5q71 0 109 39.5t38 89.5q0 45 -31.5 78.5t-84.5 33.5q-62 0 -91.5 -55t-30.5 -177z" />
    <glyph glyph-name="gamma" unicode="&#x3b3;" horiz-adv-x="480" 
d="M442 462q11 0 11 -12q0 -31 -59 -175t-114 -248q11 -105 11 -205q0 -33 -22 -47.5t-45 -14.5q-34 0 -34 23q0 108 44 234q-27 149 -57 233t-56 110t-61 26q-27 0 -53 -14l-6 23q51 67 120 67q35 0 61 -28.5t43.5 -84t28.5 -114t21 -140.5q81 183 81 293q0 38 -12 57
q44 17 98 17z" />
    <glyph glyph-name="delta" unicode="&#x3b4;" horiz-adv-x="469" 
d="M244 57q54 0 89 36t35 100q0 126 -136 214q-111 -72 -111 -197q0 -69 31.5 -111t91.5 -42zM209 669q-64 0 -64 -52q0 -24 20.5 -51t87.5 -69q97 -63 134.5 -121.5t37.5 -142.5q0 -58 -25 -114.5t-75.5 -96t-112.5 -39.5q-79 0 -121.5 49t-42.5 128q0 170 158 267
q-76 51 -101 88.5t-25 72.5q0 46 38.5 82.5t107.5 36.5q73 0 142 -35t69 -66q0 -21 -17 -41t-36 -20q-6 29 -62 76.5t-113 47.5z" />
    <glyph glyph-name="epsilon" unicode="&#x3b5;" horiz-adv-x="387" 
d="M125 218q-66 37 -66 104q0 56 46.5 98t126.5 42q56 0 89 -13.5t33 -33.5q0 -15 -15 -40.5t-32 -25.5q-44 47 -122 47q-42 0 -64 -17.5t-22 -42.5q0 -27 23 -48.5t61 -21.5q20 0 44.5 3t27.5 3q17 0 17 -24q0 -25 -11 -40.5t-28 -15.5q-7 0 -26.5 2.5t-31.5 2.5
q-33 0 -52.5 -17.5t-19.5 -42.5q0 -29 28.5 -51t82.5 -22q80 0 129 36l15 -15q-19 -43 -69 -72.5t-103 -29.5q-66 0 -101 34t-35 83q0 36 20 68.5t55 49.5z" />
    <glyph glyph-name="zeta" unicode="&#x3b6;" horiz-adv-x="388" 
d="M386 648q-149 -183 -205 -269t-56 -154q0 -43 26.5 -73.5t64 -47l75 -32t64 -40.5t26.5 -61q0 -83 -125 -200l-20 14q71 86 71 145q0 22 -27 39.5t-66 32.5t-78 33.5t-66 52t-27 77.5q0 90 69.5 204t207.5 265q-97 -34 -164 -34q-101 0 -101 71q0 23 13 57h20
q0 -25 47 -39t115 -14q61 0 118 12q31 41 62 41q13 0 22 -8t9 -19q0 -17 -18.5 -32t-56.5 -21z" />
    <glyph glyph-name="eta" unicode="&#x3b7;" horiz-adv-x="527" 
d="M146 221q-3 145 -60 145q-27 0 -57 -17l-6 23q63 90 113 90q27 0 38 -41.5t11 -131.5q25 70 75.5 121.5t92.5 51.5q23 0 40 -9t27.5 -30t17 -43.5t9.5 -62t4 -72.5t1 -87q0 -188 -18 -378q-47 -20 -85 -20q41 175 41 371q0 129 -15.5 182t-53.5 53q-66 0 -132 -112
q7 -133 7 -219q0 -33 -17 -47.5t-39 -14.5q-34 0 -34 23q2 90 40 225z" />
    <glyph glyph-name="theta" unicode="&#x3b8;" horiz-adv-x="556" 
d="M286 707q93 0 151.5 -97t58.5 -255q0 -59 -12 -120t-37 -119.5t-70.5 -95.5t-105.5 -37q-92 0 -151.5 96t-59.5 253q0 59 12.5 120.5t37 120.5t70.5 96.5t106 37.5zM286 20q56 0 90 75.5t34 200.5v23h-263q9 -142 45 -220.5t94 -78.5zM268 665q-54 0 -88.5 -77
t-34.5 -203v-19h262q-11 141 -46.5 220t-92.5 79z" />
    <glyph glyph-name="iota" unicode="&#x3b9;" horiz-adv-x="287" 
d="M96 71v368q40 24 80 24q14 0 14 -5q-25 -189 -25 -354q0 -31 9 -44t29 -13q35 0 57 24l13 -13q-11 -24 -43.5 -49.5t-68.5 -25.5q-65 0 -65 88z" />
    <glyph glyph-name="kappa" unicode="&#x3ba;" horiz-adv-x="521" 
d="M192 374q0 -28 -5.5 -97t-5.5 -79q81 73 129.5 139.5t49.5 101.5q40 24 86 24q13 0 13 -7q0 -12 -51 -71t-116 -123q54 -96 84.5 -141.5t47 -58t38.5 -12.5t36 7l9 -21q-47 -43 -93 -43q-43 0 -75 39.5t-104 175.5q-23 -22 -56 -49q-3 -75 -3 -153q-30 -17 -55 -17
q-11 0 -11 6v323q0 71 -21 71q-13 0 -49 -27l-6 22q22 31 55.5 55t64.5 24q22 0 30 -20.5t8 -68.5z" />
    <glyph glyph-name="lambda" unicode="&#x3bb;" horiz-adv-x="470" 
d="M294 413q65 -274 86 -319q21 -33 45 -35q22 0 39 7l8 -23q-50 -50 -95 -50q-42 0 -62.5 49.5t-59.5 211.5q-14 62 -23 97q-126 -278 -85 -351q-46 -17 -100 -17q-10 0 -10 13q0 30 51.5 143.5t131.5 259.5q-34 132 -57.5 182.5t-64.5 50.5q-29 0 -53 -14l-12 20
q55 69 125 69q46 0 78 -80q20 -51 58 -214z" />
    <glyph glyph-name="nu" unicode="&#x3bd;" horiz-adv-x="428" 
d="M0 378q0 34 14.5 59.5t33.5 25.5q64 0 114 -108.5t62 -272.5q41 74 62.5 152t21.5 136q0 49 -17 76q44 17 96 17q11 0 11 -12q0 -39 -58 -196t-119 -249q-16 -23 -51 -23q-13 122 -32.5 204.5t-43.5 122t-46 54t-48 14.5z" />
    <glyph glyph-name="xi" unicode="&#x3be;" horiz-adv-x="387" 
d="M287 629q-106 -31 -156 -31q-73 0 -73 54q0 27 16 66h22q0 -49 131 -49q49 0 108 8q27 38 57 38q15 0 24.5 -9.5t9.5 -23.5q0 -18 -18 -31.5t-56 -15.5q-112 -68 -155 -105t-43 -76q0 -73 167 -73q8 0 8 -19q0 -14 -9 -14q-102 -34 -146.5 -72.5t-44.5 -96.5
q0 -40 25 -65.5t61.5 -37l72.5 -23t61 -35.5t25 -62q0 -72 -123 -187l-20 16q34 41 52.5 80t18.5 64q0 21 -26.5 35t-64 25.5t-74.5 27t-63.5 48.5t-26.5 81q0 60 48 110t135 83q-72 0 -110 23.5t-38 62.5q0 89 205 204z" />
    <glyph glyph-name="omicron" unicode="&#x3bf;" horiz-adv-x="458" 
d="M243 462q82 0 125 -59.5t43 -150.5q0 -66 -21.5 -126t-68 -101.5t-107.5 -41.5q-87 0 -127 58.5t-40 151.5q0 105 52.5 187t143.5 82zM220 379q-60 0 -93 -43.5t-33 -99.5q0 -67 38.5 -120t107.5 -53q59 0 91 43.5t32 100.5q0 67 -38 119.5t-105 52.5z" />
    <glyph glyph-name="pi" unicode="&#x3c0;" horiz-adv-x="550" 
d="M466 362h-84q-3 -87 -3 -228q0 -46 13.5 -62.5t39.5 -16.5q28 0 49 25l17 -14q-12 -26 -43.5 -54.5t-66.5 -28.5q-71 0 -71 102q0 72 29 277l-157 6q5 -136 5 -325q0 -31 -19 -45.5t-41 -14.5q-33 0 -33 22q0 10 8.5 51.5t23 127t26.5 184.5l-64 1q-21 0 -34 -6t-18 -12
t-11 -18l-18 17q0 23 36 58t81 35q40 0 160.5 -1.5t135.5 -1.5q68 0 69 15q23 0 23 -11q0 -29 -2 -43t-14 -26.5t-37 -12.5z" />
    <glyph glyph-name="rho" unicode="&#x3c1;" horiz-adv-x="512" 
d="M321 462q70 0 107 -61t37 -151q0 -106 -48.5 -186.5t-129.5 -80.5q-71 0 -131 79q6 -195 13 -278q-32 -25 -73 -25q-11 0 -11 5v395q0 129 66 216t170 87zM154 222q0 -73 1 -115q48 -44 114 -44q70 0 108 45t38 111t-36 113t-101 47q-64 0 -94 -35t-30 -122z" />
    <glyph glyph-name="sigma1" unicode="&#x3c2;" horiz-adv-x="422" 
d="M270 462q62 0 95.5 -20t33.5 -50q0 -23 -15 -47t-34 -24q-39 60 -119 60q-59 0 -93.5 -40t-34.5 -111q0 -112 113 -187q79 -53 111.5 -91.5t32.5 -78.5q0 -45 -35 -80.5t-75 -35.5l-5 21q19 6 33.5 20t14.5 34q0 31 -22 56.5t-84 63.5q-140 86 -140 240q0 62 26 123
t78.5 104t118.5 43z" />
    <glyph glyph-name="sigma" unicode="&#x3c3;" horiz-adv-x="510" 
d="M260 49q45 0 74 36t29 92q0 103 -77 203q-7 0 -22.5 0.5t-23.5 0.5q-58 0 -90.5 -45.5t-32.5 -116.5q0 -69 37.5 -119.5t105.5 -50.5zM451 366q-13 0 -38 2t-53 5t-35 4q49 -19 75 -64t26 -100q0 -89 -59.5 -159.5t-162.5 -70.5q-74 0 -115.5 55.5t-41.5 136.5
q0 67 28 128t90.5 104t148.5 43q17 0 63.5 -4.5t58.5 -4.5q49 0 50 15q18 0 18 -11q0 -22 -1 -33t-6 -23.5t-16 -17.5t-30 -5z" />
    <glyph glyph-name="tau" unicode="&#x3c4;" horiz-adv-x="427" 
d="M357 362q-50 0 -140 2q-5 -87 -5 -230q0 -45 17 -60t45 -15q43 0 63 23l14 -16q-11 -25 -47.5 -54t-71.5 -29q-39 0 -59.5 28t-20.5 75q0 109 24 279q-54 4 -92 4q-21 0 -33.5 -5t-17 -10.5t-10.5 -16.5l-20 13q0 24 36 58.5t81 34.5q40 0 106.5 -1.5t81.5 -1.5
q82 0 83 15q18 0 18 -11q0 -17 -0.5 -26.5t-3 -22t-8 -18.5t-15.5 -10.5t-25 -4.5z" />
    <glyph glyph-name="upsilon" unicode="&#x3c5;" horiz-adv-x="475" 
d="M167 294q0 -111 21 -163.5t69 -52.5q54 0 87 50.5t33 116.5q0 53 -24.5 95t-72.5 55q0 27 13 47.5t38 20.5q51 0 75.5 -42t24.5 -111q0 -71 -24 -146t-69.5 -128t-98.5 -53q-69 0 -94.5 58.5t-25.5 175.5q0 151 -50 151q-26 0 -55 -15l-8 22q64 88 113 88q26 0 37 -40.5
t11 -128.5z" />
    <glyph glyph-name="phi" unicode="&#x3c6;" horiz-adv-x="554" 
d="M247 679q11 10 34 18.5t41 8.5q-10 -100 -15 -238q93 -5 148 -64.5t55 -156.5q0 -96 -58 -172t-153 -91q-3 -115 -9 -207q-20 -17 -50 -17q6 97 8 224q-93 4 -148.5 63t-55.5 155t55 171.5t148 92.5v213zM301 52q160 3 160 168q0 68 -41.5 112.5t-114.5 56.5
q-1 -57 -2 -168.5t-2 -168.5zM247 393q-154 -6 -154 -157q0 -72 42 -120t114 -60q0 21 -2 337z" />
    <glyph glyph-name="chi" unicode="&#x3c7;" horiz-adv-x="451" 
d="M397 -166q35 0 63 16l8 -23q-21 -28 -54.5 -47.5t-66.5 -19.5q-16 0 -28.5 7t-23.5 23t-19 33.5t-17 48t-15.5 55l-17 66.5t-19.5 73q-137 -228 -95 -289q-46 -17 -98 -17q-11 0 -11 12q0 41 194 331q-22 76 -41.5 127.5t-35.5 80t-34.5 43.5t-32.5 18.5t-36 3.5
q0 27 21 57t50 30q49 0 81.5 -58t78.5 -224q81 133 81 211q0 32 -15 54q46 17 99 17q10 0 10 -12q0 -51 -165 -306q59 -218 69 -245q21 -55 49 -63q9 -3 21 -3z" />
    <glyph glyph-name="psi" unicode="&#x3c8;" horiz-adv-x="603" 
d="M276 680q10 9 35.5 18t43.5 9q-30 -165 -30 -490q0 -40 -2 -138q80 9 121 63.5t41 131.5q0 75 -35 133q1 21 16 37.5t42 16.5q23 0 35.5 -29t12.5 -76q0 -51 -14.5 -107.5t-42 -110.5t-74.5 -95t-104 -54q-5 -156 -11 -212q-20 -17 -49 -17q8 79 12 223q-110 0 -168 78
t-58 192q0 103 43 179q14 29 38 29q6 0 8 -4q-29 -89 -29 -172q0 -194 168 -208q1 45 1 124v479z" />
    <glyph glyph-name="omega" unicode="&#x3c9;" horiz-adv-x="676" 
d="M352 356q28 -2 28 -22q0 -64 -18 -124q9 -66 44 -106t86 -40q38 0 60.5 35t22.5 93q0 84 -35.5 145t-74.5 68q1 21 16.5 38.5t41.5 17.5q47 0 76.5 -62t29.5 -164q0 -96 -51.5 -174t-122.5 -78q-47 0 -82.5 38t-48.5 96q-61 -134 -141 -134q-65 0 -100.5 50.5
t-35.5 127.5q0 86 41 171.5t115 130.5l17 -23q-43 -26 -72 -98t-29 -145q0 -59 22 -96t67 -37q73 0 109 106q-12 65 -12 146q0 20 14 30t33 10z" />
    <glyph glyph-name="iotadieresis" unicode="&#x3ca;" horiz-adv-x="287" 
d="M96 71v368q40 24 80 24q14 0 14 -5q-25 -189 -25 -354q0 -31 9 -44t29 -13q35 0 57 24l13 -13q-11 -24 -43.5 -49.5t-68.5 -25.5q-65 0 -65 88zM49 653q20 0 34 -15t14 -37t-14.5 -38t-33.5 -16t-33 16t-14 38t13.5 37t33.5 15zM238 653q20 0 34 -15t14 -37t-14 -38
t-34 -16t-34 16t-14 38t14 37t34 15z" />
    <glyph glyph-name="upsilondieresis" unicode="&#x3cb;" horiz-adv-x="475" 
d="M167 294q0 -111 21 -163.5t69 -52.5q54 0 87 50.5t33 116.5q0 53 -24.5 95t-72.5 55q0 27 13 47.5t38 20.5q51 0 75.5 -42t24.5 -111q0 -71 -24 -146t-69.5 -128t-98.5 -53q-69 0 -94.5 58.5t-25.5 175.5q0 151 -50 151q-26 0 -55 -15l-8 22q64 88 113 88q26 0 37 -40.5
t11 -128.5zM142 653q20 0 34 -15t14 -37t-14.5 -38t-33.5 -16t-33 16t-14 38t13.5 37t33.5 15zM331 653q20 0 34 -15t14 -37t-14 -38t-34 -16t-34 16t-14 38t14 37t34 15z" />
    <glyph glyph-name="omicrontonos" unicode="&#x3cc;" horiz-adv-x="458" 
d="M243 462q82 0 125 -59.5t43 -150.5q0 -66 -21.5 -126t-68 -101.5t-107.5 -41.5q-87 0 -127 58.5t-40 151.5q0 105 52.5 187t143.5 82zM220 379q-60 0 -93 -43.5t-33 -99.5q0 -67 38.5 -120t107.5 -53q59 0 91 43.5t32 100.5q0 67 -38 119.5t-105 52.5zM216 724q0 5 14 5
q42 0 73 -18q-24 -110 -78 -201q-4 -6 -15 -6q-5 0 -8 1.5t-2 4.5q23 127 16 214z" />
    <glyph glyph-name="upsilontonos" unicode="&#x3cd;" horiz-adv-x="475" 
d="M167 294q0 -111 21 -163.5t69 -52.5q54 0 87 50.5t33 116.5q0 53 -24.5 95t-72.5 55q0 27 13 47.5t38 20.5q51 0 75.5 -42t24.5 -111q0 -71 -24 -146t-69.5 -128t-98.5 -53q-69 0 -94.5 58.5t-25.5 175.5q0 151 -50 151q-26 0 -55 -15l-8 22q64 88 113 88q26 0 37 -40.5
t11 -128.5zM222 724q0 5 14 5q42 0 73 -18q-24 -110 -78 -201q-4 -6 -15 -6q-5 0 -8 1.5t-2 4.5q23 127 16 214z" />
    <glyph glyph-name="omegatonos" unicode="&#x3ce;" horiz-adv-x="676" 
d="M352 356q28 -2 28 -22q0 -64 -18 -124q9 -66 44 -106t86 -40q38 0 60.5 35t22.5 93q0 84 -35.5 145t-74.5 68q1 21 16.5 38.5t41.5 17.5q47 0 76.5 -62t29.5 -164q0 -96 -51.5 -174t-122.5 -78q-47 0 -82.5 38t-48.5 96q-61 -134 -141 -134q-65 0 -100.5 50.5
t-35.5 127.5q0 86 41 171.5t115 130.5l17 -23q-43 -26 -72 -98t-29 -145q0 -59 22 -96t67 -37q73 0 109 106q-12 65 -12 146q0 20 14 30t33 10zM336 724q0 5 14 5q42 0 73 -18q-24 -110 -78 -201q-4 -6 -15 -6q-5 0 -8 1.5t-2 4.5q23 127 16 214z" />
    <glyph glyph-name="afii10023" unicode="&#x401;" horiz-adv-x="604" 
d="M225 649v-273q165 3 191 12q21 7 24 29q1 3 1 5l3 30q31 0 31 -8q0 -15 -1 -41.5t-1 -42.5t1 -46t1 -45q0 -11 -31 -11l-4 31q-1 12 -3.5 19t-12 13t-21 9t-38 5t-57 2.5t-83.5 1.5v-294q66 1 103 2.5t72.5 6t52.5 10t33.5 18t25 27.5t19.5 40q26 0 26 -12
q0 -10 -9 -55.5t-9 -59.5q0 -10 -6.5 -17t-14.5 -7q-4 0 -201 1t-261 1v31h59q13 0 13 17v594q0 16 -13 16h-59v32q63 0 243.5 1.5t185.5 1.5q23 0 23 -22q0 -15 3 -52t3 -53q0 -11 -24 -11q-7 23 -13 36t-19.5 24.5t-28.5 16.5t-46 9.5t-65 5.5t-93 2zM223 831q18 0 31 -13
t13 -32q0 -17 -13 -29.5t-31 -12.5t-30.5 12.5t-12.5 29.5q0 19 12.5 32t30.5 13zM390 831q19 0 31.5 -13t12.5 -32q0 -17 -12.5 -29.5t-31.5 -12.5q-17 0 -30.5 12.5t-13.5 29.5q0 18 13 31.5t31 13.5z" />
    <glyph glyph-name="afii10051" unicode="&#x402;" horiz-adv-x="797" 
d="M544 453q68 0 114 -38.5t46 -110.5v-267q0 -98 -68 -174.5t-168 -76.5q-71 0 -71 55q0 19 12.5 33t32.5 14q24 0 40 -24.5t39 -24.5q36 0 60.5 43.5t24.5 129.5v267q0 53 -31.5 79.5t-80.5 26.5q-53 0 -97 -26t-44 -66v-245q0 -17 13 -17h66v-31h-254v31h66q13 0 13 17
v605q-70 -2 -103 -5.5t-60 -17.5t-39 -31.5t-34 -59.5q-21 0 -21 10q0 4 1.5 18t3.5 40.5t2 62.5q0 11 4.5 15.5t18.5 4.5h563q23 0 23 -20q0 -36 2 -62.5t3.5 -40.5t1.5 -18q0 -10 -22 -10q-28 54 -50 74t-62 28.5t-136 11.5v-291q27 43 81.5 67t109.5 24z" />
    <glyph glyph-name="afii10052" unicode="&#x403;" horiz-adv-x="532" 
d="M56 690h446q23 0 23 -20q0 -36 1.5 -62.5t3.5 -40.5t2 -18q0 -10 -22 -10q-13 29 -20.5 43t-23.5 29t-30.5 20.5t-47 11t-68 7t-98.5 3.5v-605q0 -17 13 -17h66v-31h-245v31h62q12 0 12 17v594q0 16 -12 16h-62v32zM429 842l-164 -126l-21 6l115 141q13 17 52 17
q31 0 31 -17q0 -8 -13 -21z" />
    <glyph glyph-name="afii10053" unicode="&#x404;" horiz-adv-x="748" 
d="M674 654q12 -8 12 -19q0 -19 5 -72.5t5 -65.5t-25 -12q-17 84 -73.5 130.5t-150.5 46.5q-111 0 -190 -81.5t-90 -206.5q203 3 236 14q26 7 30 31v3l3 30q31 0 31 -8q0 -15 -1 -41.5t-1 -42.5t1 -46t1 -45q0 -11 -31 -11l-4 31q-2 17 -10 26t-37.5 15t-77.5 8t-141 3
q0 -134 81.5 -223.5t194.5 -89.5q35 0 70 8.5t70.5 27.5t61 55t33.5 85q27 0 27 -13q0 -11 -4.5 -61.5t-4.5 -69.5q0 -6 -2.5 -9.5t-8.5 -7t-8 -5.5q-88 -54 -248 -54q-155 0 -263.5 100.5t-108.5 251.5t118 261t277 110q140 0 223 -53z" />
    <glyph glyph-name="afii10054" unicode="&#x405;" horiz-adv-x="522" 
d="M439 642l3 -88q0 -16 -25 -16q-15 53 -49.5 87t-88.5 34q-57 0 -88 -33t-31 -85q0 -20 7.5 -38t15 -29t30.5 -27.5t33 -23t44 -26.5q93 -56 128.5 -101.5t35.5 -113.5q0 -95 -64.5 -146.5t-159.5 -51.5q-56 0 -98.5 12.5t-60.5 27.5t-19 29l-5 98q-1 8 6.5 11.5t18.5 3.5
q20 -56 63 -95t104 -39q57 0 93 32t36 91q0 51 -26.5 81t-110.5 79q-78 45 -115 90.5t-37 117.5q0 66 56.5 125t147.5 59q66 0 110.5 -19t45.5 -46z" />
    <glyph glyph-name="afii10055" unicode="&#x406;" horiz-adv-x="357" 
d="M301 0h-245v31h62q12 0 12 17v594q0 16 -12 16h-62v32h245v-32h-62q-12 0 -12 -16v-594q0 -17 12 -17h62v-31z" />
    <glyph glyph-name="afii10056" unicode="&#x407;" horiz-adv-x="357" 
d="M301 0h-245v31h62q12 0 12 17v594q0 16 -12 16h-62v32h245v-32h-62q-12 0 -12 -16v-594q0 -17 12 -17h62v-31zM94 831q18 0 31 -13t13 -32q0 -17 -13 -29.5t-31 -12.5t-30.5 12.5t-12.5 29.5q0 19 12.5 32t30.5 13zM261 831q19 0 31.5 -13t12.5 -32q0 -17 -12.5 -29.5
t-31.5 -12.5q-17 0 -30.5 12.5t-13.5 29.5q0 18 13.5 31.5t30.5 13.5z" />
    <glyph glyph-name="afii10057" unicode="&#x408;" horiz-adv-x="334" 
d="M224 37q0 -98 -67.5 -174.5t-167.5 -76.5q-36 0 -54.5 17.5t-18.5 44.5q0 19 13.5 34.5t33.5 15.5q24 0 40 -24.5t39 -24.5q36 0 60.5 43.5t24.5 129.5v620q0 16 -13 16h-61v32h244v-32h-61q-12 0 -12 -16v-605z" />
    <glyph glyph-name="afii10058" unicode="&#x409;" horiz-adv-x="1031" 
d="M627 642v-247q38 2 55 2q299 0 299 -201q0 -89 -72.5 -142.5t-218.5 -53.5h-232v31h59q13 0 13 17v594q0 16 -12 16h-179q-11 0 -11 -15q-2 -71 -5 -125t-10 -126.5t-17 -126t-27.5 -109.5t-40 -91.5t-56 -58.5t-74.5 -23q-51 0 -74.5 21t-23.5 53q0 20 13.5 34.5
t33.5 14.5q22 0 32.5 -10.5t11 -23.5t9 -23.5t27.5 -10.5q28 0 50 39.5t35.5 101.5t22 144.5t12 160t3.5 157.5q0 17 -14 17h-75v32h540v-32h-62q-12 0 -12 -16zM627 40q133 0 190.5 37.5t57.5 119.5q0 37 -9 63.5t-34 51t-76.5 37.5t-128.5 13v-322z" />
    <glyph glyph-name="afii10059" unicode="&#x40a;" horiz-adv-x="1033" 
d="M703 690v-32h-62q-12 0 -12 -16v-247q38 2 55 2q299 0 299 -201q0 -89 -72.5 -142.5t-218.5 -53.5h-232v31h59q13 0 13 17v308h-306v-308q0 -17 13 -17h62v-31h-245v31h62q12 0 12 17v594q0 16 -12 16h-62v32h245v-32h-62q-13 0 -13 -16v-252h306v252q0 16 -13 16h-59v32
h243zM629 40q133 0 190.5 37.5t57.5 119.5q0 37 -9 63.5t-34 51t-76.5 37.5t-128.5 13v-322z" />
    <glyph glyph-name="afii10060" unicode="&#x40b;" horiz-adv-x="834" 
d="M705 304v-256q0 -17 13 -17h66v-31h-254v31h66q13 0 13 17v231q0 53 -32.5 79.5t-82.5 26.5q-53 0 -97 -26t-44 -66v-245q0 -17 13 -17h66v-31h-254v31h66q13 0 13 17v605q-70 -2 -103 -5.5t-60 -17.5t-39 -31.5t-34 -59.5q-21 0 -21 10q0 4 1.5 18t3.5 40.5t2 62.5
q0 11 4.5 15.5t18.5 4.5h563q23 0 23 -20q0 -36 2 -62.5t3.5 -40.5t1.5 -18q0 -10 -22 -10q-28 54 -50 74t-62 28.5t-136 11.5v-291q27 43 81.5 67t109.5 24q68 0 114.5 -38.5t46.5 -110.5z" />
    <glyph glyph-name="afii10061" unicode="&#x40c;" horiz-adv-x="692" 
d="M296 404q147 -134 333 -358q14 -15 31 -15h40v-31h-270v31h70q4 0 7.5 3t3.5 7q0 6 -13 21q-49 60 -140 159t-131 135v-308q0 -17 12 -17h62v-31h-245v31h62q12 0 12 17v594q0 16 -12 16h-62v32h245v-32h-62q-12 0 -12 -16v-263q47 44 89 97t68 90.5t53.5 71.5t58 51.5
t69.5 17.5q51 0 76.5 -22.5t25.5 -53.5q0 -19 -15.5 -34t-35.5 -15q-22 0 -32 11t-11 24t-9.5 24t-27.5 11q-20 0 -41 -22t-77.5 -90.5t-121.5 -135.5zM502 842l-164 -126l-21 6l115 141q13 17 52 17q31 0 31 -17q0 -8 -13 -21z" />
    <glyph glyph-name="afii10062" unicode="&#x40e;" horiz-adv-x="577" 
d="M183 831q0 13 12 21t28 8q34 0 34 -26q0 -41 14 -57.5t55 -16.5q35 0 49 15.5t14 58.5q0 25 35 25q16 0 28 -7.5t12 -20.5q0 -59 -36 -82.5t-102 -23.5q-143 0 -143 106zM239 690v-32h-53q-14 0 -20 -6t0 -16l165 -366l144 359q12 29 -19 29h-45v32h205v-32h-35
q-20 0 -31 -21q-83 -159 -215 -451q-47 -105 -94.5 -154t-115.5 -49q-36 0 -61 18t-25 49q0 59 46 59q16 0 25.5 -10t13 -22t12 -22t22.5 -10q35 0 65 30.5t64 103.5q-23 56 -113 234t-122 234q-7 11 -19 11h-37v32h243z" />
    <glyph glyph-name="afii10145" unicode="&#x40f;" horiz-adv-x="822" 
d="M365 0h-309v32h61q12 0 12 16v594q0 17 -12 17h-61v31h244v-31h-61q-13 0 -13 -17v-583q1 -12 13 -12h344q12 0 13 12v583q0 17 -13 17h-62v31h245v-31h-62q-12 0 -12 -17v-594q0 -16 12 -16h61v-32h-309q-31 -83 -31 -164h-27q0 84 -33 164z" />
    <glyph glyph-name="afii10017" unicode="&#x410;" horiz-adv-x="636" 
d="M191 292h219l-108 290zM422 255h-244l-70 -182q-7 -22 -1.5 -32t20.5 -10h46v-31h-205v31h30q18 0 31 30q146 310 272 643h56q23 -72 119.5 -325.5t129.5 -329.5q10 -18 19 -18h36v-31h-238v31h56q9 0 13.5 6.5t-0.5 25.5z" />
    <glyph glyph-name="afii10018" unicode="&#x411;" horiz-adv-x="633" 
d="M225 40q133 0 190.5 36t57.5 111q0 33 -9 58t-34 48.5t-76.5 36t-128.5 12.5v-302zM56 690l439 1q23 0 23 -20q0 -36 2 -62.5t3.5 -40.5t1.5 -18q0 -10 -22 -10q-10 31 -22 49.5t-28 31.5t-49 19t-71 9t-108 5v-279q190 0 272 -52.5t82 -136.5q0 -82 -73 -134t-218 -52
h-232v31h59q13 0 13 17v594q0 16 -13 16h-59v32z" />
    <glyph glyph-name="afii10019" unicode="&#x412;" horiz-adv-x="633" 
d="M428 514q0 69 -43 104.5t-160 35.5v-279q119 1 161 32.5t42 106.5zM225 40q133 0 190.5 36t57.5 111q0 33 -9 58t-34 48.5t-76.5 36t-128.5 12.5v-302zM371 365q93 -8 150.5 -56.5t57.5 -122.5q0 -82 -73 -134t-218 -52h-232v31h59q13 0 13 17v594q0 16 -13 16h-59v32
h227q130 0 190.5 -50t60.5 -116q0 -65 -45.5 -106t-117.5 -53z" />
    <glyph glyph-name="afii10020" unicode="&#x413;" horiz-adv-x="532" 
d="M56 690h446q23 0 23 -20q0 -36 1.5 -62.5t3.5 -40.5t2 -18q0 -10 -22 -10q-13 29 -20.5 43t-23.5 29t-30.5 20.5t-47 11t-68 7t-98.5 3.5v-605q0 -17 13 -17h66v-31h-245v31h62q12 0 12 17v594q0 16 -12 16h-62v32z" />
    <glyph glyph-name="afii10021" unicode="&#x414;" horiz-adv-x="760" 
d="M628 47h103q9 0 9 -11q0 -1 -2 -13t-5 -32t-5.5 -44t-4.5 -53.5t-2 -55.5h-28q0 107 -51 162h-540q-61 -57 -61 -162h-28q0 26 -2 55.5t-5 53.5l-5.5 44t-4.5 32t-2 13q0 11 10 11h90q11 0 18 12q117 213 117 582q0 17 -14 17h-75v32h550v-32h-62q-12 0 -12 -16v-578
q0 -17 12 -17zM507 658h-189q-11 0 -11 -15q-11 -336 -126 -576q-10 -20 10 -20h316q12 0 12 17v578q0 16 -12 16z" />
    <glyph glyph-name="afii10022" unicode="&#x415;" horiz-adv-x="604" 
d="M225 649v-273q165 3 191 12q21 7 24 29q1 3 1 5l3 30q31 0 31 -8q0 -15 -1 -41.5t-1 -42.5t1 -46t1 -45q0 -11 -31 -11l-4 31q-1 12 -3.5 19t-12 13t-21 9t-38 5t-57 2.5t-83.5 1.5v-294q66 1 103 2.5t72.5 6t52.5 10t33.5 18t25 27.5t19.5 40q26 0 26 -12
q0 -10 -9 -55.5t-9 -59.5q0 -10 -6.5 -17t-14.5 -7q-4 0 -201 1t-261 1v31h59q13 0 13 17v594q0 16 -13 16h-59v32q63 0 243.5 1.5t185.5 1.5q23 0 23 -22q0 -15 3 -52t3 -53q0 -11 -24 -11q-7 23 -13 36t-19.5 24.5t-28.5 16.5t-46 9.5t-65 5.5t-93 2z" />
    <glyph glyph-name="afii10024" unicode="&#x416;" horiz-adv-x="1027" 
d="M465 48v308q-40 -36 -131 -135t-140 -159q-13 -15 -13 -21q0 -4 3.5 -7t7.5 -3h70v-31h-270v31h40q17 0 31 15q186 224 333 358l-83.5 91t-60 71l-39 47.5t-31.5 30t-26 8.5q-19 0 -27.5 -11t-9.5 -24t-11 -24t-32 -11q-20 0 -35.5 15t-15.5 34q0 31 25.5 53.5t76.5 22.5
q39 0 69.5 -17.5t58 -51.5t53.5 -71.5t68 -90.5t89 -97v263q0 16 -12 16h-62v32h245v-32h-62q-12 0 -12 -16v-263q47 44 89 97t68 90.5t53.5 71.5t58 51.5t69.5 17.5q51 0 76.5 -22.5t25.5 -53.5q0 -19 -15.5 -34t-35.5 -15q-22 0 -32.5 11t-11 24t-9 24t-27.5 11
q-20 0 -41 -22t-77.5 -90.5t-121.5 -135.5q147 -134 333 -358q14 -15 31 -15h40v-31h-270v31h70q4 0 7.5 3t3.5 7q0 6 -13 21q-49 60 -140 159t-131 135v-308q0 -17 12 -17h62v-31h-245v31h62q12 0 12 17z" />
    <glyph glyph-name="afii10025" unicode="&#x417;" horiz-adv-x="529" 
d="M226 30q74 0 115 44t41 115q0 69 -43.5 115t-113.5 46q-33 0 -55.5 -6t-27.5 -6q-20 0 -20 21q0 24 22 24q42 0 73.5 4.5t65 18t52 44t18.5 76.5q0 69 -25 102t-86 33q-108 0 -138 -123q-25 0 -25 16l3 88q1 27 50 46t116 19q202 0 202 -152q0 -59 -41 -103.5t-96 -62.5
q65 -13 118 -62t53 -123q0 -96 -73.5 -158.5t-210.5 -62.5q-66 0 -108.5 22t-42.5 55q0 22 11 36t32 14q18 0 29.5 -8t19 -20t16.5 -24t26 -20t43 -8z" />
    <glyph glyph-name="afii10026" unicode="&#x418;" horiz-adv-x="823" 
d="M596 573l-370 -525q0 -17 13 -17h62v-31h-245v31h62q12 0 12 17v594q0 16 -12 16h-62v32h245v-32h-62q-13 0 -13 -16v-525l370 525q0 16 -13 16h-61v32h244v-32h-61q-12 0 -12 -16v-594q0 -17 12 -17h61v-31h-244v31h61q13 0 13 17v525z" />
    <glyph glyph-name="afii10027" unicode="&#x419;" horiz-adv-x="823" 
d="M289 831q0 13 12 21t28 8q34 0 34 -26q0 -41 14 -57.5t55 -16.5q35 0 49 15.5t14 58.5q0 25 35 25q16 0 28 -7.5t12 -20.5q0 -59 -36 -82.5t-102 -23.5q-143 0 -143 106zM596 573l-370 -525q0 -17 13 -17h62v-31h-245v31h62q12 0 12 17v594q0 16 -12 16h-62v32h245v-32
h-62q-13 0 -13 -16v-525l370 525q0 16 -13 16h-61v32h244v-32h-61q-12 0 -12 -16v-594q0 -17 12 -17h61v-31h-244v31h61q13 0 13 17v525z" />
    <glyph glyph-name="afii10028" unicode="&#x41a;" horiz-adv-x="692" 
d="M296 404q147 -134 333 -358q14 -15 31 -15h40v-31h-270v31h70q4 0 7.5 3t3.5 7q0 6 -13 21q-49 60 -140 159t-131 135v-308q0 -17 12 -17h62v-31h-245v31h62q12 0 12 17v594q0 16 -12 16h-62v32h245v-32h-62q-12 0 -12 -16v-263q47 44 89 97t68 90.5t53.5 71.5t58 51.5
t69.5 17.5q51 0 76.5 -22.5t25.5 -53.5q0 -19 -15.5 -34t-35.5 -15q-22 0 -32 11t-11 24t-9.5 24t-27.5 11q-20 0 -41 -22t-77.5 -90.5t-121.5 -135.5z" />
    <glyph glyph-name="afii10029" unicode="&#x41b;" horiz-adv-x="777" 
d="M98 -17q-51 0 -74.5 21t-23.5 53q0 20 13.5 34.5t33.5 14.5q22 0 32.5 -10.5t11 -23.5t9 -23.5t27.5 -10.5q28 0 50 39.5t35.5 101.5t22 144.5t12 160t3.5 157.5q0 17 -14 17h-75v32h560v-32h-62q-12 0 -12 -16v-594q0 -17 12 -17h62v-31h-245v31h62q12 0 12 17v594
q0 16 -12 16h-199q-11 0 -11 -15q-2 -71 -5 -125t-10 -126.5t-17 -126t-27.5 -109.5t-40 -91.5t-56 -58.5t-74.5 -23z" />
    <glyph glyph-name="afii10030" unicode="&#x41c;" horiz-adv-x="930" 
d="M468 12h-28l-262 537q0 -271 5 -468q1 -31 10.5 -40.5t34.5 -9.5h34v-31h-206v31h34q18 0 26 10.5t9 38.5q5 315 5 562q0 16 -11 16h-63v32h157l264 -558l243 558h154v-32h-62q-12 0 -12 -16v-594q0 -17 12 -17h62v-31h-249v31h66q12 0 12 17v497z" />
    <glyph glyph-name="afii10031" unicode="&#x41d;" horiz-adv-x="822" 
d="M596 343h-370v-295q0 -17 13 -17h62v-31h-245v31h62q12 0 12 17v594q0 16 -12 16h-62v32h245v-32h-62q-13 0 -13 -16v-262h370v262q0 16 -13 16h-61v32h244v-32h-61q-12 0 -12 -16v-594q0 -17 12 -17h61v-31h-244v31h61q13 0 13 17v295z" />
    <glyph glyph-name="afii10032" unicode="&#x41e;" horiz-adv-x="863" 
d="M807 341q0 -147 -110 -252t-265 -105t-265.5 105t-110.5 252q0 149 111 257.5t265 108.5q155 0 265 -108.5t110 -257.5zM166 341q0 -134 76 -222.5t190 -88.5t189.5 88.5t75.5 222.5q0 135 -76 226t-189 91q-114 0 -190 -91t-76 -226z" />
    <glyph glyph-name="afii10033" unicode="&#x41f;" horiz-adv-x="823" 
d="M583 31q13 0 13 17v588q-1 12 -13 12h-344q-12 0 -13 -12v-588q0 -17 13 -17h62v-31h-245v31h62q12 0 12 17v594q0 16 -12 16h-62v32h710v-32h-61q-12 0 -12 -16v-594q0 -17 12 -17h61v-31h-244v31h61z" />
    <glyph glyph-name="afii10034" unicode="&#x420;" horiz-adv-x="558" 
d="M225 323q209 0 209 160q0 80 -47.5 123t-161.5 43v-326zM56 0v31h59q13 0 13 17v594q0 16 -13 16h-59v32h228q124 0 190.5 -59t66.5 -148q0 -24 -7 -49t-25.5 -51.5t-46.5 -46.5t-73 -33t-101 -13q-38 0 -63 4v-246q0 -17 11 -17h88v-31h-268z" />
    <glyph glyph-name="afii10035" unicode="&#x421;" horiz-adv-x="748" 
d="M674 654q12 -8 12 -19q0 -19 5 -72.5t5 -65.5t-25 -12q-17 84 -73.5 130.5t-150.5 46.5q-119 0 -200 -92t-81 -229q0 -134 81.5 -223.5t194.5 -89.5q35 0 70 8.5t70.5 27.5t61 55t33.5 85q27 0 27 -13q0 -11 -4.5 -61.5t-4.5 -69.5q0 -6 -2.5 -9.5t-8.5 -7t-8 -5.5
q-88 -54 -248 -54q-155 0 -263.5 100.5t-108.5 251.5t118 261t277 110q140 0 223 -53z" />
    <glyph glyph-name="afii10036" unicode="&#x422;" horiz-adv-x="623" 
d="M353 653v-605q0 -17 13 -17h66v-31h-254v31h66q13 0 13 17v605q-70 -2 -103 -5.5t-60 -17.5t-39 -31.5t-34 -59.5q-21 0 -21 10q0 4 1.5 18t3.5 40.5t2 62.5q0 11 4.5 15.5t18.5 4.5h563q23 0 23 -20q0 -36 2 -62.5t3.5 -40.5t1.5 -18q0 -10 -22 -10q-28 54 -50 74
t-62 28.5t-136 11.5z" />
    <glyph glyph-name="afii10037" unicode="&#x423;" horiz-adv-x="577" 
d="M239 690v-32h-53q-14 0 -20 -6t0 -16l165 -366l144 359q12 29 -19 29h-45v32h205v-32h-35q-20 0 -31 -21q-83 -159 -215 -451q-47 -105 -94.5 -154t-115.5 -49q-36 0 -61 18t-25 49q0 59 46 59q16 0 25.5 -10t13 -22t12 -22t22.5 -10q35 0 65 30.5t64 103.5
q-23 56 -113 234t-122 234q-7 11 -19 11h-37v32h243z" />
    <glyph glyph-name="afii10038" unicode="&#x424;" horiz-adv-x="802" 
d="M752 346q0 -97 -85.5 -160.5t-217.5 -73.5v-64q0 -17 12 -17h62v-31h-245v31h62q12 0 12 17v64q-132 11 -217 74t-85 160t85.5 162t216.5 77v57q0 16 -12 16h-62v32h245v-32h-62q-12 0 -12 -16v-56q131 -11 217 -76.5t86 -163.5zM648 346q0 86 -55 142.5t-144 68.5v-418
q90 12 144.5 66.5t54.5 140.5zM155 346q0 -86 54 -140.5t143 -66.5v417q-89 -13 -143 -68.5t-54 -141.5z" />
    <glyph glyph-name="afii10039" unicode="&#x425;" horiz-adv-x="692" 
d="M385 372l242 -322q14 -19 30 -19h40v-31h-259v31h65q8 0 11 6.5t-3 14.5l-184 253q-132 -177 -169 -244q-9 -15 -5 -22.5t18 -7.5h57v-31h-234v31h32q7 0 17.5 6.5t15.5 12.5q111 122 242 286l-228 305q-13 17 -30 17h-40v32h257v-32h-66q-7 0 -9 -5.5t4 -16.5l171 -232
l175 224q10 15 6 22.5t-18 7.5h-58v32h237v-32h-36q-18 0 -35 -17q-22 -25 -112 -120.5t-134 -148.5z" />
    <glyph glyph-name="afii10040" unicode="&#x426;" horiz-adv-x="836" 
d="M718 0h-662v32h61q12 0 12 16v594q0 17 -12 17h-61v31h244v-31h-61q-13 0 -13 -17v-583q1 -12 13 -12h344q12 0 13 12v583q0 17 -13 17h-62v31h245v-31h-62q-12 0 -12 -17v-578q0 -17 12 -17h103q9 0 9 -11q0 -1 -2 -13t-5 -32t-5.5 -44t-4.5 -53.5t-2 -55.5h-28
q0 107 -51 162z" />
    <glyph glyph-name="afii10041" unicode="&#x427;" horiz-adv-x="755" 
d="M200 642v-227q0 -133 145 -133q69 0 126.5 36.5t57.5 89.5v234q0 16 -13 16h-61v32h244v-32h-61q-12 0 -12 -16v-594q0 -17 12 -17h61v-31h-244v31h61q13 0 13 17v276q-34 -60 -95.5 -91.5t-129.5 -31.5q-83 0 -141.5 54t-58.5 153v234q0 16 -12 16h-62v32h245v-32h-62
q-13 0 -13 -16z" />
    <glyph glyph-name="afii10042" unicode="&#x428;" horiz-adv-x="1089" 
d="M1032 0h-976v32h61q12 0 12 16v594q0 17 -12 17h-61v31h244v-31h-61q-13 0 -13 -17v-583q1 -12 13 -12h244q13 0 13 12v583q0 17 -12 17h-61v31h244v-31h-61q-13 0 -13 -17v-583q0 -12 13 -12h244q12 0 13 12v583q0 17 -13 17h-62v31h245v-31h-62q-12 0 -12 -17v-594
q0 -16 12 -16h61v-32z" />
    <glyph glyph-name="afii10043" unicode="&#x429;" horiz-adv-x="1103" 
d="M56 0v32h61q12 0 12 16v594q0 17 -12 17h-61v31h244v-31h-61q-13 0 -13 -17v-583q1 -12 13 -12h244q13 0 13 12v583q0 17 -12 17h-61v31h244v-31h-61q-13 0 -13 -17v-583q0 -12 13 -12h244q12 0 13 12v583q0 17 -13 17h-62v31h245v-31h-62q-12 0 -12 -17v-578
q0 -17 12 -17h103q9 0 9 -11q0 -1 -2 -13t-4.5 -32l-5.5 -44t-5 -53.5t-2 -55.5h-28q0 107 -51 162h-929z" />
    <glyph glyph-name="afii10044" unicode="&#x42a;" horiz-adv-x="741" 
d="M227 31q13 0 13 17v610q-97 -1 -142.5 -24.5t-70.5 -94.5q-22 0 -22 10q0 4 1.5 18t3.5 40.5t2 62.5q0 20 23 20h376v-32h-62q-12 0 -12 -16v-247q38 2 55 2q299 0 299 -201q0 -89 -72.5 -142.5t-218.5 -53.5h-232v31h59zM337 40q133 0 190.5 37.5t57.5 119.5
q0 37 -9 63.5t-34 51t-76.5 37.5t-128.5 13v-322z" />
    <glyph glyph-name="afii10045" unicode="&#x42b;" horiz-adv-x="897" 
d="M225 40q133 0 190.5 37.5t57.5 119.5q0 37 -9 63.5t-34 51t-76.5 37.5t-128.5 13v-322zM299 690v-32h-62q-12 0 -12 -16v-247q38 2 55 2q299 0 299 -201q0 -89 -72.5 -142.5t-218.5 -53.5h-232v31h59q13 0 13 17v594q0 16 -13 16h-59v32h243zM841 0h-245v31h62
q12 0 12 17v594q0 16 -12 16h-62v32h245v-32h-62q-12 0 -12 -16v-594q0 -17 12 -17h62v-31z" />
    <glyph glyph-name="afii10046" unicode="&#x42c;" horiz-adv-x="633" 
d="M225 40q133 0 190.5 37.5t57.5 119.5q0 37 -9 63.5t-34 51t-76.5 37.5t-128.5 13v-322zM299 690v-32h-62q-12 0 -12 -16v-247q38 2 55 2q299 0 299 -201q0 -89 -72.5 -142.5t-218.5 -53.5h-232v31h59q13 0 13 17v594q0 16 -13 16h-59v32h243z" />
    <glyph glyph-name="afii10047" unicode="&#x42d;" horiz-adv-x="748" 
d="M74 654q83 53 223 53q159 0 277 -110t118 -261t-108.5 -251.5t-263.5 -100.5q-160 0 -248 54q-2 2 -8 5.5t-8.5 7t-2.5 9.5q0 19 -4.5 69.5t-4.5 61.5q0 13 27 13q8 -49 33.5 -85t61 -55t70.5 -27.5t70 -8.5q113 0 194.5 89.5t81.5 223.5q-93 -1 -141 -3t-78 -8
t-37.5 -14.5t-9.5 -26.5l-4 -31q-31 0 -31 11q0 15 1 45t1 46t-1 42.5t-1 41.5q0 8 31 8l3 -30q3 -25 27 -34q32 -10 224 -14h1h1h1h1h1h1h1h1h1h1h1h1h1h1q-11 125 -89.5 206.5t-189.5 81.5q-94 0 -150.5 -46.5t-73.5 -130.5q-25 0 -25 12t5 65.5t5 72.5q0 11 12 19z" />
    <glyph glyph-name="afii10048" unicode="&#x42e;" horiz-adv-x="1122" 
d="M1066 341q0 -150 -96.5 -253.5t-248.5 -103.5t-249 103.5t-97 253.5v2h-149v-295q0 -17 13 -17h62v-31h-245v31h62q12 0 12 17v594q0 16 -12 16h-62v32h245v-32h-62q-13 0 -13 -16v-262h151q13 139 108 233t236 94q152 0 248.5 -107t96.5 -259zM485 341
q0 -138 62.5 -224.5t173.5 -86.5q110 0 172.5 86.5t62.5 224.5q0 139 -62.5 228t-172.5 89q-111 0 -173.5 -89t-62.5 -228z" />
    <glyph glyph-name="afii10049" unicode="&#x42f;" horiz-adv-x="660" 
d="M435 341v308q-115 0 -160 -37t-45 -116q0 -85 52.5 -119.5t152.5 -35.5zM604 31v-31h-254v31h74q11 0 11 17v259q-10 0 -20.5 0.5t-22.5 1.5t-20 1q-90 -124 -171 -217t-111 -93h-122q-7 0 -10 31q26 0 66.5 27t84.5 75q94 104 162 195q-68 18 -108 62.5t-40 105.5
q0 34 12 65.5t38.5 62t78.5 48.5t124 18h228v-32h-59q-13 0 -13 -16v-594q0 -17 13 -17h59z" />
    <glyph glyph-name="afii10065" unicode="&#x430;" horiz-adv-x="449" 
d="M266 154v87q-138 -54 -138 -145q0 -45 51 -45q33 0 60 27t27 76zM274 76q-16 -35 -53 -64t-80 -29q-44 0 -69 23.5t-25 62.5q0 53 52 106t167 99v70q0 36 -12.5 52t-41.5 16q-31 0 -55.5 -18t-30.5 -53q-2 -13 -16 -21.5t-30 -8.5q-28 0 -28 26q0 43 47.5 84t122.5 41
q64 0 95.5 -26t31.5 -71q0 -38 -3 -126t-3 -137q0 -44 36 -44q34 0 52 26q14 0 14 -10q0 -24 -25.5 -55t-64.5 -31q-38 0 -58.5 25.5t-22.5 62.5z" />
    <glyph glyph-name="afii10066" unicode="&#x431;" horiz-adv-x="552" 
d="M299 401q-71 0 -116 -57t-45 -141q0 -72 36 -125.5t105 -53.5q71 0 109.5 53t38.5 136q0 88 -35.5 138t-92.5 50zM42 261q0 66 14.5 127t45.5 119t87 102t131 66q95 26 96 69q34 0 34 -39q0 -49 -29 -75.5t-116 -35.5q-51 -6 -80.5 -18.5t-51 -45.5t-32 -83.5
t-19.5 -139.5q26 70 82.5 112.5t129.5 42.5q85 0 130.5 -56.5t45.5 -145.5q0 -108 -67.5 -192.5t-179.5 -84.5q-88 0 -154.5 70.5t-66.5 207.5z" />
    <glyph glyph-name="afii10067" unicode="&#x432;" horiz-adv-x="486" 
d="M309 322q0 43 -26.5 64t-105.5 21v-161q79 0 105.5 18.5t26.5 57.5zM34 440h189q97 0 135 -27t38 -76q0 -83 -110 -101q73 0 110.5 -33t37.5 -83q0 -51 -47 -85.5t-149 -34.5h-204v31h42q20 0 20 23v331q0 24 -20 24h-42v31zM177 218v-186q94 0 131.5 20t37.5 71
q0 47 -37 71t-132 24z" />
    <glyph glyph-name="afii10068" unicode="&#x433;" horiz-adv-x="388" 
d="M34 440h326q18 0 18 -20q0 -25 1 -50.5t2.5 -42.5t1.5 -20q0 -10 -23 -10q-18 66 -53 85t-130 19v-347q0 -23 18 -23h44v-31h-205v31h42q20 0 20 23v331q0 24 -20 24h-42v31z" />
    <glyph glyph-name="afii10069" unicode="&#x434;" horiz-adv-x="562" 
d="M455 47h93q9 0 9 -11q0 -1 -2 -12t-4.5 -29.5l-5.5 -41t-5 -51t-2 -54.5h-28q0 107 -37 152h-379q-47 -48 -47 -152h-28q0 26 -2 54.5t-4.5 51t-5.5 41t-5 29.5t-2 12q0 11 10 11h80q10 0 18 12q87 130 87 333q0 17 -14 17h-65v31h389v-31h-47q-15 0 -15 -18v-327
q0 -17 12 -17zM344 409h-70q-11 0 -11 -15q0 -61 -33 -168.5t-73 -158.5q-6 -8 -2.5 -14t12.5 -6h183q12 0 12 17v327q0 18 -18 18z" />
    <glyph glyph-name="afii10070" unicode="&#x435;" horiz-adv-x="471" 
d="M116 292q-6 -27 -6 -58q0 -81 49.5 -122.5t118.5 -41.5q89 0 130 53q8 0 14 -5t6 -12q0 -13 -8 -27q-23 -44 -71.5 -70t-104.5 -26q-83 0 -142.5 58t-59.5 172q0 102 66.5 175.5t165.5 73.5q77 0 119 -40.5t42 -100.5q0 -29 -29 -29h-290zM127 328q80 2 122.5 4.5t65 8
t27 11t4.5 17.5q0 21 -19.5 34t-58.5 13q-47 0 -85 -25t-56 -63z" />
    <glyph glyph-name="afii10072" unicode="&#x436;" horiz-adv-x="781" 
d="M350 248v138q0 23 -18 23h-44v31h205v-31h-42q-20 0 -20 -23v-138q36 33 71.5 77.5l55.5 71t49 46t64 19.5q38 0 56.5 -15t18.5 -37q0 -20 -14.5 -35t-37.5 -15q-14 0 -21 7.5t-7.5 17t-6 17t-17.5 7.5q-18 0 -33.5 -14.5t-47 -51.5t-65.5 -69q130 -118 208 -225
q12 -18 35 -18h27v-31h-211v31h38q9 0 12 6.5t-3 14.5q-26 36 -81.5 96t-89.5 88v-182q0 -23 18 -23h44v-31h-205v31h42q20 0 20 23v182q-34 -28 -89.5 -88t-81.5 -96q-6 -8 -3 -14.5t12 -6.5h38v-31h-211v31h27q23 0 35 18q78 107 208 225q-34 32 -65.5 69t-47 51.5
t-33.5 14.5q-12 0 -17.5 -7.5t-6 -17t-7.5 -17t-21 -7.5q-23 0 -37.5 15t-14.5 35q0 22 18.5 37t56.5 15q35 0 64 -19.5t49 -46l55.5 -71t71.5 -77.5z" />
    <glyph glyph-name="afii10073" unicode="&#x437;" horiz-adv-x="431" 
d="M177 24q120 0 120 95q0 47 -28.5 75t-82.5 28q-26 0 -43 -4t-22 -4q-15 0 -15 19q0 22 17 22q32 0 55.5 3t47 11t36 26t12.5 45q0 43 -19 60t-63 17q-84 0 -109 -87q-24 0 -24 11l3 78q1 18 40 30.5t92 12.5q81 0 125 -25.5t44 -75.5q0 -42 -26 -70t-72 -39
q55 -8 90 -39.5t35 -83.5q0 -65 -54.5 -105.5t-165.5 -40.5q-69 0 -100.5 25t-31.5 53q0 16 10 27.5t27 11.5q18 0 27.5 -12t13 -26t18.5 -26t43 -12z" />
    <glyph glyph-name="afii10074" unicode="&#x438;" horiz-adv-x="575" 
d="M479 386v-332q0 -23 18 -23h44v-31h-205v31h42q20 0 20 23v274l-221 -274q0 -23 18 -23h44v-31h-205v31h42q20 0 20 23v332q0 23 -18 23h-44v31h205v-31h-42q-20 0 -20 -23v-274l221 274q0 23 -18 23h-44v31h205v-31h-42q-20 0 -20 -23z" />
    <glyph glyph-name="afii10075" unicode="&#x439;" horiz-adv-x="575" 
d="M158 625q0 13 12 21t28 8q34 0 34 -26q0 -45 10 -61.5t49 -16.5q33 0 43 16t10 62q0 25 35 25q16 0 28 -7.5t12 -20.5q0 -60 -32 -83t-96 -23t-98.5 23.5t-34.5 82.5zM479 386v-332q0 -23 18 -23h44v-31h-205v31h42q20 0 20 23v274l-221 -274q0 -23 18 -23h44v-31h-205
v31h42q20 0 20 23v332q0 23 -18 23h-44v31h205v-31h-42q-20 0 -20 -23v-274l221 274q0 23 -18 23h-44v31h205v-31h-42q-20 0 -20 -23z" />
    <glyph glyph-name="afii10076" unicode="&#x43a;" horiz-adv-x="527" 
d="M177 236v-182q0 -23 18 -23h44v-31h-205v31h42q20 0 20 23v332q0 23 -18 23h-44v31h205v-31h-42q-20 0 -20 -23v-138q36 33 71.5 77.5l55.5 71t49 46t64 19.5q38 0 56.5 -15t18.5 -37q0 -20 -14.5 -35t-37.5 -15q-14 0 -21 7.5t-7.5 17t-6 17t-17.5 7.5q-18 0 -32 -13
t-44.5 -49t-64.5 -68q51 -46 110 -111.5t98 -118.5q12 -18 35 -18h27v-31h-216v31h38q9 0 12 6.5t-3 14.5q-26 36 -81.5 96t-89.5 88z" />
    <glyph glyph-name="afii10077" unicode="&#x43b;" horiz-adv-x="566" 
d="M268 389q0 -45 -2.5 -86.5t-13.5 -104t-30 -106.5t-56 -76.5t-88 -32.5q-78 0 -78 59q0 16 10 29.5t27 13.5q20 0 28.5 -9.5t8.5 -21t7 -21t24 -9.5q19 0 33 13t23 41t14.5 57.5t8 76t3 83t0.5 91.5q0 23 -18 23h-44v31h407v-31h-42q-20 0 -20 -23v-332q0 -23 18 -23h44
v-31h-205v31h42q20 0 20 23v332q0 23 -18 23h-86q-17 0 -17 -20z" />
    <glyph glyph-name="afii10078" unicode="&#x43c;" horiz-adv-x="676" 
d="M332 9h-23l-164 330l3 -270q0 -21 5.5 -29.5t21.5 -8.5h31v-31h-172v31h36q25 0 26 42l7 313q0 8 -6 15.5t-15 7.5h-48v31h156l153 -315l162 315h137v-31h-45q-18 0 -18 -24v-331q0 -23 23 -23h40v-31h-206v31h42q20 0 20 24v151q0 63 5 133z" />
    <glyph glyph-name="afii10079" unicode="&#x43d;" horiz-adv-x="575" 
d="M479 386v-332q0 -23 18 -23h44v-31h-205v31h42q20 0 20 23v170h-221v-170q0 -23 18 -23h44v-31h-205v31h42q20 0 20 23v332q0 23 -18 23h-44v31h205v-31h-42q-20 0 -20 -23v-131h221v131q0 23 -18 23h-44v31h205v-31h-42q-20 0 -20 -23z" />
    <glyph glyph-name="afii10080" unicode="&#x43e;" horiz-adv-x="562" 
d="M281 462q98 0 168.5 -70.5t70.5 -169.5q0 -100 -70.5 -169.5t-168.5 -69.5t-168.5 69.5t-70.5 169.5q0 99 70.5 169.5t168.5 70.5zM281 415q-68 0 -105.5 -50t-37.5 -143q0 -94 37.5 -143t105.5 -49t105 49.5t37 142.5t-37.5 143t-104.5 50z" />
    <glyph glyph-name="afii10081" unicode="&#x43f;" horiz-adv-x="575" 
d="M479 386v-332q0 -23 18 -23h44v-31h-205v31h42q20 0 20 23v316q0 23 -18 23h-186q-17 0 -17 -20v-319q0 -23 18 -23h44v-31h-205v31h42q20 0 20 23v332q0 23 -18 23h-44v31h507v-31h-42q-20 0 -20 -23z" />
    <glyph glyph-name="afii10082" unicode="&#x440;" horiz-adv-x="583" 
d="M169 11v-198q0 -25 19 -25h60v-31h-222v31h42q20 0 20 25v533q0 22 -19 27l-26 7q-17 4 -17 16q0 7 3 10q73 18 122 72q18 0 18 -6v-81q65 71 164 71q97 0 152 -63.5t55 -152.5q0 -102 -71.5 -179t-199.5 -77q-50 0 -100 21zM169 336v-187q0 -118 119 -118q79 0 122 52
t43 124q0 83 -45 135t-130 52q-40 0 -74.5 -17.5t-34.5 -40.5z" />
    <glyph glyph-name="afii10083" unicode="&#x441;" horiz-adv-x="449" 
d="M420 109q0 -13 -9 -32.5t-26.5 -41.5t-51 -37t-75.5 -15q-104 0 -160 64t-56 159q0 107 69.5 181.5t173.5 74.5q66 0 98.5 -24.5t32.5 -58.5q0 -18 -12 -30t-30 -12q-15 0 -25.5 9.5t-18 21.5t-28 21.5t-52.5 9.5q-61 0 -99 -45t-38 -118q0 -68 41.5 -115t119.5 -47
q86 0 126 53q20 0 20 -18z" />
    <glyph glyph-name="afii10084" unicode="&#x442;" horiz-adv-x="473" 
d="M33 440h407q18 0 18 -20q0 -25 1 -50.5t2.5 -42.5t1.5 -20q0 -10 -23 -10q-18 69 -45 86.5t-118 17.5v-347q0 -23 18 -23h44v-31h-205v31h42q20 0 20 23v347q-91 0 -118 -17.5t-45 -86.5q-23 0 -23 10q0 3 1 20l2.5 42.5t1.5 50.5q0 20 18 20z" />
    <glyph glyph-name="afii10085" unicode="&#x443;" horiz-adv-x="490" 
d="M309 440h183v-31h-25q-25 0 -36 -25l-187 -434q-48 -110 -91 -160t-110 -50q-33 0 -54.5 18.5t-21.5 44.5q0 23 11.5 38t34.5 15q16 0 25 -8t12 -17t10.5 -17t19.5 -8q55 0 145 194l-169 395q-6 14 -23 14h-33v31h216v-31h-51q-26 0 -12 -32l80 -190q18 -43 33 -98
q16 56 32 102l66 183q6 17 -0.5 26t-20.5 9h-34v31z" />
    <glyph glyph-name="afii10086" unicode="&#x444;" horiz-adv-x="610" 
d="M352 779q0 -2 -0.5 -12.5t-2 -31t-2.5 -50.5t-1.5 -80t-0.5 -110v-39q99 -12 161 -77.5t62 -156.5q0 -92 -62 -157.5t-161 -76.5v-175q0 -25 19 -25h43v-31h-206v31h42q21 0 21 25v175q-99 12 -160.5 77t-61.5 157q0 91 61.5 156.5t160.5 77.5v199q0 25 -6.5 34.5
t-21.5 14.5l-18 6q-17 5 -17 19q0 9 3 13q56 7 130 43q18 0 18 -6zM135 222q0 -175 129 -194v388q-129 -20 -129 -194zM473 222q0 173 -128 194v-388q128 19 128 194z" />
    <glyph glyph-name="afii10087" unicode="&#x445;" horiz-adv-x="545" 
d="M309 236l162 -191q11 -14 29 -14h34v-31h-241v31h51q13 0 15.5 7.5t-9.5 23.5l-95 119l-108 -119q-12 -14 -7.5 -22.5t18.5 -8.5h39v-31h-186v31h25q18 0 43 25l152 154l-155 185q-12 14 -29 14h-33v31h237v-31h-51q-13 0 -16 -7.5t9 -24.5l92 -113l103 113q12 15 7 23.5
t-19 8.5h-38v31h185v-31h-25q-17 0 -42 -25z" />
    <glyph glyph-name="afii10088" unicode="&#x446;" horiz-adv-x="598" 
d="M509 0h-475v31h44q18 0 18 23v332q0 23 -20 23h-42v31h205v-31h-44q-18 0 -18 -23v-319q0 -20 17 -20h186q18 0 18 23v316q0 23 -20 23h-42v31h205v-31h-44q-18 0 -18 -23v-322q0 -17 12 -17h93q9 0 9 -11q0 -1 -2 -12t-4.5 -29.5l-5.5 -41t-5 -51t-2 -54.5h-28
q0 107 -37 152z" />
    <glyph glyph-name="afii10089" unicode="&#x447;" horiz-adv-x="567" 
d="M470 384v-328q0 -25 21 -25h42v-31h-213v31h50q19 0 19 25v156q-25 -43 -69 -67t-92 -24q-61 0 -102 38.5t-41 110.5v114q0 25 -20 25h-42v31h213v-31h-50q-20 0 -20 -25v-109q0 -96 99 -96q45 0 84.5 30.5t39.5 71.5v103q0 25 -19 25h-50v31h213v-31h-42q-21 0 -21 -25z
" />
    <glyph glyph-name="afii10090" unicode="&#x448;" horiz-adv-x="817" 
d="M783 0h-749v31h44q18 0 18 23v332q0 23 -20 23h-42v31h205v-31h-44q-18 0 -18 -23v-319q0 -20 17 -20h156q18 0 18 23v316q0 23 -20 23h-42v31h205v-31h-44q-18 0 -18 -23v-319q0 -20 17 -20h156q18 0 18 23v316q0 23 -20 23h-42v31h205v-31h-44q-18 0 -18 -23v-332
q0 -23 20 -23h42v-31z" />
    <glyph glyph-name="afii10091" unicode="&#x449;" horiz-adv-x="840" 
d="M751 0h-717v31h44q18 0 18 23v332q0 23 -20 23h-42v31h205v-31h-44q-18 0 -18 -23v-319q0 -20 17 -20h156q18 0 18 23v316q0 23 -20 23h-42v31h205v-31h-44q-18 0 -18 -23v-319q0 -20 17 -20h156q18 0 18 23v316q0 23 -20 23h-42v31h205v-31h-44q-18 0 -18 -23v-322
q0 -17 12 -17h93q9 0 9 -11q0 -1 -2 -12t-4.5 -29.5l-5.5 -41t-5 -51t-2 -54.5h-28q0 107 -37 152z" />
    <glyph glyph-name="afii10092" unicode="&#x44a;" horiz-adv-x="534" 
d="M156 54v347q-80 0 -100.5 -14t-32.5 -80q-23 0 -23 10q0 3 1 17.5l2.5 37.5t1.5 48q0 20 18 20h286v-31h-52q-20 0 -20 -24v-118q31 3 58 3q199 0 199 -140q0 -53 -47.5 -91.5t-148.5 -38.5h-204v31h42q20 0 20 23zM237 238v-206q93 0 131 23t38 78q0 51 -37.5 78
t-131.5 27z" />
    <glyph glyph-name="afii10093" unicode="&#x44b;" horiz-adv-x="705" 
d="M177 385v-118q32 3 58 3q199 0 199 -140q0 -53 -47.5 -91.5t-148.5 -38.5h-204v31h42q20 0 20 23v331q0 24 -20 24h-42v31h215v-31h-52q-20 0 -20 -24zM177 238v-206q93 0 131 23t38 78q0 51 -37.5 78t-131.5 27zM609 386v-332q0 -23 18 -23h44v-31h-205v31h42
q20 0 20 23v332q0 23 -18 23h-44v31h205v-31h-42q-20 0 -20 -23z" />
    <glyph glyph-name="afii10094" unicode="&#x44c;" horiz-adv-x="474" 
d="M177 385v-118q32 3 58 3q199 0 199 -140q0 -53 -47.5 -91.5t-148.5 -38.5h-204v31h42q20 0 20 23v331q0 24 -20 24h-42v31h215v-31h-52q-20 0 -20 -24zM177 238v-206q93 0 131 23t38 78q0 51 -37.5 78t-131.5 27z" />
    <glyph glyph-name="afii10095" unicode="&#x44d;" horiz-adv-x="508" 
d="M57 424q60 38 163 38q102 0 174 -69.5t72 -168.5q0 -101 -70.5 -171t-172.5 -70q-100 0 -167 39q-12 6 -12 14q0 11 -4.5 52.5t-4.5 48.5q0 9 25 9q18 -58 60.5 -90.5t96.5 -32.5q72 0 112.5 53t42.5 140q-97 -3 -172 -17v71q56 -13 170 -17q-7 75 -48.5 121.5
t-107.5 46.5q-53 0 -93 -31.5t-58 -90.5q-7 0 -16 3t-9 7q0 7 5.5 49t5.5 53q0 7 8 13z" />
    <glyph glyph-name="afii10096" unicode="&#x44e;" horiz-adv-x="773" 
d="M511 462q96 0 157.5 -69.5t61.5 -170.5q0 -102 -61.5 -170.5t-157.5 -68.5q-97 0 -158 68.5t-61 172.5h-115v-170q0 -23 18 -23h44v-31h-205v31h42q20 0 20 23v332q0 23 -18 23h-44v31h205v-31h-42q-20 0 -20 -23v-131h117q10 90 69.5 148.5t147.5 58.5zM511 415
q-66 0 -94.5 -48t-28.5 -145t28.5 -144.5t94.5 -47.5q65 0 93.5 47.5t28.5 144.5t-28.5 145t-93.5 48z" />
    <glyph glyph-name="afii10097" unicode="&#x44f;" horiz-adv-x="493" 
d="M316 213v191q-85 -2 -113.5 -25t-28.5 -73q0 -47 31 -70t111 -23zM316 53v126q-9 -1 -28 -1q-14 0 -22 1q-49 -64 -105.5 -121.5t-72.5 -57.5h-95q-13 0 -13 31q65 0 208 165q-45 11 -72.5 41t-27.5 72q0 58 44.5 94.5t129.5 36.5h197v-31h-42q-20 0 -20 -24v-331
q0 -23 21 -23h41v-31h-206v31h45q18 0 18 22z" />
    <glyph glyph-name="afii10071" unicode="&#x451;" horiz-adv-x="471" 
d="M116 292q-6 -27 -6 -58q0 -81 49.5 -122.5t118.5 -41.5q89 0 130 53q8 0 14 -5t6 -12q0 -13 -8 -27q-23 -44 -71.5 -70t-104.5 -26q-83 0 -142.5 58t-59.5 172q0 102 66.5 175.5t165.5 73.5q77 0 119 -40.5t42 -100.5q0 -29 -29 -29h-290zM127 328q80 2 122.5 4.5t65 8
t27 11t4.5 17.5q0 21 -19.5 34t-58.5 13q-47 0 -85 -25t-56 -63zM157 653q20 0 34 -15t14 -37t-14.5 -38t-33.5 -16t-33 16t-14 38t13.5 37t33.5 15zM346 653q20 0 34 -15t14 -37t-14 -38t-34 -16t-34 16t-14 38t14 37t34 15z" />
    <glyph glyph-name="afii10099" unicode="&#x452;" horiz-adv-x="539" 
d="M479 313v-274q0 -71 -31.5 -141t-83 -114.5t-106.5 -44.5q-29 0 -29 25q0 23 21.5 39.5t62.5 16.5q36 0 60.5 39.5t24.5 120.5v308q0 53 -30.5 79.5t-75.5 26.5q-46 0 -81.5 -25.5t-35.5 -66.5v-246q0 -25 19 -25h50v-31h-213v31h42q21 0 21 25v517h-75v42h75v40
q0 25 -6.5 34.5t-21.5 14.5l-18 6q-17 5 -17 19q0 9 3 13q56 7 130 43q18 0 18 -6q0 -2 -1 -19.5t-2.5 -57t-2.5 -87.5h89v-42h-90v-26.5v-33.5v-29v-113q25 43 69 67t92 24q61 0 102 -38.5t41 -110.5z" />
    <glyph glyph-name="afii10100" unicode="&#x453;" horiz-adv-x="388" 
d="M34 440h326q18 0 18 -20q0 -25 1 -50.5t2.5 -42.5t1.5 -20q0 -10 -23 -10q-18 66 -53 85t-130 19v-347q0 -23 18 -23h44v-31h-205v31h42q20 0 20 23v331q0 24 -20 24h-42v31zM329 661l-164 -159l-21 9l115 176q13 20 52 20q31 0 31 -20q0 -11 -13 -26z" />
    <glyph glyph-name="afii10101" unicode="&#x454;" horiz-adv-x="508" 
d="M451 424q8 -6 8 -13q0 -11 5.5 -53t5.5 -49q0 -4 -9 -7t-16 -3q-18 59 -58 90.5t-93 31.5q-66 0 -107.5 -46.5t-49.5 -121.5q115 4 171 17v-71q-75 14 -172 17q2 -87 42.5 -140t112.5 -53q54 0 96.5 32.5t60.5 90.5q25 0 25 -9q0 -7 -4.5 -48.5t-4.5 -52.5q0 -8 -12 -14
q-67 -39 -167 -39q-102 0 -172.5 70t-70.5 171q0 99 72 168.5t174 69.5q103 0 163 -38z" />
    <glyph glyph-name="afii10102" unicode="&#x455;" 
d="M203 462q45 0 77 -15t32 -32v-80q0 -12 -25 -12q-14 50 -35.5 72t-54.5 22q-34 0 -53 -19t-19 -45q0 -31 19.5 -47.5t70.5 -39.5q56 -26 83.5 -58.5t27.5 -83.5q0 -64 -43 -102.5t-110 -38.5q-57 0 -90.5 15.5t-33.5 33.5v80q0 15 25 15q14 -51 38 -75t64 -24
q37 0 59 19.5t22 50.5q0 34 -18.5 51t-72.5 41q-55 26 -81.5 57.5t-26.5 79.5q0 54 39.5 94.5t105.5 40.5z" />
    <glyph glyph-name="afii10103" unicode="&#x456;" horiz-adv-x="268" 
d="M136 673q21 0 36 -15t15 -36t-15 -37t-36 -16t-37 16t-16 37q0 20 16 35.5t37 15.5zM175 360v-304q0 -25 19 -25h43v-31h-206v31h42q21 0 21 25v276q0 22 -20 27l-26 6q-17 3 -17 17q0 6 3 9q65 16 128 73q18 0 18 -6q0 -3 -1 -13.5t-2.5 -32.5t-1.5 -52z" />
    <glyph glyph-name="afii10104" unicode="&#x457;" horiz-adv-x="268" 
d="M175 360v-304q0 -25 19 -25h43v-31h-206v31h42q21 0 21 25v276q0 22 -20 27l-26 6q-17 3 -17 17q0 6 3 9q65 16 128 73q18 0 18 -6q0 -3 -1 -13.5t-2.5 -32.5t-1.5 -52zM39 653q20 0 34 -15t14 -37t-14.5 -38t-33.5 -16t-33 16t-14 38t13.5 37t33.5 15zM228 653
q20 0 34 -15t14 -37t-14 -38t-34 -16t-34 16t-14 38t14 37t34 15z" />
    <glyph glyph-name="afii10105" unicode="&#x458;" horiz-adv-x="249" 
d="M48 365q-17 5 -17 17q0 6 3 9q65 16 128 73q18 0 18 -6q0 -3 -1 -13.5t-2.5 -32.5t-1.5 -52v-321q0 -71 -31 -141t-82.5 -114.5t-106.5 -44.5q-29 0 -29 25q0 23 21.5 39.5t62.5 16.5q36 0 60 39.5t24 120.5v352q0 22 -20 27zM136 673q21 0 36 -15.5t15 -35.5
q0 -21 -15 -37t-36 -16t-37 16t-16 37q0 20 16 35.5t37 15.5z" />
    <glyph glyph-name="afii10106" unicode="&#x459;" horiz-adv-x="767" 
d="M125 440h417v-31h-52q-20 0 -20 -24v-118q31 3 58 3q199 0 199 -140q0 -53 -47.5 -91.5t-148.5 -38.5h-204v31h42q20 0 20 23v332q0 23 -18 23h-86q-17 0 -17 -20q0 -45 -2.5 -86.5t-13.5 -104t-30 -106.5t-56 -76.5t-88 -32.5q-78 0 -78 59q0 16 10 29.5t27 13.5
q20 0 28.5 -9.5t8.5 -21t7 -21t24 -9.5q19 0 33 13t23 41t14.5 57.5t8 76t3 83t0.5 91.5q0 23 -18 23h-44v31zM470 238v-206q93 0 131 23t38 78q0 51 -37.5 78t-131.5 27z" />
    <glyph glyph-name="afii10107" unicode="&#x45a;" horiz-adv-x="776" 
d="M551 440v-31h-52q-20 0 -20 -24v-118q31 3 58 3q199 0 199 -140q0 -53 -47.5 -91.5t-148.5 -38.5h-204v31h42q20 0 20 23v170h-221v-170q0 -23 18 -23h44v-31h-205v31h42q20 0 20 23v332q0 23 -18 23h-44v31h205v-31h-42q-20 0 -20 -23v-131h221v131q0 23 -18 23h-44v31
h215zM479 238v-206q93 0 131 23t38 78q0 51 -37.5 78t-131.5 27z" />
    <glyph glyph-name="afii10108" unicode="&#x45b;" horiz-adv-x="567" 
d="M19 615h75v40q0 25 -6.5 34.5t-21.5 14.5l-18 6q-17 5 -17 19q0 9 3 13q56 7 130 43q18 0 18 -6q0 -2 -1 -19.5t-2.5 -57t-2.5 -87.5h89v-42h-90v-26.5v-33.5v-29v-113q25 43 69 67t92 24q61 0 102 -38.5t41 -110.5v-257q0 -25 20 -25h42v-31h-213v31h50q20 0 20 25v232
q0 53 -30.5 79.5t-75.5 26.5q-46 0 -81.5 -25.5t-35.5 -66.5v-246q0 -25 19 -25h50v-31h-213v31h42q21 0 21 25v517h-75v42z" />
    <glyph glyph-name="afii10109" unicode="&#x45c;" horiz-adv-x="527" 
d="M177 236v-182q0 -23 18 -23h44v-31h-205v31h42q20 0 20 23v332q0 23 -18 23h-44v31h205v-31h-42q-20 0 -20 -23v-138q36 33 71.5 77.5l55.5 71t49 46t64 19.5q38 0 56.5 -15t18.5 -37q0 -20 -14.5 -35t-37.5 -15q-14 0 -21 7.5t-7.5 17t-6 17t-17.5 7.5q-18 0 -32 -13
t-44.5 -49t-64.5 -68q51 -46 110 -111.5t98 -118.5q12 -18 35 -18h27v-31h-216v31h38q9 0 12 6.5t-3 14.5q-26 36 -81.5 96t-89.5 88zM397 661l-164 -159l-21 9l115 176q13 20 52 20q31 0 31 -20q0 -11 -13 -26z" />
    <glyph glyph-name="afii10110" unicode="&#x45e;" horiz-adv-x="490" 
d="M123 636q0 13 12 21t28 8q34 0 34 -26q0 -45 10 -61.5t49 -16.5q33 0 43 16t10 62q0 25 35 25q16 0 28 -7.5t12 -20.5q0 -60 -32 -83t-96 -23t-98.5 23.5t-34.5 82.5zM309 440h183v-31h-25q-25 0 -36 -25l-187 -434q-48 -110 -91 -160t-110 -50q-33 0 -54.5 18.5
t-21.5 44.5q0 23 11.5 38t34.5 15q16 0 25 -8t12 -17t10.5 -17t19.5 -8q55 0 145 194l-169 395q-6 14 -23 14h-33v31h216v-31h-51q-26 0 -12 -32l80 -190q18 -43 33 -98q16 56 32 102l66 183q6 17 -0.5 26t-20.5 9h-34v31z" />
    </font>
</defs>
</svg>
